%TF.GenerationSoftware,KiCad,Pcbnew,7.0.1-0*%
%TF.CreationDate,2023-09-10T15:08:47+09:00*%
%TF.ProjectId,jisaku20rp,6a697361-6b75-4323-9072-702e6b696361,rev?*%
%TF.SameCoordinates,Original*%
%TF.FileFunction,Legend,Bot*%
%TF.FilePolarity,Positive*%
%FSLAX46Y46*%
G04 Gerber Fmt 4.6, Leading zero omitted, Abs format (unit mm)*
G04 Created by KiCad (PCBNEW 7.0.1-0) date 2023-09-10 15:08:47*
%MOMM*%
%LPD*%
G01*
G04 APERTURE LIST*
%ADD10C,0.150000*%
%ADD11C,0.300000*%
%ADD12C,0.500000*%
%ADD13C,0.800000*%
%ADD14C,3.000000*%
%ADD15C,3.500000*%
%ADD16C,1.000000*%
%ADD17C,0.400000*%
G04 APERTURE END LIST*
D10*
%TO.C,J1*%
X16136119Y20556404D02*
X16136119Y19984976D01*
X17136119Y20270690D02*
X16136119Y20270690D01*
X17136119Y19080214D02*
X16659928Y19413547D01*
X17136119Y19651642D02*
X16136119Y19651642D01*
X16136119Y19651642D02*
X16136119Y19270690D01*
X16136119Y19270690D02*
X16183738Y19175452D01*
X16183738Y19175452D02*
X16231357Y19127833D01*
X16231357Y19127833D02*
X16326595Y19080214D01*
X16326595Y19080214D02*
X16469452Y19080214D01*
X16469452Y19080214D02*
X16564690Y19127833D01*
X16564690Y19127833D02*
X16612309Y19175452D01*
X16612309Y19175452D02*
X16659928Y19270690D01*
X16659928Y19270690D02*
X16659928Y19651642D01*
X17136119Y18080214D02*
X16659928Y18413547D01*
X17136119Y18651642D02*
X16136119Y18651642D01*
X16136119Y18651642D02*
X16136119Y18270690D01*
X16136119Y18270690D02*
X16183738Y18175452D01*
X16183738Y18175452D02*
X16231357Y18127833D01*
X16231357Y18127833D02*
X16326595Y18080214D01*
X16326595Y18080214D02*
X16469452Y18080214D01*
X16469452Y18080214D02*
X16564690Y18127833D01*
X16564690Y18127833D02*
X16612309Y18175452D01*
X16612309Y18175452D02*
X16659928Y18270690D01*
X16659928Y18270690D02*
X16659928Y18651642D01*
X17088500Y17699261D02*
X17136119Y17556404D01*
X17136119Y17556404D02*
X17136119Y17318309D01*
X17136119Y17318309D02*
X17088500Y17223071D01*
X17088500Y17223071D02*
X17040880Y17175452D01*
X17040880Y17175452D02*
X16945642Y17127833D01*
X16945642Y17127833D02*
X16850404Y17127833D01*
X16850404Y17127833D02*
X16755166Y17175452D01*
X16755166Y17175452D02*
X16707547Y17223071D01*
X16707547Y17223071D02*
X16659928Y17318309D01*
X16659928Y17318309D02*
X16612309Y17508785D01*
X16612309Y17508785D02*
X16564690Y17604023D01*
X16564690Y17604023D02*
X16517071Y17651642D01*
X16517071Y17651642D02*
X16421833Y17699261D01*
X16421833Y17699261D02*
X16326595Y17699261D01*
X16326595Y17699261D02*
X16231357Y17651642D01*
X16231357Y17651642D02*
X16183738Y17604023D01*
X16183738Y17604023D02*
X16136119Y17508785D01*
X16136119Y17508785D02*
X16136119Y17270690D01*
X16136119Y17270690D02*
X16183738Y17127833D01*
X10260000Y14870000D02*
X10260000Y20870000D01*
X22260000Y14870000D02*
X10260000Y14870000D01*
X10260000Y20870000D02*
X22260000Y20870000D01*
X22260000Y20870000D02*
X22260000Y14870000D01*
%TO.C,SW15*%
X70300000Y-33400000D02*
X70300000Y-34150000D01*
X70300000Y-34150000D02*
X70500000Y-34150000D01*
D11*
X70400000Y-34050000D02*
X70400000Y-33400000D01*
D10*
X70550000Y-32550000D02*
X70550000Y-37000000D01*
X70550000Y-37000000D02*
X73580000Y-37000000D01*
D12*
X70750000Y-36800000D02*
X73200000Y-36800000D01*
D13*
X70900000Y-36500000D02*
X70900000Y-34700001D01*
D14*
X72030000Y-33000000D02*
X72030000Y-35240000D01*
D10*
X75800000Y-35100000D02*
X80600000Y-35100000D01*
D15*
X78800000Y-33300000D02*
X72100000Y-33300000D01*
D16*
X80100000Y-32100000D02*
X80100000Y-34600000D01*
D12*
X80400000Y-34850000D02*
X79100000Y-34800000D01*
D17*
X80450000Y-31700000D02*
X79200000Y-31700000D01*
D10*
X80580000Y-34100000D02*
X80580000Y-31850000D01*
X80600000Y-31500000D02*
X72399999Y-31500000D01*
X80600000Y-35100000D02*
X80600000Y-31500000D01*
X72399999Y-31499999D02*
G75*
G03*
X70300000Y-33400001I-100000J-1999999D01*
G01*
D16*
X75400000Y-34700000D02*
G75*
G03*
X73183682Y-36578529I-65001J-2169999D01*
G01*
D10*
X75800000Y-35100000D02*
G75*
G03*
X73583682Y-36978529I-65001J-2169999D01*
G01*
%TO.C,SW1*%
X-5900000Y4700000D02*
X-5900000Y3950000D01*
X-5900000Y3950000D02*
X-5700000Y3950000D01*
D11*
X-5800000Y4050000D02*
X-5800000Y4700000D01*
D10*
X-5650000Y5550000D02*
X-5650000Y1100000D01*
X-5650000Y1100000D02*
X-2620000Y1100000D01*
D12*
X-5450000Y1300000D02*
X-3000000Y1300000D01*
D13*
X-5300000Y1600000D02*
X-5300000Y3399999D01*
D14*
X-4170000Y5100000D02*
X-4170000Y2860000D01*
D10*
X-400000Y3000000D02*
X4400000Y3000000D01*
D15*
X2600000Y4800000D02*
X-4100000Y4800000D01*
D16*
X3900000Y6000000D02*
X3900000Y3500000D01*
D12*
X4200000Y3250000D02*
X2900000Y3300000D01*
D17*
X4250000Y6400000D02*
X3000000Y6400000D01*
D10*
X4380000Y4000000D02*
X4380000Y6250000D01*
X4400000Y6600000D02*
X-3800001Y6600000D01*
X4400000Y3000000D02*
X4400000Y6600000D01*
X-3800001Y6600001D02*
G75*
G03*
X-5900000Y4699999I-100000J-1999999D01*
G01*
D16*
X-800000Y3400000D02*
G75*
G03*
X-3016318Y1521471I-65001J-2169999D01*
G01*
D10*
X-400000Y3000000D02*
G75*
G03*
X-2616318Y1121471I-65001J-2169999D01*
G01*
%TO.C,SW14*%
X51250000Y-33400000D02*
X51250000Y-34150000D01*
X51250000Y-34150000D02*
X51450000Y-34150000D01*
D11*
X51350000Y-34050000D02*
X51350000Y-33400000D01*
D10*
X51500000Y-32550000D02*
X51500000Y-37000000D01*
X51500000Y-37000000D02*
X54530000Y-37000000D01*
D12*
X51700000Y-36800000D02*
X54150000Y-36800000D01*
D13*
X51850000Y-36500000D02*
X51850000Y-34700001D01*
D14*
X52980000Y-33000000D02*
X52980000Y-35240000D01*
D10*
X56750000Y-35100000D02*
X61550000Y-35100000D01*
D15*
X59750000Y-33300000D02*
X53050000Y-33300000D01*
D16*
X61050000Y-32100000D02*
X61050000Y-34600000D01*
D12*
X61350000Y-34850000D02*
X60050000Y-34800000D01*
D17*
X61400000Y-31700000D02*
X60150000Y-31700000D01*
D10*
X61530000Y-34100000D02*
X61530000Y-31850000D01*
X61550000Y-31500000D02*
X53349999Y-31500000D01*
X61550000Y-35100000D02*
X61550000Y-31500000D01*
X53349999Y-31499999D02*
G75*
G03*
X51250000Y-33400001I-100000J-1999999D01*
G01*
D16*
X56350000Y-34700000D02*
G75*
G03*
X54133682Y-36578529I-65001J-2169999D01*
G01*
D10*
X56750000Y-35100000D02*
G75*
G03*
X54533682Y-36978529I-65001J-2169999D01*
G01*
%TO.C,SW2*%
X13150000Y4700000D02*
X13150000Y3950000D01*
X13150000Y3950000D02*
X13350000Y3950000D01*
D11*
X13250000Y4050000D02*
X13250000Y4700000D01*
D10*
X13400000Y5550000D02*
X13400000Y1100000D01*
X13400000Y1100000D02*
X16430000Y1100000D01*
D12*
X13600000Y1300000D02*
X16050000Y1300000D01*
D13*
X13750000Y1600000D02*
X13750000Y3399999D01*
D14*
X14880000Y5100000D02*
X14880000Y2860000D01*
D10*
X18650000Y3000000D02*
X23450000Y3000000D01*
D15*
X21650000Y4800000D02*
X14950000Y4800000D01*
D16*
X22950000Y6000000D02*
X22950000Y3500000D01*
D12*
X23250000Y3250000D02*
X21950000Y3300000D01*
D17*
X23300000Y6400000D02*
X22050000Y6400000D01*
D10*
X23430000Y4000000D02*
X23430000Y6250000D01*
X23450000Y6600000D02*
X15249999Y6600000D01*
X23450000Y3000000D02*
X23450000Y6600000D01*
X15249999Y6600001D02*
G75*
G03*
X13150000Y4699999I-100000J-1999999D01*
G01*
D16*
X18250000Y3400000D02*
G75*
G03*
X16033682Y1521471I-65001J-2169999D01*
G01*
D10*
X18650000Y3000000D02*
G75*
G03*
X16433682Y1121471I-65001J-2169999D01*
G01*
%TO.C,SW17*%
X13150000Y-52450000D02*
X13150000Y-53200000D01*
X13150000Y-53200000D02*
X13350000Y-53200000D01*
D11*
X13250000Y-53100000D02*
X13250000Y-52450000D01*
D10*
X13400000Y-51600000D02*
X13400000Y-56050000D01*
X13400000Y-56050000D02*
X16430000Y-56050000D01*
D12*
X13600000Y-55850000D02*
X16050000Y-55850000D01*
D13*
X13750000Y-55550000D02*
X13750000Y-53750001D01*
D14*
X14880000Y-52050000D02*
X14880000Y-54290000D01*
D10*
X18650000Y-54150000D02*
X23450000Y-54150000D01*
D15*
X21650000Y-52350000D02*
X14950000Y-52350000D01*
D16*
X22950000Y-51150000D02*
X22950000Y-53650000D01*
D12*
X23250000Y-53900000D02*
X21950000Y-53850000D01*
D17*
X23300000Y-50750000D02*
X22050000Y-50750000D01*
D10*
X23430000Y-53150000D02*
X23430000Y-50900000D01*
X23450000Y-50550000D02*
X15249999Y-50550000D01*
X23450000Y-54150000D02*
X23450000Y-50550000D01*
X15249999Y-50549999D02*
G75*
G03*
X13150000Y-52450001I-100000J-1999999D01*
G01*
D16*
X18250000Y-53750000D02*
G75*
G03*
X16033682Y-55628529I-65001J-2169999D01*
G01*
D10*
X18650000Y-54150000D02*
G75*
G03*
X16433682Y-56028529I-65001J-2169999D01*
G01*
%TO.C,SW5*%
X70300000Y4700000D02*
X70300000Y3950000D01*
X70300000Y3950000D02*
X70500000Y3950000D01*
D11*
X70400000Y4050000D02*
X70400000Y4700000D01*
D10*
X70550000Y5550000D02*
X70550000Y1100000D01*
X70550000Y1100000D02*
X73580000Y1100000D01*
D12*
X70750000Y1300000D02*
X73200000Y1300000D01*
D13*
X70900000Y1600000D02*
X70900000Y3399999D01*
D14*
X72030000Y5100000D02*
X72030000Y2860000D01*
D10*
X75800000Y3000000D02*
X80600000Y3000000D01*
D15*
X78800000Y4800000D02*
X72100000Y4800000D01*
D16*
X80100000Y6000000D02*
X80100000Y3500000D01*
D12*
X80400000Y3250000D02*
X79100000Y3300000D01*
D17*
X80450000Y6400000D02*
X79200000Y6400000D01*
D10*
X80580000Y4000000D02*
X80580000Y6250000D01*
X80600000Y6600000D02*
X72399999Y6600000D01*
X80600000Y3000000D02*
X80600000Y6600000D01*
X72399999Y6600001D02*
G75*
G03*
X70300000Y4699999I-100000J-1999999D01*
G01*
D16*
X75400000Y3400000D02*
G75*
G03*
X73183682Y1521471I-65001J-2169999D01*
G01*
D10*
X75800000Y3000000D02*
G75*
G03*
X73583682Y1121471I-65001J-2169999D01*
G01*
%TO.C,SW7*%
X13150000Y-14350000D02*
X13150000Y-15100000D01*
X13150000Y-15100000D02*
X13350000Y-15100000D01*
D11*
X13250000Y-15000000D02*
X13250000Y-14350000D01*
D10*
X13400000Y-13500000D02*
X13400000Y-17950000D01*
X13400000Y-17950000D02*
X16430000Y-17950000D01*
D12*
X13600000Y-17750000D02*
X16050000Y-17750000D01*
D13*
X13750000Y-17450000D02*
X13750000Y-15650001D01*
D14*
X14880000Y-13950000D02*
X14880000Y-16190000D01*
D10*
X18650000Y-16050000D02*
X23450000Y-16050000D01*
D15*
X21650000Y-14250000D02*
X14950000Y-14250000D01*
D16*
X22950000Y-13050000D02*
X22950000Y-15550000D01*
D12*
X23250000Y-15800000D02*
X21950000Y-15750000D01*
D17*
X23300000Y-12650000D02*
X22050000Y-12650000D01*
D10*
X23430000Y-15050000D02*
X23430000Y-12800000D01*
X23450000Y-12450000D02*
X15249999Y-12450000D01*
X23450000Y-16050000D02*
X23450000Y-12450000D01*
X15249999Y-12449999D02*
G75*
G03*
X13150000Y-14350001I-100000J-1999999D01*
G01*
D16*
X18250000Y-15650000D02*
G75*
G03*
X16033682Y-17528529I-65001J-2169999D01*
G01*
D10*
X18650000Y-16050000D02*
G75*
G03*
X16433682Y-17928529I-65001J-2169999D01*
G01*
%TO.C,SW20*%
X70300000Y-52450000D02*
X70300000Y-53200000D01*
X70300000Y-53200000D02*
X70500000Y-53200000D01*
D11*
X70400000Y-53100000D02*
X70400000Y-52450000D01*
D10*
X70550000Y-51600000D02*
X70550000Y-56050000D01*
X70550000Y-56050000D02*
X73580000Y-56050000D01*
D12*
X70750000Y-55850000D02*
X73200000Y-55850000D01*
D13*
X70900000Y-55550000D02*
X70900000Y-53750001D01*
D14*
X72030000Y-52050000D02*
X72030000Y-54290000D01*
D10*
X75800000Y-54150000D02*
X80600000Y-54150000D01*
D15*
X78800000Y-52350000D02*
X72100000Y-52350000D01*
D16*
X80100000Y-51150000D02*
X80100000Y-53650000D01*
D12*
X80400000Y-53900000D02*
X79100000Y-53850000D01*
D17*
X80450000Y-50750000D02*
X79200000Y-50750000D01*
D10*
X80580000Y-53150000D02*
X80580000Y-50900000D01*
X80600000Y-50550000D02*
X72399999Y-50550000D01*
X80600000Y-54150000D02*
X80600000Y-50550000D01*
X72399999Y-50549999D02*
G75*
G03*
X70300000Y-52450001I-100000J-1999999D01*
G01*
D16*
X75400000Y-53750000D02*
G75*
G03*
X73183682Y-55628529I-65001J-2169999D01*
G01*
D10*
X75800000Y-54150000D02*
G75*
G03*
X73583682Y-56028529I-65001J-2169999D01*
G01*
%TO.C,SW8*%
X32200000Y-14350000D02*
X32200000Y-15100000D01*
X32200000Y-15100000D02*
X32400000Y-15100000D01*
D11*
X32300000Y-15000000D02*
X32300000Y-14350000D01*
D10*
X32450000Y-13500000D02*
X32450000Y-17950000D01*
X32450000Y-17950000D02*
X35480000Y-17950000D01*
D12*
X32650000Y-17750000D02*
X35100000Y-17750000D01*
D13*
X32800000Y-17450000D02*
X32800000Y-15650001D01*
D14*
X33930000Y-13950000D02*
X33930000Y-16190000D01*
D10*
X37700000Y-16050000D02*
X42500000Y-16050000D01*
D15*
X40700000Y-14250000D02*
X34000000Y-14250000D01*
D16*
X42000000Y-13050000D02*
X42000000Y-15550000D01*
D12*
X42300000Y-15800000D02*
X41000000Y-15750000D01*
D17*
X42350000Y-12650000D02*
X41100000Y-12650000D01*
D10*
X42480000Y-15050000D02*
X42480000Y-12800000D01*
X42500000Y-12450000D02*
X34299999Y-12450000D01*
X42500000Y-16050000D02*
X42500000Y-12450000D01*
X34299999Y-12449999D02*
G75*
G03*
X32200000Y-14350001I-100000J-1999999D01*
G01*
D16*
X37300000Y-15650000D02*
G75*
G03*
X35083682Y-17528529I-65001J-2169999D01*
G01*
D10*
X37700000Y-16050000D02*
G75*
G03*
X35483682Y-17928529I-65001J-2169999D01*
G01*
%TO.C,SW10*%
X70300000Y-14350000D02*
X70300000Y-15100000D01*
X70300000Y-15100000D02*
X70500000Y-15100000D01*
D11*
X70400000Y-15000000D02*
X70400000Y-14350000D01*
D10*
X70550000Y-13500000D02*
X70550000Y-17950000D01*
X70550000Y-17950000D02*
X73580000Y-17950000D01*
D12*
X70750000Y-17750000D02*
X73200000Y-17750000D01*
D13*
X70900000Y-17450000D02*
X70900000Y-15650001D01*
D14*
X72030000Y-13950000D02*
X72030000Y-16190000D01*
D10*
X75800000Y-16050000D02*
X80600000Y-16050000D01*
D15*
X78800000Y-14250000D02*
X72100000Y-14250000D01*
D16*
X80100000Y-13050000D02*
X80100000Y-15550000D01*
D12*
X80400000Y-15800000D02*
X79100000Y-15750000D01*
D17*
X80450000Y-12650000D02*
X79200000Y-12650000D01*
D10*
X80580000Y-15050000D02*
X80580000Y-12800000D01*
X80600000Y-12450000D02*
X72399999Y-12450000D01*
X80600000Y-16050000D02*
X80600000Y-12450000D01*
X72399999Y-12449999D02*
G75*
G03*
X70300000Y-14350001I-100000J-1999999D01*
G01*
D16*
X75400000Y-15650000D02*
G75*
G03*
X73183682Y-17528529I-65001J-2169999D01*
G01*
D10*
X75800000Y-16050000D02*
G75*
G03*
X73583682Y-17928529I-65001J-2169999D01*
G01*
%TO.C,SW3*%
X32200000Y4700000D02*
X32200000Y3950000D01*
X32200000Y3950000D02*
X32400000Y3950000D01*
D11*
X32300000Y4050000D02*
X32300000Y4700000D01*
D10*
X32450000Y5550000D02*
X32450000Y1100000D01*
X32450000Y1100000D02*
X35480000Y1100000D01*
D12*
X32650000Y1300000D02*
X35100000Y1300000D01*
D13*
X32800000Y1600000D02*
X32800000Y3399999D01*
D14*
X33930000Y5100000D02*
X33930000Y2860000D01*
D10*
X37700000Y3000000D02*
X42500000Y3000000D01*
D15*
X40700000Y4800000D02*
X34000000Y4800000D01*
D16*
X42000000Y6000000D02*
X42000000Y3500000D01*
D12*
X42300000Y3250000D02*
X41000000Y3300000D01*
D17*
X42350000Y6400000D02*
X41100000Y6400000D01*
D10*
X42480000Y4000000D02*
X42480000Y6250000D01*
X42500000Y6600000D02*
X34299999Y6600000D01*
X42500000Y3000000D02*
X42500000Y6600000D01*
X34299999Y6600001D02*
G75*
G03*
X32200000Y4699999I-100000J-1999999D01*
G01*
D16*
X37300000Y3400000D02*
G75*
G03*
X35083682Y1521471I-65001J-2169999D01*
G01*
D10*
X37700000Y3000000D02*
G75*
G03*
X35483682Y1121471I-65001J-2169999D01*
G01*
%TO.C,SW16*%
X-5900000Y-52450000D02*
X-5900000Y-53200000D01*
X-5900000Y-53200000D02*
X-5700000Y-53200000D01*
D11*
X-5800000Y-53100000D02*
X-5800000Y-52450000D01*
D10*
X-5650000Y-51600000D02*
X-5650000Y-56050000D01*
X-5650000Y-56050000D02*
X-2620000Y-56050000D01*
D12*
X-5450000Y-55850000D02*
X-3000000Y-55850000D01*
D13*
X-5300000Y-55550000D02*
X-5300000Y-53750001D01*
D14*
X-4170000Y-52050000D02*
X-4170000Y-54290000D01*
D10*
X-400000Y-54150000D02*
X4400000Y-54150000D01*
D15*
X2600000Y-52350000D02*
X-4100000Y-52350000D01*
D16*
X3900000Y-51150000D02*
X3900000Y-53650000D01*
D12*
X4200000Y-53900000D02*
X2900000Y-53850000D01*
D17*
X4250000Y-50750000D02*
X3000000Y-50750000D01*
D10*
X4380000Y-53150000D02*
X4380000Y-50900000D01*
X4400000Y-50550000D02*
X-3800001Y-50550000D01*
X4400000Y-54150000D02*
X4400000Y-50550000D01*
X-3800001Y-50549999D02*
G75*
G03*
X-5900000Y-52450001I-100000J-1999999D01*
G01*
D16*
X-800000Y-53750000D02*
G75*
G03*
X-3016318Y-55628529I-65001J-2169999D01*
G01*
D10*
X-400000Y-54150000D02*
G75*
G03*
X-2616318Y-56028529I-65001J-2169999D01*
G01*
%TO.C,SW18*%
X32200000Y-52450000D02*
X32200000Y-53200000D01*
X32200000Y-53200000D02*
X32400000Y-53200000D01*
D11*
X32300000Y-53100000D02*
X32300000Y-52450000D01*
D10*
X32450000Y-51600000D02*
X32450000Y-56050000D01*
X32450000Y-56050000D02*
X35480000Y-56050000D01*
D12*
X32650000Y-55850000D02*
X35100000Y-55850000D01*
D13*
X32800000Y-55550000D02*
X32800000Y-53750001D01*
D14*
X33930000Y-52050000D02*
X33930000Y-54290000D01*
D10*
X37700000Y-54150000D02*
X42500000Y-54150000D01*
D15*
X40700000Y-52350000D02*
X34000000Y-52350000D01*
D16*
X42000000Y-51150000D02*
X42000000Y-53650000D01*
D12*
X42300000Y-53900000D02*
X41000000Y-53850000D01*
D17*
X42350000Y-50750000D02*
X41100000Y-50750000D01*
D10*
X42480000Y-53150000D02*
X42480000Y-50900000D01*
X42500000Y-50550000D02*
X34299999Y-50550000D01*
X42500000Y-54150000D02*
X42500000Y-50550000D01*
X34299999Y-50549999D02*
G75*
G03*
X32200000Y-52450001I-100000J-1999999D01*
G01*
D16*
X37300000Y-53750000D02*
G75*
G03*
X35083682Y-55628529I-65001J-2169999D01*
G01*
D10*
X37700000Y-54150000D02*
G75*
G03*
X35483682Y-56028529I-65001J-2169999D01*
G01*
%TO.C,SW12*%
X13150000Y-33400000D02*
X13150000Y-34150000D01*
X13150000Y-34150000D02*
X13350000Y-34150000D01*
D11*
X13250000Y-34050000D02*
X13250000Y-33400000D01*
D10*
X13400000Y-32550000D02*
X13400000Y-37000000D01*
X13400000Y-37000000D02*
X16430000Y-37000000D01*
D12*
X13600000Y-36800000D02*
X16050000Y-36800000D01*
D13*
X13750000Y-36500000D02*
X13750000Y-34700001D01*
D14*
X14880000Y-33000000D02*
X14880000Y-35240000D01*
D10*
X18650000Y-35100000D02*
X23450000Y-35100000D01*
D15*
X21650000Y-33300000D02*
X14950000Y-33300000D01*
D16*
X22950000Y-32100000D02*
X22950000Y-34600000D01*
D12*
X23250000Y-34850000D02*
X21950000Y-34800000D01*
D17*
X23300000Y-31700000D02*
X22050000Y-31700000D01*
D10*
X23430000Y-34100000D02*
X23430000Y-31850000D01*
X23450000Y-31500000D02*
X15249999Y-31500000D01*
X23450000Y-35100000D02*
X23450000Y-31500000D01*
X15249999Y-31499999D02*
G75*
G03*
X13150000Y-33400001I-100000J-1999999D01*
G01*
D16*
X18250000Y-34700000D02*
G75*
G03*
X16033682Y-36578529I-65001J-2169999D01*
G01*
D10*
X18650000Y-35100000D02*
G75*
G03*
X16433682Y-36978529I-65001J-2169999D01*
G01*
%TO.C,SW9*%
X51250000Y-14350000D02*
X51250000Y-15100000D01*
X51250000Y-15100000D02*
X51450000Y-15100000D01*
D11*
X51350000Y-15000000D02*
X51350000Y-14350000D01*
D10*
X51500000Y-13500000D02*
X51500000Y-17950000D01*
X51500000Y-17950000D02*
X54530000Y-17950000D01*
D12*
X51700000Y-17750000D02*
X54150000Y-17750000D01*
D13*
X51850000Y-17450000D02*
X51850000Y-15650001D01*
D14*
X52980000Y-13950000D02*
X52980000Y-16190000D01*
D10*
X56750000Y-16050000D02*
X61550000Y-16050000D01*
D15*
X59750000Y-14250000D02*
X53050000Y-14250000D01*
D16*
X61050000Y-13050000D02*
X61050000Y-15550000D01*
D12*
X61350000Y-15800000D02*
X60050000Y-15750000D01*
D17*
X61400000Y-12650000D02*
X60150000Y-12650000D01*
D10*
X61530000Y-15050000D02*
X61530000Y-12800000D01*
X61550000Y-12450000D02*
X53349999Y-12450000D01*
X61550000Y-16050000D02*
X61550000Y-12450000D01*
X53349999Y-12449999D02*
G75*
G03*
X51250000Y-14350001I-100000J-1999999D01*
G01*
D16*
X56350000Y-15650000D02*
G75*
G03*
X54133682Y-17528529I-65001J-2169999D01*
G01*
D10*
X56750000Y-16050000D02*
G75*
G03*
X54533682Y-17928529I-65001J-2169999D01*
G01*
%TO.C,SW11*%
X-5900000Y-33400000D02*
X-5900000Y-34150000D01*
X-5900000Y-34150000D02*
X-5700000Y-34150000D01*
D11*
X-5800000Y-34050000D02*
X-5800000Y-33400000D01*
D10*
X-5650000Y-32550000D02*
X-5650000Y-37000000D01*
X-5650000Y-37000000D02*
X-2620000Y-37000000D01*
D12*
X-5450000Y-36800000D02*
X-3000000Y-36800000D01*
D13*
X-5300000Y-36500000D02*
X-5300000Y-34700001D01*
D14*
X-4170000Y-33000000D02*
X-4170000Y-35240000D01*
D10*
X-400000Y-35100000D02*
X4400000Y-35100000D01*
D15*
X2600000Y-33300000D02*
X-4100000Y-33300000D01*
D16*
X3900000Y-32100000D02*
X3900000Y-34600000D01*
D12*
X4200000Y-34850000D02*
X2900000Y-34800000D01*
D17*
X4250000Y-31700000D02*
X3000000Y-31700000D01*
D10*
X4380000Y-34100000D02*
X4380000Y-31850000D01*
X4400000Y-31500000D02*
X-3800001Y-31500000D01*
X4400000Y-35100000D02*
X4400000Y-31500000D01*
X-3800001Y-31499999D02*
G75*
G03*
X-5900000Y-33400001I-100000J-1999999D01*
G01*
D16*
X-800000Y-34700000D02*
G75*
G03*
X-3016318Y-36578529I-65001J-2169999D01*
G01*
D10*
X-400000Y-35100000D02*
G75*
G03*
X-2616318Y-36978529I-65001J-2169999D01*
G01*
%TO.C,SW6*%
X-5900000Y-14350000D02*
X-5900000Y-15100000D01*
X-5900000Y-15100000D02*
X-5700000Y-15100000D01*
D11*
X-5800000Y-15000000D02*
X-5800000Y-14350000D01*
D10*
X-5650000Y-13500000D02*
X-5650000Y-17950000D01*
X-5650000Y-17950000D02*
X-2620000Y-17950000D01*
D12*
X-5450000Y-17750000D02*
X-3000000Y-17750000D01*
D13*
X-5300000Y-17450000D02*
X-5300000Y-15650001D01*
D14*
X-4170000Y-13950000D02*
X-4170000Y-16190000D01*
D10*
X-400000Y-16050000D02*
X4400000Y-16050000D01*
D15*
X2600000Y-14250000D02*
X-4100000Y-14250000D01*
D16*
X3900000Y-13050000D02*
X3900000Y-15550000D01*
D12*
X4200000Y-15800000D02*
X2900000Y-15750000D01*
D17*
X4250000Y-12650000D02*
X3000000Y-12650000D01*
D10*
X4380000Y-15050000D02*
X4380000Y-12800000D01*
X4400000Y-12450000D02*
X-3800001Y-12450000D01*
X4400000Y-16050000D02*
X4400000Y-12450000D01*
X-3800001Y-12449999D02*
G75*
G03*
X-5900000Y-14350001I-100000J-1999999D01*
G01*
D16*
X-800000Y-15650000D02*
G75*
G03*
X-3016318Y-17528529I-65001J-2169999D01*
G01*
D10*
X-400000Y-16050000D02*
G75*
G03*
X-2616318Y-17928529I-65001J-2169999D01*
G01*
%TO.C,SW4*%
X51250000Y4700000D02*
X51250000Y3950000D01*
X51250000Y3950000D02*
X51450000Y3950000D01*
D11*
X51350000Y4050000D02*
X51350000Y4700000D01*
D10*
X51500000Y5550000D02*
X51500000Y1100000D01*
X51500000Y1100000D02*
X54530000Y1100000D01*
D12*
X51700000Y1300000D02*
X54150000Y1300000D01*
D13*
X51850000Y1600000D02*
X51850000Y3399999D01*
D14*
X52980000Y5100000D02*
X52980000Y2860000D01*
D10*
X56750000Y3000000D02*
X61550000Y3000000D01*
D15*
X59750000Y4800000D02*
X53050000Y4800000D01*
D16*
X61050000Y6000000D02*
X61050000Y3500000D01*
D12*
X61350000Y3250000D02*
X60050000Y3300000D01*
D17*
X61400000Y6400000D02*
X60150000Y6400000D01*
D10*
X61530000Y4000000D02*
X61530000Y6250000D01*
X61550000Y6600000D02*
X53349999Y6600000D01*
X61550000Y3000000D02*
X61550000Y6600000D01*
X53349999Y6600001D02*
G75*
G03*
X51250000Y4699999I-100000J-1999999D01*
G01*
D16*
X56350000Y3400000D02*
G75*
G03*
X54133682Y1521471I-65001J-2169999D01*
G01*
D10*
X56750000Y3000000D02*
G75*
G03*
X54533682Y1121471I-65001J-2169999D01*
G01*
%TO.C,SW13*%
X32200000Y-33400000D02*
X32200000Y-34150000D01*
X32200000Y-34150000D02*
X32400000Y-34150000D01*
D11*
X32300000Y-34050000D02*
X32300000Y-33400000D01*
D10*
X32450000Y-32550000D02*
X32450000Y-37000000D01*
X32450000Y-37000000D02*
X35480000Y-37000000D01*
D12*
X32650000Y-36800000D02*
X35100000Y-36800000D01*
D13*
X32800000Y-36500000D02*
X32800000Y-34700001D01*
D14*
X33930000Y-33000000D02*
X33930000Y-35240000D01*
D10*
X37700000Y-35100000D02*
X42500000Y-35100000D01*
D15*
X40700000Y-33300000D02*
X34000000Y-33300000D01*
D16*
X42000000Y-32100000D02*
X42000000Y-34600000D01*
D12*
X42300000Y-34850000D02*
X41000000Y-34800000D01*
D17*
X42350000Y-31700000D02*
X41100000Y-31700000D01*
D10*
X42480000Y-34100000D02*
X42480000Y-31850000D01*
X42500000Y-31500000D02*
X34299999Y-31500000D01*
X42500000Y-35100000D02*
X42500000Y-31500000D01*
X34299999Y-31499999D02*
G75*
G03*
X32200000Y-33400001I-100000J-1999999D01*
G01*
D16*
X37300000Y-34700000D02*
G75*
G03*
X35083682Y-36578529I-65001J-2169999D01*
G01*
D10*
X37700000Y-35100000D02*
G75*
G03*
X35483682Y-36978529I-65001J-2169999D01*
G01*
%TO.C,SW19*%
X51250000Y-52450000D02*
X51250000Y-53200000D01*
X51250000Y-53200000D02*
X51450000Y-53200000D01*
D11*
X51350000Y-53100000D02*
X51350000Y-52450000D01*
D10*
X51500000Y-51600000D02*
X51500000Y-56050000D01*
X51500000Y-56050000D02*
X54530000Y-56050000D01*
D12*
X51700000Y-55850000D02*
X54150000Y-55850000D01*
D13*
X51850000Y-55550000D02*
X51850000Y-53750001D01*
D14*
X52980000Y-52050000D02*
X52980000Y-54290000D01*
D10*
X56750000Y-54150000D02*
X61550000Y-54150000D01*
D15*
X59750000Y-52350000D02*
X53050000Y-52350000D01*
D16*
X61050000Y-51150000D02*
X61050000Y-53650000D01*
D12*
X61350000Y-53900000D02*
X60050000Y-53850000D01*
D17*
X61400000Y-50750000D02*
X60150000Y-50750000D01*
D10*
X61530000Y-53150000D02*
X61530000Y-50900000D01*
X61550000Y-50550000D02*
X53349999Y-50550000D01*
X61550000Y-54150000D02*
X61550000Y-50550000D01*
X53349999Y-50549999D02*
G75*
G03*
X51250000Y-52450001I-100000J-1999999D01*
G01*
D16*
X56350000Y-53750000D02*
G75*
G03*
X54133682Y-55628529I-65001J-2169999D01*
G01*
D10*
X56750000Y-54150000D02*
G75*
G03*
X54533682Y-56028529I-65001J-2169999D01*
G01*
%TO.C,D15*%
X75860000Y-46832500D02*
X75860000Y-45832500D01*
X75960000Y-46332500D02*
X76860000Y-46832500D01*
X76860000Y-45832500D02*
X75960000Y-46332500D01*
X76860000Y-46832500D02*
X76860000Y-45832500D01*
%TO.C,D11*%
X-430000Y-47140000D02*
X-430000Y-46140000D01*
X-330000Y-46640000D02*
X570000Y-47140000D01*
X570000Y-46140000D02*
X-330000Y-46640000D01*
X570000Y-47140000D02*
X570000Y-46140000D01*
%TO.C,D4*%
X56830000Y-8740000D02*
X56830000Y-7740000D01*
X56930000Y-8240000D02*
X57830000Y-8740000D01*
X57830000Y-7740000D02*
X56930000Y-8240000D01*
X57830000Y-8740000D02*
X57830000Y-7740000D01*
%TO.C,D6*%
X-450000Y-27840000D02*
X-450000Y-26840000D01*
X-350000Y-27340000D02*
X550000Y-27840000D01*
X550000Y-26840000D02*
X-350000Y-27340000D01*
X550000Y-27840000D02*
X550000Y-26840000D01*
%TO.C,D9*%
X56940000Y-28130000D02*
X56940000Y-27130000D01*
X57040000Y-27630000D02*
X57940000Y-28130000D01*
X57940000Y-27130000D02*
X57040000Y-27630000D01*
X57940000Y-28130000D02*
X57940000Y-27130000D01*
%TO.C,D8*%
X37810000Y-27550000D02*
X37810000Y-26550000D01*
X37910000Y-27050000D02*
X38810000Y-27550000D01*
X38810000Y-26550000D02*
X37910000Y-27050000D01*
X38810000Y-27550000D02*
X38810000Y-26550000D01*
%TO.C,D20*%
X76195000Y-65930000D02*
X76195000Y-64930000D01*
X76295000Y-65430000D02*
X77195000Y-65930000D01*
X77195000Y-64930000D02*
X76295000Y-65430000D01*
X77195000Y-65930000D02*
X77195000Y-64930000D01*
%TO.C,D17*%
X18561250Y-65930000D02*
X18561250Y-64930000D01*
X18661250Y-65430000D02*
X19561250Y-65930000D01*
X19561250Y-64930000D02*
X18661250Y-65430000D01*
X19561250Y-65930000D02*
X19561250Y-64930000D01*
%TO.C,D12*%
X18642500Y-46730000D02*
X18642500Y-45730000D01*
X18742500Y-46230000D02*
X19642500Y-46730000D01*
X19642500Y-45730000D02*
X18742500Y-46230000D01*
X19642500Y-46730000D02*
X19642500Y-45730000D01*
%TO.C,D10*%
X76070000Y-27695000D02*
X76070000Y-26695000D01*
X76170000Y-27195000D02*
X77070000Y-27695000D01*
X77070000Y-26695000D02*
X76170000Y-27195000D01*
X77070000Y-27695000D02*
X77070000Y-26695000D01*
%TO.C,D5*%
X75930000Y-8800000D02*
X75930000Y-7800000D01*
X76030000Y-8300000D02*
X76930000Y-8800000D01*
X76930000Y-7800000D02*
X76030000Y-8300000D01*
X76930000Y-8800000D02*
X76930000Y-7800000D01*
%TO.C,D13*%
X37715000Y-47037500D02*
X37715000Y-46037500D01*
X37815000Y-46537500D02*
X38715000Y-47037500D01*
X38715000Y-46037500D02*
X37815000Y-46537500D01*
X38715000Y-47037500D02*
X38715000Y-46037500D01*
%TO.C,D1*%
X-470000Y-9010000D02*
X-470000Y-8010000D01*
X-370000Y-8510000D02*
X530000Y-9010000D01*
X530000Y-8010000D02*
X-370000Y-8510000D01*
X530000Y-9010000D02*
X530000Y-8010000D01*
%TO.C,D14*%
X56787500Y-46935000D02*
X56787500Y-45935000D01*
X56887500Y-46435000D02*
X57787500Y-46935000D01*
X57787500Y-45935000D02*
X56887500Y-46435000D01*
X57787500Y-46935000D02*
X57787500Y-45935000D01*
%TO.C,D7*%
X18680000Y-27985000D02*
X18680000Y-26985000D01*
X18780000Y-27485000D02*
X19680000Y-27985000D01*
X19680000Y-26985000D02*
X18780000Y-27485000D01*
X19680000Y-27985000D02*
X19680000Y-26985000D01*
%TO.C,D3*%
X37730000Y-8740000D02*
X37730000Y-7740000D01*
X37830000Y-8240000D02*
X38730000Y-8740000D01*
X38730000Y-7740000D02*
X37830000Y-8240000D01*
X38730000Y-8740000D02*
X38730000Y-7740000D01*
%TO.C,D19*%
X56983750Y-65800000D02*
X56983750Y-64800000D01*
X57083750Y-65300000D02*
X57983750Y-65800000D01*
X57983750Y-64800000D02*
X57083750Y-65300000D01*
X57983750Y-65800000D02*
X57983750Y-64800000D01*
%TO.C,D18*%
X37772500Y-65930000D02*
X37772500Y-64930000D01*
X37872500Y-65430000D02*
X38772500Y-65930000D01*
X38772500Y-64930000D02*
X37872500Y-65430000D01*
X38772500Y-65930000D02*
X38772500Y-64930000D01*
%TO.C,D16*%
X-650000Y-65800000D02*
X-650000Y-64800000D01*
X-550000Y-65300000D02*
X350000Y-65800000D01*
X350000Y-64800000D02*
X-550000Y-65300000D01*
X350000Y-65800000D02*
X350000Y-64800000D01*
%TO.C,D2*%
X18630000Y-8740000D02*
X18630000Y-7740000D01*
X18730000Y-8240000D02*
X19630000Y-8740000D01*
X19630000Y-7740000D02*
X18730000Y-8240000D01*
X19630000Y-8740000D02*
X19630000Y-7740000D01*
%TD*%
M02*
