M48
; DRILL file {KiCad 7.0.1-0} date 2023 September 10, Sunday 15:08:49
; FORMAT={-:-/ absolute / metric / decimal}
; #@! TF.CreationDate,2023-09-10T15:08:49+09:00
; #@! TF.GenerationSoftware,Kicad,Pcbnew,7.0.1-0
; #@! TF.FileFunction,Plated,1,2,PTH
FMAT,2
METRIC
; #@! TA.AperFunction,Plated,PTH,ViaDrill
T1C0.400
; #@! TA.AperFunction,Plated,PTH,ComponentDrill
T2C0.813
; #@! TA.AperFunction,Plated,PTH,ComponentDrill
T3C1.000
%
G90
G05
T1
X27.81Y-64.32
X27.82Y4.64
X27.84Y21.41
X28.96Y18.85
X28.97Y4.72
X28.98Y-45.255
X29.77Y7.11
X31.22Y8.51
X32.05Y6.41
X40.49Y18.72
X40.56Y21.37
X46.22Y2.49
X46.22Y-25.84
X49.22Y5.79
X49.41Y6.955
T2
X-3.15Y-65.3
X-2.97Y-8.51
X-2.95Y-27.34
X-2.93Y-46.64
X2.85Y-65.3
X3.03Y-8.51
X3.05Y-27.34
X3.07Y-46.64
X16.061Y-65.43
X16.13Y-8.24
X16.142Y-46.23
X16.18Y-27.485
X22.061Y-65.43
X22.13Y-8.24
X22.142Y-46.23
X22.18Y-27.485
X35.215Y-46.538
X35.23Y-8.24
X35.273Y-65.43
X35.31Y-27.05
X41.215Y-46.538
X41.23Y-8.24
X41.273Y-65.43
X41.31Y-27.05
X44.68Y26.47
X44.68Y23.93
X44.68Y21.39
X44.68Y18.85
X44.68Y16.31
X44.68Y13.77
X44.68Y11.23
X47.22Y26.47
X47.22Y11.23
X49.76Y26.47
X49.76Y11.23
X52.3Y26.47
X52.3Y11.23
X54.287Y-46.435
X54.33Y-8.24
X54.44Y-27.63
X54.484Y-65.3
X54.84Y26.47
X54.84Y11.23
X57.38Y26.47
X57.38Y11.23
X59.92Y26.47
X59.92Y11.23
X60.287Y-46.435
X60.33Y-8.24
X60.44Y-27.63
X60.484Y-65.3
X62.46Y26.47
X62.46Y11.23
X65.0Y26.47
X65.0Y11.23
X73.36Y-46.332
X73.43Y-8.3
X73.57Y-27.195
X73.695Y-65.43
X79.36Y-46.332
X79.43Y-8.3
X79.57Y-27.195
X79.695Y-65.43
T3
G00X13.31Y21.72
M15
G01X13.81Y21.72
M16
G05
G00X13.31Y15.77
M15
G01X13.81Y15.77
M16
G05
G00X16.31Y21.72
M15
G01X16.81Y21.72
M16
G05
G00X16.31Y15.77
M15
G01X16.81Y15.77
M16
G05
G00X20.31Y21.72
M15
G01X20.81Y21.72
M16
G05
G00X20.31Y15.77
M15
G01X20.81Y15.77
M16
G05
G00X21.81Y19.97
M15
G01X22.31Y19.97
M16
G05
G00X21.81Y17.52
M15
G01X22.31Y17.52
M16
G05
T0
M30
