%TF.GenerationSoftware,KiCad,Pcbnew,7.0.8*%
%TF.CreationDate,2023-10-28T15:02:47+09:00*%
%TF.ProjectId,jisaku20rp,6a697361-6b75-4323-9072-702e6b696361,rev?*%
%TF.SameCoordinates,Original*%
%TF.FileFunction,Copper,L1,Top*%
%TF.FilePolarity,Positive*%
%FSLAX46Y46*%
G04 Gerber Fmt 4.6, Leading zero omitted, Abs format (unit mm)*
G04 Created by KiCad (PCBNEW 7.0.8) date 2023-10-28 15:02:47*
%MOMM*%
%LPD*%
G01*
G04 APERTURE LIST*
%TA.AperFunction,ComponentPad*%
%ADD10O,2.500000X1.700000*%
%TD*%
%TA.AperFunction,ComponentPad*%
%ADD11C,1.524000*%
%TD*%
%TA.AperFunction,SMDPad,CuDef*%
%ADD12R,1.200000X2.000000*%
%TD*%
%TA.AperFunction,SMDPad,CuDef*%
%ADD13R,2.000000X1.200000*%
%TD*%
%TA.AperFunction,ComponentPad*%
%ADD14R,1.778000X1.300000*%
%TD*%
%TA.AperFunction,ComponentPad*%
%ADD15O,1.778000X1.300000*%
%TD*%
%TA.AperFunction,ViaPad*%
%ADD16C,0.800000*%
%TD*%
%TA.AperFunction,Conductor*%
%ADD17C,0.250000*%
%TD*%
G04 APERTURE END LIST*
D10*
%TO.P,J1,A*%
%TO.N,unconnected-(J1-PadA)*%
X22060000Y17520000D03*
X22060000Y19970000D03*
%TO.P,J1,B*%
%TO.N,data*%
X13560000Y15770000D03*
X13560000Y21720000D03*
%TO.P,J1,C*%
%TO.N,GND*%
X16560000Y15770000D03*
X16560000Y21720000D03*
%TO.P,J1,D*%
%TO.N,VCC*%
X20560000Y15770000D03*
X20560000Y21720000D03*
%TD*%
D11*
%TO.P,U2,0,GP0*%
%TO.N,data*%
X65000000Y11230000D03*
D12*
X65000000Y9760000D03*
D11*
%TO.P,U2,1,GP1*%
%TO.N,unconnected-(U2-GP1-Pad1)*%
X62460000Y11230000D03*
D12*
X62460000Y9760000D03*
D11*
%TO.P,U2,2,GP2*%
%TO.N,unconnected-(U2-GP2-Pad2)*%
X59920000Y11230000D03*
D12*
X59920000Y9760000D03*
D11*
%TO.P,U2,3,GP3*%
%TO.N,unconnected-(U2-GP3-Pad3)*%
X57380000Y11230000D03*
D12*
X57380000Y9760000D03*
D11*
%TO.P,U2,4,GP4*%
%TO.N,unconnected-(U2-GP4-Pad4)*%
X54840000Y11230000D03*
D12*
X54840000Y9760000D03*
D11*
%TO.P,U2,5,GP5*%
%TO.N,unconnected-(U2-GP5-Pad5)*%
X52300000Y11230000D03*
D12*
X52300000Y9760000D03*
D11*
%TO.P,U2,6,GP6*%
%TO.N,unconnected-(U2-GP6-Pad6)*%
X49760000Y11230000D03*
D12*
X49760000Y9760000D03*
D11*
%TO.P,U2,7,GP7*%
%TO.N,col4*%
X47220000Y11230000D03*
D12*
X47220000Y9760000D03*
D11*
%TO.P,U2,8,GP8*%
%TO.N,col3*%
X44680000Y11230000D03*
D12*
X44680000Y9760000D03*
D11*
%TO.P,U2,9,GP9*%
%TO.N,row0*%
X44680000Y13770000D03*
D13*
X43230000Y13770000D03*
D11*
%TO.P,U2,10,GP10*%
%TO.N,row1*%
X44680000Y16310000D03*
D13*
X43230000Y16310000D03*
D11*
%TO.P,U2,11,GP11*%
%TO.N,row2*%
X44680000Y18850000D03*
D13*
X43220000Y18850000D03*
D11*
%TO.P,U2,12,GP12*%
%TO.N,row3*%
X44680000Y21390000D03*
D13*
X43240000Y21390000D03*
D11*
%TO.P,U2,13,GP13*%
%TO.N,col2*%
X44680000Y23930000D03*
D13*
X43230000Y23930000D03*
D12*
%TO.P,U2,14,GP14*%
%TO.N,col1*%
X44680000Y27940000D03*
D11*
X44680000Y26470000D03*
D12*
%TO.P,U2,15,GP15*%
%TO.N,col0*%
X47220000Y27940000D03*
D11*
X47220000Y26470000D03*
D12*
%TO.P,U2,26,GP26*%
%TO.N,unconnected-(U2-GP26-Pad26)*%
X49760000Y27940000D03*
D11*
X49760000Y26470000D03*
D12*
%TO.P,U2,27,GP27*%
%TO.N,unconnected-(U2-GP27-Pad27)*%
X52300000Y27940000D03*
D11*
X52300000Y26470000D03*
D12*
%TO.P,U2,28,GP28*%
%TO.N,unconnected-(U2-GP28-Pad28)*%
X54840000Y27940000D03*
D11*
X54840000Y26470000D03*
D12*
%TO.P,U2,29,GP29*%
%TO.N,unconnected-(U2-GP29-Pad29)*%
X57380000Y27940000D03*
D11*
X57380000Y26470000D03*
D12*
%TO.P,U2,30,3V3*%
%TO.N,unconnected-(U2-3V3-Pad30)*%
X59920000Y27940000D03*
D11*
X59920000Y26470000D03*
D12*
%TO.P,U2,31,GND*%
%TO.N,GND*%
X62460000Y27940000D03*
D11*
X62460000Y26470000D03*
D12*
%TO.P,U2,32,5V*%
%TO.N,VCC*%
X65000000Y27940000D03*
D11*
X65000000Y26470000D03*
%TD*%
D14*
%TO.P,D15,1,K*%
%TO.N,row2*%
X73360000Y-46332500D03*
D15*
%TO.P,D15,2,A*%
%TO.N,Net-(D15-A)*%
X79360000Y-46332500D03*
%TD*%
D14*
%TO.P,D11,1,K*%
%TO.N,row2*%
X-2930000Y-46640000D03*
D15*
%TO.P,D11,2,A*%
%TO.N,Net-(D11-A)*%
X3070000Y-46640000D03*
%TD*%
D14*
%TO.P,D4,1,K*%
%TO.N,row0*%
X54330000Y-8240000D03*
D15*
%TO.P,D4,2,A*%
%TO.N,Net-(D4-A)*%
X60330000Y-8240000D03*
%TD*%
D14*
%TO.P,D6,1,K*%
%TO.N,row1*%
X-2950000Y-27340000D03*
D15*
%TO.P,D6,2,A*%
%TO.N,Net-(D6-A)*%
X3050000Y-27340000D03*
%TD*%
D14*
%TO.P,D9,1,K*%
%TO.N,row1*%
X54440000Y-27630000D03*
D15*
%TO.P,D9,2,A*%
%TO.N,Net-(D9-A)*%
X60440000Y-27630000D03*
%TD*%
D14*
%TO.P,D8,1,K*%
%TO.N,row1*%
X35310000Y-27050000D03*
D15*
%TO.P,D8,2,A*%
%TO.N,Net-(D8-A)*%
X41310000Y-27050000D03*
%TD*%
D14*
%TO.P,D20,1,K*%
%TO.N,row3*%
X73695000Y-65430000D03*
D15*
%TO.P,D20,2,A*%
%TO.N,Net-(D20-A)*%
X79695000Y-65430000D03*
%TD*%
D14*
%TO.P,D17,1,K*%
%TO.N,row3*%
X16061250Y-65430000D03*
D15*
%TO.P,D17,2,A*%
%TO.N,Net-(D17-A)*%
X22061250Y-65430000D03*
%TD*%
D14*
%TO.P,D12,1,K*%
%TO.N,row2*%
X16142500Y-46230000D03*
D15*
%TO.P,D12,2,A*%
%TO.N,Net-(D12-A)*%
X22142500Y-46230000D03*
%TD*%
D14*
%TO.P,D10,1,K*%
%TO.N,row1*%
X73570000Y-27195000D03*
D15*
%TO.P,D10,2,A*%
%TO.N,Net-(D10-A)*%
X79570000Y-27195000D03*
%TD*%
D14*
%TO.P,D5,1,K*%
%TO.N,row0*%
X73430000Y-8300000D03*
D15*
%TO.P,D5,2,A*%
%TO.N,Net-(D5-A)*%
X79430000Y-8300000D03*
%TD*%
D14*
%TO.P,D13,1,K*%
%TO.N,row2*%
X35215000Y-46537500D03*
D15*
%TO.P,D13,2,A*%
%TO.N,Net-(D13-A)*%
X41215000Y-46537500D03*
%TD*%
D14*
%TO.P,D1,1,K*%
%TO.N,row0*%
X-2970000Y-8510000D03*
D15*
%TO.P,D1,2,A*%
%TO.N,Net-(D1-A)*%
X3030000Y-8510000D03*
%TD*%
D14*
%TO.P,D14,1,K*%
%TO.N,row2*%
X54287500Y-46435000D03*
D15*
%TO.P,D14,2,A*%
%TO.N,Net-(D14-A)*%
X60287500Y-46435000D03*
%TD*%
D14*
%TO.P,D7,1,K*%
%TO.N,row1*%
X16180000Y-27485000D03*
D15*
%TO.P,D7,2,A*%
%TO.N,Net-(D7-A)*%
X22180000Y-27485000D03*
%TD*%
D14*
%TO.P,D3,1,K*%
%TO.N,row0*%
X35230000Y-8240000D03*
D15*
%TO.P,D3,2,A*%
%TO.N,Net-(D3-A)*%
X41230000Y-8240000D03*
%TD*%
D14*
%TO.P,D19,1,K*%
%TO.N,row3*%
X54483750Y-65300000D03*
D15*
%TO.P,D19,2,A*%
%TO.N,Net-(D19-A)*%
X60483750Y-65300000D03*
%TD*%
D14*
%TO.P,D18,1,K*%
%TO.N,row3*%
X35272500Y-65430000D03*
D15*
%TO.P,D18,2,A*%
%TO.N,Net-(D18-A)*%
X41272500Y-65430000D03*
%TD*%
D14*
%TO.P,D16,1,K*%
%TO.N,row3*%
X-3150000Y-65300000D03*
D15*
%TO.P,D16,2,A*%
%TO.N,Net-(D16-A)*%
X2850000Y-65300000D03*
%TD*%
D14*
%TO.P,D2,1,K*%
%TO.N,row0*%
X16130000Y-8240000D03*
D15*
%TO.P,D2,2,A*%
%TO.N,Net-(D2-A)*%
X22130000Y-8240000D03*
%TD*%
D16*
%TO.N,row1*%
X46220000Y2490000D03*
X46220000Y-25840000D03*
%TO.N,row2*%
X28980000Y-45255000D03*
X28970000Y4720000D03*
X28960000Y18850000D03*
X40490000Y18720000D03*
%TO.N,row3*%
X27820000Y4640000D03*
X27810000Y-64320000D03*
X40560000Y21370000D03*
X27840000Y21410000D03*
%TO.N,col0*%
X31220000Y8510000D03*
%TO.N,col1*%
X29770000Y7110000D03*
%TO.N,col2*%
X32050000Y6410000D03*
%TO.N,col3*%
X49220000Y5790000D03*
%TO.N,col4*%
X49410000Y6955000D03*
%TD*%
D17*
%TO.N,row0*%
X47530000Y-7265000D02*
X53355000Y-7265000D01*
X14787273Y-6897273D02*
X16130000Y-8240000D01*
X55651968Y-6918032D02*
X66350030Y-6918032D01*
X36205000Y-7265000D02*
X47530000Y-7265000D01*
X34255000Y-7265000D02*
X35230000Y-8240000D01*
X43230000Y9590000D02*
X43230000Y8960000D01*
X66350030Y-6918032D02*
X66680000Y-6897273D01*
X53355000Y-7265000D02*
X54330000Y-8240000D01*
X72027273Y-6897273D02*
X73430000Y-8300000D01*
X17105000Y-7265000D02*
X34255000Y-7265000D01*
X54330000Y-8240000D02*
X55651968Y-6918032D01*
X47560000Y1260000D02*
X47560000Y-7235000D01*
X-1357273Y-6897273D02*
X14787273Y-6897273D01*
X-2970000Y-8510000D02*
X-1357273Y-6897273D01*
X47560000Y-7235000D02*
X47530000Y-7265000D01*
X43230000Y8960000D02*
X47560000Y4630000D01*
X47560000Y4630000D02*
X47560000Y1260000D01*
X43230000Y13770000D02*
X44680000Y13770000D01*
X47560000Y3850000D02*
X47560000Y1260000D01*
X66680000Y-6897273D02*
X72027273Y-6897273D01*
X35230000Y-8240000D02*
X36205000Y-7265000D01*
X43230000Y9590000D02*
X43230000Y13770000D01*
X16130000Y-8240000D02*
X17105000Y-7265000D01*
%TO.N,row1*%
X54440000Y-27630000D02*
X52650000Y-25840000D01*
X16180000Y-27485000D02*
X15025000Y-26330000D01*
X46220000Y-25840000D02*
X36520000Y-25840000D01*
X35310000Y-27050000D02*
X34770000Y-26510000D01*
X36520000Y-25840000D02*
X35310000Y-27050000D01*
X46220000Y5333604D02*
X41905000Y9648604D01*
X46220000Y2490000D02*
X46220000Y5333604D01*
X43050000Y16310000D02*
X44680000Y16310000D01*
X55415000Y-26655000D02*
X54440000Y-27630000D01*
X46260000Y2530000D02*
X46220000Y2490000D01*
X41905000Y9648604D02*
X41905000Y15165000D01*
X52650000Y-25840000D02*
X46220000Y-25840000D01*
X73030000Y-26655000D02*
X55415000Y-26655000D01*
X34770000Y-26510000D02*
X17155000Y-26510000D01*
X15025000Y-26330000D02*
X-1940000Y-26330000D01*
X41905000Y15165000D02*
X43050000Y16310000D01*
X-1940000Y-26330000D02*
X-2950000Y-27340000D01*
X73570000Y-27195000D02*
X73030000Y-26655000D01*
X17155000Y-26510000D02*
X16180000Y-27485000D01*
%TO.N,row2*%
X28960000Y4730000D02*
X28970000Y4720000D01*
X35215000Y-46537500D02*
X36190000Y-45562500D01*
X55725227Y-44997273D02*
X72024773Y-44997273D01*
X43220000Y18850000D02*
X40620000Y18850000D01*
X54287500Y-46435000D02*
X55725227Y-44997273D01*
X44680000Y18850000D02*
X43220000Y18850000D01*
X33932500Y-45255000D02*
X35215000Y-46537500D01*
X72024773Y-44997273D02*
X73360000Y-46332500D01*
X28980000Y-45255000D02*
X33932500Y-45255000D01*
X53415000Y-45562500D02*
X54287500Y-46435000D01*
X17117500Y-45255000D02*
X28980000Y-45255000D01*
X-1287273Y-44997273D02*
X14909773Y-44997273D01*
X36190000Y-45562500D02*
X53415000Y-45562500D01*
X40620000Y18850000D02*
X40490000Y18720000D01*
X28960000Y18850000D02*
X28960000Y4730000D01*
X28970000Y8260000D02*
X28970000Y4720000D01*
X-2930000Y-46640000D02*
X-1287273Y-44997273D01*
X16142500Y-46230000D02*
X17117500Y-45255000D01*
X14909773Y-44997273D02*
X16142500Y-46230000D01*
%TO.N,row3*%
X27810000Y-64320000D02*
X17171250Y-64320000D01*
X54483750Y-65300000D02*
X55458750Y-64325000D01*
X72590000Y-64325000D02*
X73695000Y-65430000D01*
X55458750Y-64325000D02*
X72590000Y-64325000D01*
X36247500Y-64455000D02*
X35272500Y-65430000D01*
X16061250Y-65430000D02*
X14951250Y-64320000D01*
X35272500Y-65430000D02*
X34162500Y-64320000D01*
X54483750Y-65300000D02*
X53638750Y-64455000D01*
X53638750Y-64455000D02*
X36247500Y-64455000D01*
X27820000Y21390000D02*
X27840000Y21410000D01*
X27820000Y4640000D02*
X27820000Y8440000D01*
X40580000Y21390000D02*
X44680000Y21390000D01*
X17171250Y-64320000D02*
X16061250Y-65430000D01*
X27820000Y8440000D02*
X27820000Y21390000D01*
X-2170000Y-64320000D02*
X-3150000Y-65300000D01*
X40560000Y21370000D02*
X40580000Y21390000D01*
X14951250Y-64320000D02*
X-2170000Y-64320000D01*
X34162500Y-64320000D02*
X27810000Y-64320000D01*
%TO.N,col0*%
X32073000Y25383000D02*
X31220000Y24530000D01*
X47220000Y26470000D02*
X47220000Y27940000D01*
X47220000Y26470000D02*
X46133000Y25383000D01*
X46133000Y25383000D02*
X32073000Y25383000D01*
X31220000Y24530000D02*
X31220000Y8510000D01*
%TO.N,col1*%
X39870000Y26470000D02*
X41230000Y26470000D01*
X30630000Y26470000D02*
X41230000Y26470000D01*
X44680000Y27940000D02*
X44680000Y26470000D01*
X29770000Y7110000D02*
X29770000Y25610000D01*
X41230000Y26470000D02*
X44680000Y26470000D01*
X29770000Y25610000D02*
X30630000Y26470000D01*
%TO.N,col2*%
X32050000Y23480000D02*
X32050000Y6410000D01*
X44680000Y23930000D02*
X40970000Y23930000D01*
X40970000Y23930000D02*
X32500000Y23930000D01*
X32500000Y23930000D02*
X32050000Y23480000D01*
%TO.N,col3*%
X44680000Y11230000D02*
X44680000Y9760000D01*
X49220000Y5790000D02*
X48650000Y5790000D01*
X48650000Y5790000D02*
X44680000Y9760000D01*
%TO.N,col4*%
X47220000Y9145000D02*
X49410000Y6955000D01*
X47220000Y11230000D02*
X47220000Y9760000D01*
X47220000Y9760000D02*
X47220000Y9145000D01*
%TD*%
M02*
