999
"DXF R12 Output" (www.mydxf.blogspot.com)
 0 
SECTION
 2 
HEADER
 9 
$ACADVER
 1 
AC1009
 9 
$EXTMIN
 10 
 0 
 20 
 0 
 9 
$EXTMAX
 10 
 8.5 
 20 
 11 
 0 
ENDSEC
 0 
SECTION
 2 
ENTITIES
0
LINE
8
Layer 1
10
62.508700
20
52.806400
11
66.459800
21
52.806400
0
LINE
8
Layer 1
10
66.459800
20
52.806400
11
66.459800
21
48.855300
0
LINE
8
Layer 1
10
66.459800
20
48.855300
11
62.508700
21
48.855300
0
LINE
8
Layer 1
10
62.508700
20
48.855300
11
62.508700
21
52.806400
0
LINE
8
Layer 1
10
62.508700
20
47.427300
11
66.459800
21
47.427300
0
LINE
8
Layer 1
10
66.459800
20
47.427300
11
66.459800
21
43.476200
0
LINE
8
Layer 1
10
66.459800
20
43.476200
11
62.508700
21
43.476200
0
LINE
8
Layer 1
10
62.508700
20
43.476200
11
62.508700
21
47.427300
0
LINE
8
Layer 1
10
73.261400
20
47.430100
11
77.212500
21
47.430100
0
LINE
8
Layer 1
10
77.212500
20
47.430100
11
77.212500
21
43.479000
0
LINE
8
Layer 1
10
77.212500
20
43.479000
11
73.261400
21
43.479000
0
LINE
8
Layer 1
10
73.261400
20
43.479000
11
73.261400
21
47.430100
0
LINE
8
Layer 1
10
73.261400
20
52.809200
11
77.212500
21
52.809200
0
LINE
8
Layer 1
10
77.212500
20
52.809200
11
77.212500
21
48.858100
0
LINE
8
Layer 1
10
77.212500
20
48.858100
11
73.261400
21
48.858100
0
LINE
8
Layer 1
10
73.261400
20
48.858100
11
73.261400
21
52.809200
0
LINE
8
Layer 1
10
73.261400
20
36.680300
11
77.212500
21
36.680300
0
LINE
8
Layer 1
10
77.212500
20
36.680300
11
77.212500
21
32.729200
0
LINE
8
Layer 1
10
77.212500
20
32.729200
11
73.261400
21
32.729200
0
LINE
8
Layer 1
10
73.261400
20
32.729200
11
73.261400
21
36.680300
0
LINE
8
Layer 1
10
73.261400
20
42.056600
11
77.212500
21
42.056600
0
LINE
8
Layer 1
10
77.212500
20
42.056600
11
77.212500
21
38.105500
0
LINE
8
Layer 1
10
77.212500
20
38.105500
11
73.261400
21
38.105500
0
LINE
8
Layer 1
10
73.261400
20
38.105500
11
73.261400
21
42.056600
0
LINE
8
Layer 1
10
78.637700
20
42.056600
11
82.588800
21
42.056600
0
LINE
8
Layer 1
10
82.588800
20
42.056600
11
82.588800
21
38.105500
0
LINE
8
Layer 1
10
82.588800
20
38.105500
11
78.637700
21
38.105500
0
LINE
8
Layer 1
10
78.637700
20
38.105500
11
78.637700
21
42.056600
0
LINE
8
Layer 1
10
78.637700
20
52.809200
11
82.588800
21
52.809200
0
LINE
8
Layer 1
10
82.588800
20
52.809200
11
82.588800
21
48.858100
0
LINE
8
Layer 1
10
82.588800
20
48.858100
11
78.637700
21
48.858100
0
LINE
8
Layer 1
10
78.637700
20
48.858100
11
78.637700
21
52.809200
0
LINE
8
Layer 1
10
57.132400
20
42.056600
11
61.083500
21
42.056600
0
LINE
8
Layer 1
10
61.083500
20
42.056600
11
61.083500
21
38.105500
0
LINE
8
Layer 1
10
61.083500
20
38.105500
11
57.132400
21
38.105500
0
LINE
8
Layer 1
10
57.132400
20
38.105500
11
57.132400
21
42.056600
0
LINE
8
Layer 1
10
78.637700
20
47.430100
11
82.588800
21
47.430100
0
LINE
8
Layer 1
10
82.588800
20
47.430100
11
82.588800
21
43.479000
0
LINE
8
Layer 1
10
82.588800
20
43.479000
11
78.637700
21
43.479000
0
LINE
8
Layer 1
10
78.637700
20
43.479000
11
78.637700
21
47.430100
0
LINE
8
Layer 1
10
62.508700
20
42.053800
11
66.459800
21
42.053800
0
LINE
8
Layer 1
10
66.459800
20
42.053800
11
66.459800
21
38.102700
0
LINE
8
Layer 1
10
66.459800
20
38.102700
11
62.508700
21
38.102700
0
LINE
8
Layer 1
10
62.508700
20
38.102700
11
62.508700
21
42.053800
0
LINE
8
Layer 1
10
67.885100
20
42.053800
11
71.836200
21
42.053800
0
LINE
8
Layer 1
10
71.836200
20
42.053800
11
71.836200
21
38.102700
0
LINE
8
Layer 1
10
71.836200
20
38.102700
11
67.885100
21
38.102700
0
LINE
8
Layer 1
10
67.885100
20
38.102700
11
67.885100
21
42.053800
0
LINE
8
Layer 1
10
67.885100
20
52.806400
11
71.836200
21
52.806400
0
LINE
8
Layer 1
10
71.836200
20
52.806400
11
71.836200
21
48.855300
0
LINE
8
Layer 1
10
71.836200
20
48.855300
11
67.885100
21
48.855300
0
LINE
8
Layer 1
10
67.885100
20
48.855300
11
67.885100
21
52.806400
0
LINE
8
Layer 1
10
67.885100
20
47.427300
11
71.836200
21
47.427300
0
LINE
8
Layer 1
10
71.836200
20
47.427300
11
71.836200
21
43.476200
0
LINE
8
Layer 1
10
71.836200
20
43.476200
11
67.885100
21
43.476200
0
LINE
8
Layer 1
10
67.885100
20
43.476200
11
67.885100
21
47.427300
0
LINE
8
Layer 1
10
67.885100
20
36.677400
11
71.836200
21
36.677400
0
LINE
8
Layer 1
10
71.836200
20
36.677400
11
71.836200
21
32.726300
0
LINE
8
Layer 1
10
71.836200
20
32.726300
11
67.885100
21
32.726300
0
LINE
8
Layer 1
10
67.885100
20
32.726300
11
67.885100
21
36.677400
0
LINE
8
Layer 1
10
62.508700
20
36.677400
11
66.459800
21
36.677400
0
LINE
8
Layer 1
10
66.459800
20
36.677400
11
66.459800
21
32.726300
0
LINE
8
Layer 1
10
66.459800
20
32.726300
11
62.508700
21
32.726300
0
LINE
8
Layer 1
10
62.508700
20
32.726300
11
62.508700
21
36.677400
0
LINE
8
Layer 1
10
78.637700
20
36.680300
11
82.588800
21
36.680300
0
LINE
8
Layer 1
10
82.588800
20
36.680300
11
82.588800
21
32.729200
0
LINE
8
Layer 1
10
82.588800
20
32.729200
11
78.637700
21
32.729200
0
LINE
8
Layer 1
10
78.637700
20
32.729200
11
78.637700
21
36.680300
0
LINE
8
Layer 1
10
56.285700
20
31.876800
11
56.288522
21
53.624800
0
LINE
8
Layer 1
10
83.435500
20
53.624900
11
56.288600
21
53.624900
0
LINE
8
Layer 1
10
83.435500
20
31.882500
11
56.285700
21
31.876856
0
LINE
8
Layer 1
10
83.435500
20
53.624900
11
83.435500
21
31.882500
0
LINE
8
Layer 1
10
57.132400
20
52.809200
11
61.083500
21
52.809200
0
LINE
8
Layer 1
10
61.083500
20
52.809200
11
61.083500
21
48.858100
0
LINE
8
Layer 1
10
61.083500
20
48.858100
11
57.132400
21
48.858100
0
LINE
8
Layer 1
10
57.132400
20
48.858100
11
57.132400
21
52.809200
0
LINE
8
Layer 1
10
57.132400
20
36.680300
11
61.083500
21
36.680300
0
LINE
8
Layer 1
10
61.083500
20
36.680300
11
61.083500
21
32.729200
0
LINE
8
Layer 1
10
61.083500
20
32.729200
11
57.132400
21
32.729200
0
LINE
8
Layer 1
10
57.132400
20
32.729200
11
57.132400
21
36.680300
0
LINE
8
Layer 1
10
57.132400
20
47.430100
11
61.083500
21
47.430100
0
LINE
8
Layer 1
10
61.083500
20
47.430100
11
61.083500
21
43.479000
0
LINE
8
Layer 1
10
61.083500
20
43.479000
11
57.132400
21
43.479000
0
LINE
8
Layer 1
10
57.132400
20
43.479000
11
57.132400
21
47.430100
0
LINE
8
Layer 1
10
90.519300
20
31.673600
11
90.522122
21
53.421600
0
LINE
8
Layer 1
10
117.669000
20
53.421700
11
112.160000
21
53.421700
0
LINE
8
Layer 1
10
117.669000
20
31.679300
11
90.519200
21
31.673656
0
LINE
8
Layer 1
10
96.025400
20
53.421700
11
90.522100
21
53.421700
0
LINE
8
Layer 1
10
96.025400
20
58.877000
11
96.025400
21
53.421700
0
LINE
8
Layer 1
10
96.025400
20
58.877000
11
112.160000
21
58.877000
0
LINE
8
Layer 1
10
112.160000
20
53.421700
11
112.160000
21
58.877000
0
LINE
8
Layer 1
10
117.669000
20
53.421700
11
117.669000
21
31.679300
0
LINE
8
Layer 1
10
62.508700
20
52.806400
11
66.459800
21
52.806400
0
LINE
8
Layer 1
10
66.459800
20
52.806400
11
66.459800
21
48.855300
0
LINE
8
Layer 1
10
66.459800
20
48.855300
11
62.508700
21
48.855300
0
LINE
8
Layer 1
10
62.508700
20
48.855300
11
62.508700
21
52.806400
0
LINE
8
Layer 1
10
62.508700
20
47.427300
11
66.459800
21
47.427300
0
LINE
8
Layer 1
10
66.459800
20
47.427300
11
66.459800
21
43.476200
0
LINE
8
Layer 1
10
66.459800
20
43.476200
11
62.508700
21
43.476200
0
LINE
8
Layer 1
10
62.508700
20
43.476200
11
62.508700
21
47.427300
0
LINE
8
Layer 1
10
73.261400
20
47.430100
11
77.212500
21
47.430100
0
LINE
8
Layer 1
10
77.212500
20
47.430100
11
77.212500
21
43.479000
0
LINE
8
Layer 1
10
77.212500
20
43.479000
11
73.261400
21
43.479000
0
LINE
8
Layer 1
10
73.261400
20
43.479000
11
73.261400
21
47.430100
0
LINE
8
Layer 1
10
73.261400
20
52.809200
11
77.212500
21
52.809200
0
LINE
8
Layer 1
10
77.212500
20
52.809200
11
77.212500
21
48.858100
0
LINE
8
Layer 1
10
77.212500
20
48.858100
11
73.261400
21
48.858100
0
LINE
8
Layer 1
10
73.261400
20
48.858100
11
73.261400
21
52.809200
0
LINE
8
Layer 1
10
73.261400
20
36.680300
11
77.212500
21
36.680300
0
LINE
8
Layer 1
10
77.212500
20
36.680300
11
77.212500
21
32.729200
0
LINE
8
Layer 1
10
77.212500
20
32.729200
11
73.261400
21
32.729200
0
LINE
8
Layer 1
10
73.261400
20
32.729200
11
73.261400
21
36.680300
0
LINE
8
Layer 1
10
73.261400
20
42.056600
11
77.212500
21
42.056600
0
LINE
8
Layer 1
10
77.212500
20
42.056600
11
77.212500
21
38.105500
0
LINE
8
Layer 1
10
77.212500
20
38.105500
11
73.261400
21
38.105500
0
LINE
8
Layer 1
10
73.261400
20
38.105500
11
73.261400
21
42.056600
0
LINE
8
Layer 1
10
78.637700
20
42.056600
11
82.588800
21
42.056600
0
LINE
8
Layer 1
10
82.588800
20
42.056600
11
82.588800
21
38.105500
0
LINE
8
Layer 1
10
82.588800
20
38.105500
11
78.637700
21
38.105500
0
LINE
8
Layer 1
10
78.637700
20
38.105500
11
78.637700
21
42.056600
0
LINE
8
Layer 1
10
78.637700
20
52.809200
11
82.588800
21
52.809200
0
LINE
8
Layer 1
10
82.588800
20
52.809200
11
82.588800
21
48.858100
0
LINE
8
Layer 1
10
82.588800
20
48.858100
11
78.637700
21
48.858100
0
LINE
8
Layer 1
10
78.637700
20
48.858100
11
78.637700
21
52.809200
0
LINE
8
Layer 1
10
57.132400
20
42.056600
11
61.083500
21
42.056600
0
LINE
8
Layer 1
10
61.083500
20
42.056600
11
61.083500
21
38.105500
0
LINE
8
Layer 1
10
61.083500
20
38.105500
11
57.132400
21
38.105500
0
LINE
8
Layer 1
10
57.132400
20
38.105500
11
57.132400
21
42.056600
0
LINE
8
Layer 1
10
78.637700
20
47.430100
11
82.588800
21
47.430100
0
LINE
8
Layer 1
10
82.588800
20
47.430100
11
82.588800
21
43.479000
0
LINE
8
Layer 1
10
82.588800
20
43.479000
11
78.637700
21
43.479000
0
LINE
8
Layer 1
10
78.637700
20
43.479000
11
78.637700
21
47.430100
0
LINE
8
Layer 1
10
62.508700
20
42.053800
11
66.459800
21
42.053800
0
LINE
8
Layer 1
10
66.459800
20
42.053800
11
66.459800
21
38.102700
0
LINE
8
Layer 1
10
66.459800
20
38.102700
11
62.508700
21
38.102700
0
LINE
8
Layer 1
10
62.508700
20
38.102700
11
62.508700
21
42.053800
0
LINE
8
Layer 1
10
67.885100
20
42.053800
11
71.836200
21
42.053800
0
LINE
8
Layer 1
10
71.836200
20
42.053800
11
71.836200
21
38.102700
0
LINE
8
Layer 1
10
71.836200
20
38.102700
11
67.885100
21
38.102700
0
LINE
8
Layer 1
10
67.885100
20
38.102700
11
67.885100
21
42.053800
0
LINE
8
Layer 1
10
67.885100
20
52.806400
11
71.836200
21
52.806400
0
LINE
8
Layer 1
10
71.836200
20
52.806400
11
71.836200
21
48.855300
0
LINE
8
Layer 1
10
71.836200
20
48.855300
11
67.885100
21
48.855300
0
LINE
8
Layer 1
10
67.885100
20
48.855300
11
67.885100
21
52.806400
0
LINE
8
Layer 1
10
67.885100
20
47.427300
11
71.836200
21
47.427300
0
LINE
8
Layer 1
10
71.836200
20
47.427300
11
71.836200
21
43.476200
0
LINE
8
Layer 1
10
71.836200
20
43.476200
11
67.885100
21
43.476200
0
LINE
8
Layer 1
10
67.885100
20
43.476200
11
67.885100
21
47.427300
0
LINE
8
Layer 1
10
67.885100
20
36.677400
11
71.836200
21
36.677400
0
LINE
8
Layer 1
10
71.836200
20
36.677400
11
71.836200
21
32.726300
0
LINE
8
Layer 1
10
71.836200
20
32.726300
11
67.885100
21
32.726300
0
LINE
8
Layer 1
10
67.885100
20
32.726300
11
67.885100
21
36.677400
0
LINE
8
Layer 1
10
62.508700
20
36.677400
11
66.459800
21
36.677400
0
LINE
8
Layer 1
10
66.459800
20
36.677400
11
66.459800
21
32.726300
0
LINE
8
Layer 1
10
66.459800
20
32.726300
11
62.508700
21
32.726300
0
LINE
8
Layer 1
10
62.508700
20
32.726300
11
62.508700
21
36.677400
0
LINE
8
Layer 1
10
78.637700
20
36.680300
11
82.588800
21
36.680300
0
LINE
8
Layer 1
10
82.588800
20
36.680300
11
82.588800
21
32.729200
0
LINE
8
Layer 1
10
82.588800
20
32.729200
11
78.637700
21
32.729200
0
LINE
8
Layer 1
10
78.637700
20
32.729200
11
78.637700
21
36.680300
0
LINE
8
Layer 1
10
56.285700
20
31.876800
11
56.288522
21
53.624800
0
LINE
8
Layer 1
10
83.435500
20
53.624900
11
56.288600
21
53.624900
0
LINE
8
Layer 1
10
83.435500
20
31.882500
11
56.285700
21
31.876856
0
LINE
8
Layer 1
10
83.435500
20
53.624900
11
83.435500
21
31.882500
0
LINE
8
Layer 1
10
57.132400
20
52.809200
11
61.083500
21
52.809200
0
LINE
8
Layer 1
10
61.083500
20
52.809200
11
61.083500
21
48.858100
0
LINE
8
Layer 1
10
61.083500
20
48.858100
11
57.132400
21
48.858100
0
LINE
8
Layer 1
10
57.132400
20
48.858100
11
57.132400
21
52.809200
0
LINE
8
Layer 1
10
57.132400
20
36.680300
11
61.083500
21
36.680300
0
LINE
8
Layer 1
10
61.083500
20
36.680300
11
61.083500
21
32.729200
0
LINE
8
Layer 1
10
61.083500
20
32.729200
11
57.132400
21
32.729200
0
LINE
8
Layer 1
10
57.132400
20
32.729200
11
57.132400
21
36.680300
0
LINE
8
Layer 1
10
57.132400
20
47.430100
11
61.083500
21
47.430100
0
LINE
8
Layer 1
10
61.083500
20
47.430100
11
61.083500
21
43.479000
0
LINE
8
Layer 1
10
61.083500
20
43.479000
11
57.132400
21
43.479000
0
LINE
8
Layer 1
10
57.132400
20
43.479000
11
57.132400
21
47.430100
0
LINE
8
Layer 1
10
90.519300
20
31.673600
11
90.522122
21
53.421600
0
LINE
8
Layer 1
10
117.669000
20
53.421700
11
112.160000
21
53.421700
0
LINE
8
Layer 1
10
117.669000
20
31.679300
11
90.519200
21
31.673656
0
LINE
8
Layer 1
10
96.025400
20
53.421700
11
90.522100
21
53.421700
0
LINE
8
Layer 1
10
96.025400
20
58.877000
11
96.025400
21
53.421700
0
LINE
8
Layer 1
10
96.025400
20
58.877000
11
112.160000
21
58.877000
0
LINE
8
Layer 1
10
112.160000
20
53.421700
11
112.160000
21
58.877000
0
LINE
8
Layer 1
10
117.669000
20
53.421700
11
117.669000
21
31.679300
0
LINE
8
Layer 1
10
52.902500
20
73.597900
11
36.767900
21
73.597900
0
LINE
8
Layer 1
10
52.902500
20
73.597900
11
52.902500
21
79.053200
0
LINE
8
Layer 1
10
36.767900
20
79.053200
11
52.902500
21
79.053200
0
LINE
8
Layer 1
10
36.767900
20
79.053200
11
36.767900
21
73.597900
0
LINE
8
Layer 1
10
41.887400
20
78.181100
11
45.440600
21
78.181100
0
LINE
8
Layer 1
10
45.440600
20
78.181100
11
45.440600
21
74.399400
0
LINE
8
Layer 1
10
45.440600
20
74.399400
11
41.887400
21
74.399400
0
LINE
8
Layer 1
10
41.887400
20
74.399400
11
41.887400
21
78.181100
0
LINE
8
Layer 1
10
33.525200
20
86.317600
11
49.659800
21
86.317600
0
LINE
8
Layer 1
10
33.525200
20
86.317600
11
33.525200
21
80.862200
0
LINE
8
Layer 1
10
49.659800
20
80.862200
11
49.659800
21
86.317600
0
LINE
8
Layer 1
10
49.659800
20
80.862200
11
33.525200
21
80.862200
0
LINE
8
Layer 1
10
37.775400
20
85.772900
11
42.302300
21
85.772900
0
LINE
8
Layer 1
10
42.302300
20
85.772900
11
42.302300
21
81.257400
0
LINE
8
Layer 1
10
42.302300
20
81.257400
11
37.775400
21
81.257400
0
LINE
8
Layer 1
10
37.775400
20
81.257400
11
37.775400
21
85.772900
 0 
ENDSEC
 0 
EOF