%TF.GenerationSoftware,KiCad,Pcbnew,7.0.1-0*%
%TF.CreationDate,2023-08-16T18:45:31+09:00*%
%TF.ProjectId,jisaku20_right,6a697361-6b75-4323-905f-72696768742e,rev?*%
%TF.SameCoordinates,Original*%
%TF.FileFunction,Copper,L2,Bot*%
%TF.FilePolarity,Positive*%
%FSLAX46Y46*%
G04 Gerber Fmt 4.6, Leading zero omitted, Abs format (unit mm)*
G04 Created by KiCad (PCBNEW 7.0.1-0) date 2023-08-16 18:45:31*
%MOMM*%
%LPD*%
G01*
G04 APERTURE LIST*
%TA.AperFunction,SMDPad,CuDef*%
%ADD10R,2.550000X2.500000*%
%TD*%
%TA.AperFunction,ComponentPad*%
%ADD11C,1.524000*%
%TD*%
%TA.AperFunction,ComponentPad*%
%ADD12O,2.500000X1.700000*%
%TD*%
%TA.AperFunction,ComponentPad*%
%ADD13R,1.778000X1.300000*%
%TD*%
%TA.AperFunction,SMDPad,CuDef*%
%ADD14R,1.400000X1.300000*%
%TD*%
%TA.AperFunction,ComponentPad*%
%ADD15O,1.778000X1.300000*%
%TD*%
%TA.AperFunction,ComponentPad*%
%ADD16C,2.000000*%
%TD*%
%TA.AperFunction,ViaPad*%
%ADD17C,0.800000*%
%TD*%
%TA.AperFunction,Conductor*%
%ADD18C,0.250000*%
%TD*%
G04 APERTURE END LIST*
D10*
%TO.P,SW15,1,1*%
%TO.N,col4*%
X69115000Y-35560000D03*
%TO.P,SW15,2,2*%
%TO.N,Net-(D15-A)*%
X82042000Y-33020000D03*
%TD*%
%TO.P,SW1,1,1*%
%TO.N,col0*%
X-7085000Y2540000D03*
%TO.P,SW1,2,2*%
%TO.N,Net-(D1-A)*%
X5842000Y5080000D03*
%TD*%
D11*
%TO.P,U1,1,TX0/D3*%
%TO.N,unconnected-(U1-TX0{slash}D3-Pad1)*%
X13590000Y26652800D03*
%TO.P,U1,2,RX1/D2*%
%TO.N,data*%
X16130000Y26652800D03*
%TO.P,U1,3,GND*%
%TO.N,GND*%
X18670000Y26652800D03*
%TO.P,U1,4,GND*%
X21210000Y26652800D03*
%TO.P,U1,5,2/D1/SDA*%
%TO.N,unconnected-(U1-2{slash}D1{slash}SDA-Pad5)*%
X23750000Y26652800D03*
%TO.P,U1,6,3/D0/SCL*%
%TO.N,unconnected-(U1-3{slash}D0{slash}SCL-Pad6)*%
X26290000Y26652800D03*
%TO.P,U1,7,4/D4*%
%TO.N,unconnected-(U1-4{slash}D4-Pad7)*%
X28830000Y26652800D03*
%TO.P,U1,8,5/C6*%
%TO.N,col4*%
X31370000Y26652800D03*
%TO.P,U1,9,6/D7*%
%TO.N,col3*%
X33910000Y26652800D03*
%TO.P,U1,10,7/E6*%
%TO.N,col2*%
X36450000Y26652800D03*
%TO.P,U1,11,8/B4*%
%TO.N,col1*%
X38990000Y26652800D03*
%TO.P,U1,12,9/B5*%
%TO.N,col0*%
X41530000Y26652800D03*
%TO.P,U1,13,B6/10*%
%TO.N,unconnected-(U1-B6{slash}10-Pad13)*%
X41530000Y11432800D03*
%TO.P,U1,14,B2/16*%
%TO.N,unconnected-(U1-B2{slash}16-Pad14)*%
X38990000Y11432800D03*
%TO.P,U1,15,B3/14*%
%TO.N,unconnected-(U1-B3{slash}14-Pad15)*%
X36450000Y11432800D03*
%TO.P,U1,16,B1/15*%
%TO.N,unconnected-(U1-B1{slash}15-Pad16)*%
X33910000Y11432800D03*
%TO.P,U1,17,F7/A0*%
%TO.N,row3*%
X31370000Y11432800D03*
%TO.P,U1,18,F6/A1*%
%TO.N,row2*%
X28830000Y11432800D03*
%TO.P,U1,19,F5/A2*%
%TO.N,row1*%
X26290000Y11432800D03*
%TO.P,U1,20,F4/A3*%
%TO.N,row0*%
X23750000Y11432800D03*
%TO.P,U1,21,VCC*%
%TO.N,VCC*%
X21210000Y11432800D03*
%TO.P,U1,22,RST*%
%TO.N,reset*%
X18670000Y11432800D03*
%TO.P,U1,23,GND*%
%TO.N,GND*%
X16130000Y11432800D03*
%TO.P,U1,24,RAW*%
%TO.N,unconnected-(U1-RAW-Pad24)*%
X13590000Y11432800D03*
%TD*%
D10*
%TO.P,SW14,1,1*%
%TO.N,col3*%
X50065000Y-35560000D03*
%TO.P,SW14,2,2*%
%TO.N,Net-(D14-A)*%
X62992000Y-33020000D03*
%TD*%
%TO.P,SW2,1,1*%
%TO.N,col1*%
X11965000Y2540000D03*
%TO.P,SW2,2,2*%
%TO.N,Net-(D2-A)*%
X24892000Y5080000D03*
%TD*%
%TO.P,SW17,1,1*%
%TO.N,col1*%
X11965000Y-54610000D03*
%TO.P,SW17,2,2*%
%TO.N,Net-(D17-A)*%
X24892000Y-52070000D03*
%TD*%
%TO.P,SW5,1,1*%
%TO.N,col4*%
X69115000Y2540000D03*
%TO.P,SW5,2,2*%
%TO.N,Net-(D5-A)*%
X82042000Y5080000D03*
%TD*%
%TO.P,SW7,1,1*%
%TO.N,col1*%
X11965000Y-16510000D03*
%TO.P,SW7,2,2*%
%TO.N,Net-(D7-A)*%
X24892000Y-13970000D03*
%TD*%
%TO.P,SW20,1,1*%
%TO.N,col4*%
X69115000Y-54610000D03*
%TO.P,SW20,2,2*%
%TO.N,Net-(D20-A)*%
X82042000Y-52070000D03*
%TD*%
%TO.P,SW8,1,1*%
%TO.N,col2*%
X31015000Y-16510000D03*
%TO.P,SW8,2,2*%
%TO.N,Net-(D8-A)*%
X43942000Y-13970000D03*
%TD*%
%TO.P,SW10,1,1*%
%TO.N,col4*%
X69115000Y-16510000D03*
%TO.P,SW10,2,2*%
%TO.N,Net-(D10-A)*%
X82042000Y-13970000D03*
%TD*%
%TO.P,SW3,1,1*%
%TO.N,col2*%
X31015000Y2540000D03*
%TO.P,SW3,2,2*%
%TO.N,Net-(D3-A)*%
X43942000Y5080000D03*
%TD*%
%TO.P,SW16,1,1*%
%TO.N,col0*%
X-7085000Y-54610000D03*
%TO.P,SW16,2,2*%
%TO.N,Net-(D16-A)*%
X5842000Y-52070000D03*
%TD*%
%TO.P,SW18,1,1*%
%TO.N,col2*%
X31015000Y-54610000D03*
%TO.P,SW18,2,2*%
%TO.N,Net-(D18-A)*%
X43942000Y-52070000D03*
%TD*%
%TO.P,SW12,1,1*%
%TO.N,col1*%
X11965000Y-35560000D03*
%TO.P,SW12,2,2*%
%TO.N,Net-(D12-A)*%
X24892000Y-33020000D03*
%TD*%
%TO.P,SW9,1,1*%
%TO.N,col3*%
X50065000Y-16510000D03*
%TO.P,SW9,2,2*%
%TO.N,Net-(D9-A)*%
X62992000Y-13970000D03*
%TD*%
%TO.P,SW11,1,1*%
%TO.N,col0*%
X-7085000Y-35560000D03*
%TO.P,SW11,2,2*%
%TO.N,Net-(D11-A)*%
X5842000Y-33020000D03*
%TD*%
%TO.P,SW6,1,1*%
%TO.N,col0*%
X-7085000Y-16510000D03*
%TO.P,SW6,2,2*%
%TO.N,Net-(D6-A)*%
X5842000Y-13970000D03*
%TD*%
%TO.P,SW4,1,1*%
%TO.N,col3*%
X50065000Y2540000D03*
%TO.P,SW4,2,2*%
%TO.N,Net-(D4-A)*%
X62992000Y5080000D03*
%TD*%
%TO.P,SW13,1,1*%
%TO.N,col2*%
X31015000Y-35560000D03*
%TO.P,SW13,2,2*%
%TO.N,Net-(D13-A)*%
X43942000Y-33020000D03*
%TD*%
%TO.P,SW19,1,1*%
%TO.N,col3*%
X50065000Y-54610000D03*
%TO.P,SW19,2,2*%
%TO.N,Net-(D19-A)*%
X62992000Y-52070000D03*
%TD*%
D12*
%TO.P,J1,A*%
%TO.N,unconnected-(J1-PadA)*%
X54130000Y17520000D03*
X54130000Y19970000D03*
%TO.P,J1,B*%
%TO.N,data*%
X62630000Y15770000D03*
X62630000Y21720000D03*
%TO.P,J1,C*%
%TO.N,GND*%
X59630000Y15770000D03*
X59630000Y21720000D03*
%TO.P,J1,D*%
%TO.N,VCC*%
X55630000Y15770000D03*
X55630000Y21720000D03*
%TD*%
D13*
%TO.P,D15,1,K*%
%TO.N,row2*%
X73360000Y-46332500D03*
D14*
X74585000Y-46332500D03*
%TO.P,D15,2,A*%
%TO.N,Net-(D15-A)*%
X78135000Y-46332500D03*
D15*
X79360000Y-46332500D03*
%TD*%
D13*
%TO.P,D11,1,K*%
%TO.N,row2*%
X-2930000Y-46640000D03*
D14*
X-1705000Y-46640000D03*
%TO.P,D11,2,A*%
%TO.N,Net-(D11-A)*%
X1845000Y-46640000D03*
D15*
X3070000Y-46640000D03*
%TD*%
D13*
%TO.P,D4,1,K*%
%TO.N,row0*%
X54330000Y-8240000D03*
D14*
X55555000Y-8240000D03*
%TO.P,D4,2,A*%
%TO.N,Net-(D4-A)*%
X59105000Y-8240000D03*
D15*
X60330000Y-8240000D03*
%TD*%
D13*
%TO.P,D6,1,K*%
%TO.N,row1*%
X-2950000Y-27340000D03*
D14*
X-1725000Y-27340000D03*
%TO.P,D6,2,A*%
%TO.N,Net-(D6-A)*%
X1825000Y-27340000D03*
D15*
X3050000Y-27340000D03*
%TD*%
D13*
%TO.P,D9,1,K*%
%TO.N,row1*%
X54440000Y-27630000D03*
D14*
X55665000Y-27630000D03*
%TO.P,D9,2,A*%
%TO.N,Net-(D9-A)*%
X59215000Y-27630000D03*
D15*
X60440000Y-27630000D03*
%TD*%
D13*
%TO.P,D8,1,K*%
%TO.N,row1*%
X35310000Y-27050000D03*
D14*
X36535000Y-27050000D03*
%TO.P,D8,2,A*%
%TO.N,Net-(D8-A)*%
X40085000Y-27050000D03*
D15*
X41310000Y-27050000D03*
%TD*%
D13*
%TO.P,D20,1,K*%
%TO.N,row3*%
X73695000Y-65430000D03*
D14*
X74920000Y-65430000D03*
%TO.P,D20,2,A*%
%TO.N,Net-(D20-A)*%
X78470000Y-65430000D03*
D15*
X79695000Y-65430000D03*
%TD*%
D13*
%TO.P,D17,1,K*%
%TO.N,row3*%
X16061250Y-65430000D03*
D14*
X17286250Y-65430000D03*
%TO.P,D17,2,A*%
%TO.N,Net-(D17-A)*%
X20836250Y-65430000D03*
D15*
X22061250Y-65430000D03*
%TD*%
D13*
%TO.P,D12,1,K*%
%TO.N,row2*%
X16142500Y-46230000D03*
D14*
X17367500Y-46230000D03*
%TO.P,D12,2,A*%
%TO.N,Net-(D12-A)*%
X20917500Y-46230000D03*
D15*
X22142500Y-46230000D03*
%TD*%
D13*
%TO.P,D10,1,K*%
%TO.N,row1*%
X73570000Y-27195000D03*
D14*
X74795000Y-27195000D03*
%TO.P,D10,2,A*%
%TO.N,Net-(D10-A)*%
X78345000Y-27195000D03*
D15*
X79570000Y-27195000D03*
%TD*%
D13*
%TO.P,D5,1,K*%
%TO.N,row0*%
X73430000Y-8300000D03*
D14*
X74655000Y-8300000D03*
%TO.P,D5,2,A*%
%TO.N,Net-(D5-A)*%
X78205000Y-8300000D03*
D15*
X79430000Y-8300000D03*
%TD*%
D13*
%TO.P,D13,1,K*%
%TO.N,row2*%
X35215000Y-46537500D03*
D14*
X36440000Y-46537500D03*
%TO.P,D13,2,A*%
%TO.N,Net-(D13-A)*%
X39990000Y-46537500D03*
D15*
X41215000Y-46537500D03*
%TD*%
D13*
%TO.P,D1,1,K*%
%TO.N,row0*%
X-2970000Y-8510000D03*
D14*
X-1745000Y-8510000D03*
%TO.P,D1,2,A*%
%TO.N,Net-(D1-A)*%
X1805000Y-8510000D03*
D15*
X3030000Y-8510000D03*
%TD*%
D13*
%TO.P,D14,1,K*%
%TO.N,row2*%
X54287500Y-46435000D03*
D14*
X55512500Y-46435000D03*
%TO.P,D14,2,A*%
%TO.N,Net-(D14-A)*%
X59062500Y-46435000D03*
D15*
X60287500Y-46435000D03*
%TD*%
D13*
%TO.P,D7,1,K*%
%TO.N,row1*%
X16180000Y-27485000D03*
D14*
X17405000Y-27485000D03*
%TO.P,D7,2,A*%
%TO.N,Net-(D7-A)*%
X20955000Y-27485000D03*
D15*
X22180000Y-27485000D03*
%TD*%
D16*
%TO.P,SW21,1,1*%
%TO.N,reset*%
X48360000Y15380000D03*
%TO.P,SW21,2,2*%
%TO.N,GND*%
X48360000Y21880000D03*
%TD*%
D13*
%TO.P,D3,1,K*%
%TO.N,row0*%
X35230000Y-8240000D03*
D14*
X36455000Y-8240000D03*
%TO.P,D3,2,A*%
%TO.N,Net-(D3-A)*%
X40005000Y-8240000D03*
D15*
X41230000Y-8240000D03*
%TD*%
D13*
%TO.P,D19,1,K*%
%TO.N,row3*%
X54483750Y-65300000D03*
D14*
X55708750Y-65300000D03*
%TO.P,D19,2,A*%
%TO.N,Net-(D19-A)*%
X59258750Y-65300000D03*
D15*
X60483750Y-65300000D03*
%TD*%
D13*
%TO.P,D18,1,K*%
%TO.N,row3*%
X35272500Y-65430000D03*
D14*
X36497500Y-65430000D03*
%TO.P,D18,2,A*%
%TO.N,Net-(D18-A)*%
X40047500Y-65430000D03*
D15*
X41272500Y-65430000D03*
%TD*%
D13*
%TO.P,D16,1,K*%
%TO.N,row3*%
X-3150000Y-65300000D03*
D14*
X-1925000Y-65300000D03*
%TO.P,D16,2,A*%
%TO.N,Net-(D16-A)*%
X1625000Y-65300000D03*
D15*
X2850000Y-65300000D03*
%TD*%
D13*
%TO.P,D2,1,K*%
%TO.N,row0*%
X16130000Y-8240000D03*
D14*
X17355000Y-8240000D03*
%TO.P,D2,2,A*%
%TO.N,Net-(D2-A)*%
X20905000Y-8240000D03*
D15*
X22130000Y-8240000D03*
%TD*%
D17*
%TO.N,row0*%
X26150000Y-7265000D03*
%TO.N,row1*%
X26100000Y-26510000D03*
X46220000Y-25840000D03*
%TO.N,row2*%
X27810000Y-45255000D03*
%TO.N,row3*%
X28540000Y-64320000D03*
%TO.N,col0*%
X11020000Y22430000D03*
%TO.N,col1*%
X12030000Y23490000D03*
%TO.N,col3*%
X35400000Y8340000D03*
X49810000Y8340000D03*
%TO.N,col4*%
X69060000Y7400000D03*
X32700000Y8250000D03*
%TO.N,data*%
X16190000Y21510000D03*
%TD*%
D18*
%TO.N,row0*%
X26920000Y-6495000D02*
X26920000Y3871999D01*
X26601999Y4190000D02*
X26601999Y8580801D01*
X26920000Y3871999D02*
X26601999Y4190000D01*
X26150000Y-7265000D02*
X26920000Y-6495000D01*
X26601999Y8580801D02*
X23750000Y11432800D01*
%TO.N,Net-(D1-A)*%
X5842000Y5080000D02*
X6405000Y4517000D01*
X6405000Y4517000D02*
X6405000Y-5135000D01*
X6405000Y-5135000D02*
X3030000Y-8510000D01*
%TO.N,Net-(D2-A)*%
X25455000Y-4915000D02*
X22130000Y-8240000D01*
X24892000Y5080000D02*
X25455000Y4517000D01*
X25455000Y4517000D02*
X25455000Y-4915000D01*
%TO.N,Net-(D3-A)*%
X43942000Y5080000D02*
X44505000Y4517000D01*
X44505000Y4517000D02*
X44505000Y-4965000D01*
X44505000Y-4965000D02*
X41230000Y-8240000D01*
%TO.N,Net-(D4-A)*%
X63555000Y-5015000D02*
X60330000Y-8240000D01*
X63555000Y4517000D02*
X63555000Y-5015000D01*
X62992000Y5080000D02*
X63555000Y4517000D01*
%TO.N,Net-(D5-A)*%
X82042000Y5080000D02*
X82605000Y4517000D01*
X82605000Y4517000D02*
X82605000Y-5125000D01*
X82605000Y-5125000D02*
X79430000Y-8300000D01*
%TO.N,row1*%
X27370000Y-25240000D02*
X27370000Y4161999D01*
X27051999Y10670801D02*
X26290000Y11432800D01*
X26100000Y-26510000D02*
X27370000Y-25240000D01*
X27051999Y4480000D02*
X27051999Y10670801D01*
X27370000Y4161999D02*
X27051999Y4480000D01*
%TO.N,Net-(D6-A)*%
X6405000Y-14533000D02*
X6405000Y-23985000D01*
X6405000Y-23985000D02*
X3050000Y-27340000D01*
X5842000Y-13970000D02*
X6405000Y-14533000D01*
%TO.N,Net-(D7-A)*%
X22180000Y-27485000D02*
X25455000Y-24210000D01*
X25455000Y-14533000D02*
X24892000Y-13970000D01*
X25455000Y-24210000D02*
X25455000Y-14533000D01*
%TO.N,Net-(D8-A)*%
X44520000Y-21590000D02*
X44520000Y-24260000D01*
X44505000Y-21575000D02*
X44520000Y-21590000D01*
X44505000Y-14533000D02*
X44505000Y-21575000D01*
X41730000Y-27050000D02*
X41310000Y-27050000D01*
X43942000Y-13970000D02*
X44505000Y-14533000D01*
X44520000Y-24260000D02*
X41730000Y-27050000D01*
%TO.N,Net-(D9-A)*%
X63555000Y-24515000D02*
X60440000Y-27630000D01*
X62992000Y-13970000D02*
X63555000Y-14533000D01*
X63555000Y-14533000D02*
X63555000Y-24515000D01*
%TO.N,Net-(D10-A)*%
X82605000Y-14533000D02*
X82605000Y-24160000D01*
X82042000Y-13970000D02*
X82605000Y-14533000D01*
X82605000Y-24160000D02*
X79570000Y-27195000D01*
%TO.N,row2*%
X28830000Y11432800D02*
X28830000Y5190000D01*
X28970000Y11292800D02*
X28830000Y11432800D01*
X27820000Y4180000D02*
X27820000Y-45245000D01*
X27820000Y-45245000D02*
X27810000Y-45255000D01*
X28830000Y5190000D02*
X27820000Y4180000D01*
%TO.N,Net-(D11-A)*%
X6405000Y-43305000D02*
X6405000Y-33583000D01*
X6405000Y-33583000D02*
X5842000Y-33020000D01*
X3070000Y-46640000D02*
X6405000Y-43305000D01*
%TO.N,row3*%
X29280000Y5003604D02*
X29280000Y9342800D01*
X28535000Y-64315000D02*
X28535000Y4258604D01*
X28540000Y-64320000D02*
X28535000Y-64315000D01*
X29280000Y9342800D02*
X31370000Y11432800D01*
X28535000Y4258604D02*
X29280000Y5003604D01*
%TO.N,Net-(D12-A)*%
X22450000Y-46230000D02*
X22142500Y-46230000D01*
X24892000Y-33020000D02*
X25455000Y-33583000D01*
X25455000Y-43225000D02*
X22450000Y-46230000D01*
X25455000Y-33583000D02*
X25455000Y-43225000D01*
%TO.N,Net-(D13-A)*%
X44505000Y-43247500D02*
X41215000Y-46537500D01*
X44505000Y-33583000D02*
X44505000Y-43247500D01*
X43942000Y-33020000D02*
X44505000Y-33583000D01*
%TO.N,Net-(D14-A)*%
X63555000Y-33583000D02*
X63555000Y-43167500D01*
X62992000Y-33020000D02*
X63555000Y-33583000D01*
X63555000Y-43167500D02*
X60287500Y-46435000D01*
%TO.N,Net-(D15-A)*%
X79567500Y-46332500D02*
X79360000Y-46332500D01*
X82042000Y-33020000D02*
X82605000Y-33583000D01*
X82605000Y-33583000D02*
X82605000Y-43295000D01*
X82605000Y-43295000D02*
X79567500Y-46332500D01*
%TO.N,Net-(D16-A)*%
X6370000Y-61780000D02*
X6370000Y-60520000D01*
X2850000Y-65300000D02*
X6370000Y-61780000D01*
X6370000Y-60520000D02*
X6405000Y-60485000D01*
X6405000Y-52633000D02*
X5842000Y-52070000D01*
X6405000Y-60485000D02*
X6405000Y-52633000D01*
%TO.N,Net-(D17-A)*%
X25455000Y-62185000D02*
X22210000Y-65430000D01*
X24892000Y-52070000D02*
X25455000Y-52633000D01*
X22210000Y-65430000D02*
X22061250Y-65430000D01*
X25455000Y-52633000D02*
X25455000Y-62185000D01*
%TO.N,Net-(D18-A)*%
X44505000Y-62197500D02*
X44505000Y-52633000D01*
X44505000Y-52633000D02*
X43942000Y-52070000D01*
X41272500Y-65430000D02*
X44505000Y-62197500D01*
%TO.N,Net-(D19-A)*%
X63555000Y-52633000D02*
X63555000Y-62315000D01*
X62992000Y-52070000D02*
X63555000Y-52633000D01*
X63555000Y-62315000D02*
X63468750Y-62315000D01*
X63468750Y-62315000D02*
X60483750Y-65300000D01*
%TO.N,Net-(D20-A)*%
X82605000Y-52633000D02*
X82605000Y-62655000D01*
X82042000Y-52070000D02*
X82605000Y-52633000D01*
X82605000Y-62655000D02*
X79830000Y-65430000D01*
X79830000Y-65430000D02*
X79695000Y-65430000D01*
%TO.N,col0*%
X10230000Y7680000D02*
X-1945000Y7680000D01*
X10980000Y8430000D02*
X10980000Y22390000D01*
X-1945000Y7680000D02*
X-7085000Y2540000D01*
X10980000Y22390000D02*
X11020000Y22430000D01*
X10980000Y8430000D02*
X10230000Y7680000D01*
X-7085000Y-35560000D02*
X-7085000Y-54610000D01*
X-7085000Y-16510000D02*
X-7085000Y-35560000D01*
X-7085000Y2540000D02*
X-7085000Y-16510000D01*
%TO.N,col1*%
X12645000Y-15830000D02*
X12645000Y1860000D01*
X12310000Y-35905000D02*
X11965000Y-35560000D01*
X11965000Y-54610000D02*
X12310000Y-54265000D01*
X11965000Y-35560000D02*
X11965000Y-16510000D01*
X12310000Y-54265000D02*
X12310000Y-35905000D01*
X11965000Y2540000D02*
X11965000Y23425000D01*
X12645000Y1860000D02*
X11965000Y2540000D01*
X11965000Y-16510000D02*
X12645000Y-15830000D01*
X11965000Y23425000D02*
X12030000Y23490000D01*
%TO.N,col2*%
X31015000Y-16510000D02*
X31015000Y-35560000D01*
X31015000Y2540000D02*
X31015000Y-16510000D01*
X31015000Y-54610000D02*
X31015000Y-35560000D01*
X37537000Y9062000D02*
X37537000Y25565800D01*
X31015000Y2705000D02*
X31015000Y2540000D01*
X37537000Y25565800D02*
X36450000Y26652800D01*
X31015000Y2540000D02*
X37537000Y9062000D01*
%TO.N,col3*%
X35363000Y25199800D02*
X35363000Y8377000D01*
X50065000Y-35560000D02*
X50065000Y-16510000D01*
X50065000Y-54610000D02*
X50065000Y-35560000D01*
X50065000Y8085000D02*
X50065000Y2540000D01*
X35363000Y8377000D02*
X35400000Y8340000D01*
X33910000Y26652800D02*
X35363000Y25199800D01*
X49810000Y8340000D02*
X50065000Y8085000D01*
X50065000Y-16510000D02*
X50065000Y2540000D01*
%TO.N,col4*%
X69115000Y-35560000D02*
X69400000Y-35845000D01*
X32700000Y25322800D02*
X31370000Y26652800D01*
X69115000Y7345000D02*
X69060000Y7400000D01*
X69580000Y-16045000D02*
X69115000Y-16510000D01*
X69400000Y-35845000D02*
X69400000Y-54325000D01*
X69115000Y2540000D02*
X69115000Y7345000D01*
X69115000Y-16510000D02*
X69115000Y-35560000D01*
X32700000Y8250000D02*
X32700000Y25322800D01*
X69115000Y2540000D02*
X69580000Y2075000D01*
X69400000Y-54325000D02*
X69115000Y-54610000D01*
X69580000Y2075000D02*
X69580000Y-16045000D01*
%TO.N,GND*%
X18670000Y26652800D02*
X21210000Y26652800D01*
X59630000Y21720000D02*
X58505000Y22845000D01*
X18670000Y15150000D02*
X16130000Y12610000D01*
X18670000Y26652800D02*
X18670000Y15150000D01*
X42500200Y27739800D02*
X22297000Y27739800D01*
X22297000Y27739800D02*
X21210000Y26652800D01*
X48360000Y21880000D02*
X42500200Y27739800D01*
X49325000Y22845000D02*
X48360000Y21880000D01*
X16130000Y12610000D02*
X16130000Y11432800D01*
X58505000Y22845000D02*
X49325000Y22845000D01*
%TO.N,data*%
X16130000Y21570000D02*
X16190000Y21510000D01*
X16130000Y26652800D02*
X16130000Y21570000D01*
%TD*%
M02*
