%TF.GenerationSoftware,KiCad,Pcbnew,7.0.1-0*%
%TF.CreationDate,2023-08-16T18:45:31+09:00*%
%TF.ProjectId,jisaku20_right,6a697361-6b75-4323-905f-72696768742e,rev?*%
%TF.SameCoordinates,Original*%
%TF.FileFunction,Soldermask,Top*%
%TF.FilePolarity,Negative*%
%FSLAX46Y46*%
G04 Gerber Fmt 4.6, Leading zero omitted, Abs format (unit mm)*
G04 Created by KiCad (PCBNEW 7.0.1-0) date 2023-08-16 18:45:31*
%MOMM*%
%LPD*%
G01*
G04 APERTURE LIST*
%ADD10C,1.900000*%
%ADD11C,3.000000*%
%ADD12C,4.100000*%
%ADD13C,1.200000*%
%ADD14O,2.500000X1.700000*%
%ADD15R,1.778000X1.300000*%
%ADD16O,1.778000X1.300000*%
%ADD17C,2.000000*%
G04 APERTURE END LIST*
D10*
%TO.C,SW15*%
X71120000Y-38100000D03*
D11*
X72390000Y-35560000D03*
D12*
X76200000Y-38100000D03*
D11*
X78740000Y-33020000D03*
D10*
X81280000Y-38100000D03*
%TD*%
%TO.C,SW1*%
X-5080000Y0D03*
D11*
X-3810000Y2540000D03*
D12*
X0Y0D03*
D11*
X2540000Y5080000D03*
D10*
X5080000Y0D03*
%TD*%
%TO.C,SW14*%
X52070000Y-38100000D03*
D11*
X53340000Y-35560000D03*
D12*
X57150000Y-38100000D03*
D11*
X59690000Y-33020000D03*
D10*
X62230000Y-38100000D03*
%TD*%
%TO.C,SW2*%
X13970000Y0D03*
D11*
X15240000Y2540000D03*
D12*
X19050000Y0D03*
D11*
X21590000Y5080000D03*
D10*
X24130000Y0D03*
%TD*%
%TO.C,SW17*%
X13970000Y-57150000D03*
D11*
X15240000Y-54610000D03*
D12*
X19050000Y-57150000D03*
D11*
X21590000Y-52070000D03*
D10*
X24130000Y-57150000D03*
%TD*%
%TO.C,SW5*%
X71120000Y0D03*
D11*
X72390000Y2540000D03*
D12*
X76200000Y0D03*
D11*
X78740000Y5080000D03*
D10*
X81280000Y0D03*
%TD*%
%TO.C,SW7*%
X13970000Y-19050000D03*
D11*
X15240000Y-16510000D03*
D12*
X19050000Y-19050000D03*
D11*
X21590000Y-13970000D03*
D10*
X24130000Y-19050000D03*
%TD*%
%TO.C,SW20*%
X71120000Y-57150000D03*
D11*
X72390000Y-54610000D03*
D12*
X76200000Y-57150000D03*
D11*
X78740000Y-52070000D03*
D10*
X81280000Y-57150000D03*
%TD*%
%TO.C,SW8*%
X33020000Y-19050000D03*
D11*
X34290000Y-16510000D03*
D12*
X38100000Y-19050000D03*
D11*
X40640000Y-13970000D03*
D10*
X43180000Y-19050000D03*
%TD*%
%TO.C,SW10*%
X71120000Y-19050000D03*
D11*
X72390000Y-16510000D03*
D12*
X76200000Y-19050000D03*
D11*
X78740000Y-13970000D03*
D10*
X81280000Y-19050000D03*
%TD*%
%TO.C,SW3*%
X33020000Y0D03*
D11*
X34290000Y2540000D03*
D12*
X38100000Y0D03*
D11*
X40640000Y5080000D03*
D10*
X43180000Y0D03*
%TD*%
%TO.C,SW16*%
X-5080000Y-57150000D03*
D11*
X-3810000Y-54610000D03*
D12*
X0Y-57150000D03*
D11*
X2540000Y-52070000D03*
D10*
X5080000Y-57150000D03*
%TD*%
%TO.C,SW18*%
X33020000Y-57150000D03*
D11*
X34290000Y-54610000D03*
D12*
X38100000Y-57150000D03*
D11*
X40640000Y-52070000D03*
D10*
X43180000Y-57150000D03*
%TD*%
%TO.C,SW12*%
X13970000Y-38100000D03*
D11*
X15240000Y-35560000D03*
D12*
X19050000Y-38100000D03*
D11*
X21590000Y-33020000D03*
D10*
X24130000Y-38100000D03*
%TD*%
%TO.C,SW9*%
X52070000Y-19050000D03*
D11*
X53340000Y-16510000D03*
D12*
X57150000Y-19050000D03*
D11*
X59690000Y-13970000D03*
D10*
X62230000Y-19050000D03*
%TD*%
%TO.C,SW11*%
X-5080000Y-38100000D03*
D11*
X-3810000Y-35560000D03*
D12*
X0Y-38100000D03*
D11*
X2540000Y-33020000D03*
D10*
X5080000Y-38100000D03*
%TD*%
%TO.C,SW6*%
X-5080000Y-19050000D03*
D11*
X-3810000Y-16510000D03*
D12*
X0Y-19050000D03*
D11*
X2540000Y-13970000D03*
D10*
X5080000Y-19050000D03*
%TD*%
%TO.C,SW4*%
X52070000Y0D03*
D11*
X53340000Y2540000D03*
D12*
X57150000Y0D03*
D11*
X59690000Y5080000D03*
D10*
X62230000Y0D03*
%TD*%
%TO.C,SW13*%
X33020000Y-38100000D03*
D11*
X34290000Y-35560000D03*
D12*
X38100000Y-38100000D03*
D11*
X40640000Y-33020000D03*
D10*
X43180000Y-38100000D03*
%TD*%
%TO.C,SW19*%
X52070000Y-57150000D03*
D11*
X53340000Y-54610000D03*
D12*
X57150000Y-57150000D03*
D11*
X59690000Y-52070000D03*
D10*
X62230000Y-57150000D03*
%TD*%
D13*
%TO.C,J1*%
X57430000Y17870000D03*
X64430000Y17870000D03*
X57430000Y19620000D03*
X64430000Y19620000D03*
D14*
X54130000Y17520000D03*
X54130000Y19970000D03*
X62630000Y15770000D03*
X62630000Y21720000D03*
X59630000Y15770000D03*
X59630000Y21720000D03*
X55630000Y15770000D03*
X55630000Y21720000D03*
%TD*%
D15*
%TO.C,D15*%
X73360000Y-46332500D03*
D16*
X79360000Y-46332500D03*
%TD*%
D15*
%TO.C,D11*%
X-2930000Y-46640000D03*
D16*
X3070000Y-46640000D03*
%TD*%
D15*
%TO.C,D4*%
X54330000Y-8240000D03*
D16*
X60330000Y-8240000D03*
%TD*%
D15*
%TO.C,D6*%
X-2950000Y-27340000D03*
D16*
X3050000Y-27340000D03*
%TD*%
D15*
%TO.C,D9*%
X54440000Y-27630000D03*
D16*
X60440000Y-27630000D03*
%TD*%
D15*
%TO.C,D8*%
X35310000Y-27050000D03*
D16*
X41310000Y-27050000D03*
%TD*%
D15*
%TO.C,D20*%
X73695000Y-65430000D03*
D16*
X79695000Y-65430000D03*
%TD*%
D15*
%TO.C,D17*%
X16061250Y-65430000D03*
D16*
X22061250Y-65430000D03*
%TD*%
D15*
%TO.C,D12*%
X16142500Y-46230000D03*
D16*
X22142500Y-46230000D03*
%TD*%
D15*
%TO.C,D10*%
X73570000Y-27195000D03*
D16*
X79570000Y-27195000D03*
%TD*%
D15*
%TO.C,D5*%
X73430000Y-8300000D03*
D16*
X79430000Y-8300000D03*
%TD*%
D15*
%TO.C,D13*%
X35215000Y-46537500D03*
D16*
X41215000Y-46537500D03*
%TD*%
D15*
%TO.C,D1*%
X-2970000Y-8510000D03*
D16*
X3030000Y-8510000D03*
%TD*%
D15*
%TO.C,D14*%
X54287500Y-46435000D03*
D16*
X60287500Y-46435000D03*
%TD*%
D15*
%TO.C,D7*%
X16180000Y-27485000D03*
D16*
X22180000Y-27485000D03*
%TD*%
D17*
%TO.C,SW21*%
X48360000Y15380000D03*
X48360000Y21880000D03*
%TD*%
D15*
%TO.C,D3*%
X35230000Y-8240000D03*
D16*
X41230000Y-8240000D03*
%TD*%
D15*
%TO.C,D19*%
X54483750Y-65300000D03*
D16*
X60483750Y-65300000D03*
%TD*%
D15*
%TO.C,D18*%
X35272500Y-65430000D03*
D16*
X41272500Y-65430000D03*
%TD*%
D15*
%TO.C,D16*%
X-3150000Y-65300000D03*
D16*
X2850000Y-65300000D03*
%TD*%
D15*
%TO.C,D2*%
X16130000Y-8240000D03*
D16*
X22130000Y-8240000D03*
%TD*%
M02*
