M48
; DRILL file {KiCad 7.0.1-0} date 2023 August 16, Wednesday 18:45:34
; FORMAT={-:-/ absolute / metric / decimal}
; #@! TF.CreationDate,2023-08-16T18:45:34+09:00
; #@! TF.GenerationSoftware,Kicad,Pcbnew,7.0.1-0
; #@! TF.FileFunction,Plated,1,2,PTH
FMAT,2
METRIC
; #@! TA.AperFunction,Plated,PTH,ViaDrill
T1C0.400
; #@! TA.AperFunction,Plated,PTH,ComponentDrill
T2C0.813
; #@! TA.AperFunction,Plated,PTH,ComponentDrill
T3C1.000
; #@! TA.AperFunction,Plated,PTH,ComponentDrill
T4C1.300
%
G90
G05
T1
X11.02Y22.43
X12.03Y23.49
X16.19Y21.51
X26.1Y-26.51
X26.15Y-7.265
X27.81Y-45.255
X28.54Y-64.32
X32.7Y8.25
X35.4Y8.34
X46.22Y-25.84
X49.81Y8.34
X69.06Y7.4
T2
X-3.15Y-65.3
X-2.97Y-8.51
X-2.95Y-27.34
X-2.93Y-46.64
X2.85Y-65.3
X3.03Y-8.51
X3.05Y-27.34
X3.07Y-46.64
X13.59Y26.653
X13.59Y11.433
X16.061Y-65.43
X16.13Y26.653
X16.13Y11.433
X16.13Y-8.24
X16.142Y-46.23
X16.18Y-27.485
X18.67Y26.653
X18.67Y11.433
X21.21Y26.653
X21.21Y11.433
X22.061Y-65.43
X22.13Y-8.24
X22.142Y-46.23
X22.18Y-27.485
X23.75Y26.653
X23.75Y11.433
X26.29Y26.653
X26.29Y11.433
X28.83Y26.653
X28.83Y11.433
X31.37Y26.653
X31.37Y11.433
X33.91Y26.653
X33.91Y11.433
X35.215Y-46.538
X35.23Y-8.24
X35.273Y-65.43
X35.31Y-27.05
X36.45Y26.653
X36.45Y11.433
X38.99Y26.653
X38.99Y11.433
X41.215Y-46.538
X41.23Y-8.24
X41.273Y-65.43
X41.31Y-27.05
X41.53Y26.653
X41.53Y11.433
X54.287Y-46.435
X54.33Y-8.24
X54.44Y-27.63
X54.484Y-65.3
X60.287Y-46.435
X60.33Y-8.24
X60.44Y-27.63
X60.484Y-65.3
X73.36Y-46.332
X73.43Y-8.3
X73.57Y-27.195
X73.695Y-65.43
X79.36Y-46.332
X79.43Y-8.3
X79.57Y-27.195
X79.695Y-65.43
T4
X48.36Y21.88
X48.36Y15.38
T3
G00X53.88Y19.97
M15
G01X54.38Y19.97
M16
G05
G00X53.88Y17.52
M15
G01X54.38Y17.52
M16
G05
G00X55.38Y21.72
M15
G01X55.88Y21.72
M16
G05
G00X55.38Y15.77
M15
G01X55.88Y15.77
M16
G05
G00X59.38Y21.72
M15
G01X59.88Y21.72
M16
G05
G00X59.38Y15.77
M15
G01X59.88Y15.77
M16
G05
G00X62.38Y21.72
M15
G01X62.88Y21.72
M16
G05
G00X62.38Y15.77
M15
G01X62.88Y15.77
M16
G05
T0
M30
