%TF.GenerationSoftware,KiCad,Pcbnew,7.0.1-0*%
%TF.CreationDate,2023-08-16T18:46:33+09:00*%
%TF.ProjectId,jisaku20,6a697361-6b75-4323-902e-6b696361645f,rev?*%
%TF.SameCoordinates,Original*%
%TF.FileFunction,Legend,Top*%
%TF.FilePolarity,Positive*%
%FSLAX46Y46*%
G04 Gerber Fmt 4.6, Leading zero omitted, Abs format (unit mm)*
G04 Created by KiCad (PCBNEW 7.0.1-0) date 2023-08-16 18:46:33*
%MOMM*%
%LPD*%
G01*
G04 APERTURE LIST*
%ADD10C,0.150000*%
%ADD11C,0.125000*%
%ADD12C,0.120000*%
%ADD13C,1.200000*%
%ADD14O,2.500000X1.700000*%
%ADD15C,2.000000*%
G04 APERTURE END LIST*
D10*
%TO.C,J1*%
X16172619Y17108095D02*
X16172619Y17679523D01*
X17172619Y17393809D02*
X16172619Y17393809D01*
X17172619Y18584285D02*
X16696428Y18250952D01*
X17172619Y18012857D02*
X16172619Y18012857D01*
X16172619Y18012857D02*
X16172619Y18393809D01*
X16172619Y18393809D02*
X16220238Y18489047D01*
X16220238Y18489047D02*
X16267857Y18536666D01*
X16267857Y18536666D02*
X16363095Y18584285D01*
X16363095Y18584285D02*
X16505952Y18584285D01*
X16505952Y18584285D02*
X16601190Y18536666D01*
X16601190Y18536666D02*
X16648809Y18489047D01*
X16648809Y18489047D02*
X16696428Y18393809D01*
X16696428Y18393809D02*
X16696428Y18012857D01*
X17172619Y19584285D02*
X16696428Y19250952D01*
X17172619Y19012857D02*
X16172619Y19012857D01*
X16172619Y19012857D02*
X16172619Y19393809D01*
X16172619Y19393809D02*
X16220238Y19489047D01*
X16220238Y19489047D02*
X16267857Y19536666D01*
X16267857Y19536666D02*
X16363095Y19584285D01*
X16363095Y19584285D02*
X16505952Y19584285D01*
X16505952Y19584285D02*
X16601190Y19536666D01*
X16601190Y19536666D02*
X16648809Y19489047D01*
X16648809Y19489047D02*
X16696428Y19393809D01*
X16696428Y19393809D02*
X16696428Y19012857D01*
X17125000Y19965238D02*
X17172619Y20108095D01*
X17172619Y20108095D02*
X17172619Y20346190D01*
X17172619Y20346190D02*
X17125000Y20441428D01*
X17125000Y20441428D02*
X17077380Y20489047D01*
X17077380Y20489047D02*
X16982142Y20536666D01*
X16982142Y20536666D02*
X16886904Y20536666D01*
X16886904Y20536666D02*
X16791666Y20489047D01*
X16791666Y20489047D02*
X16744047Y20441428D01*
X16744047Y20441428D02*
X16696428Y20346190D01*
X16696428Y20346190D02*
X16648809Y20155714D01*
X16648809Y20155714D02*
X16601190Y20060476D01*
X16601190Y20060476D02*
X16553571Y20012857D01*
X16553571Y20012857D02*
X16458333Y19965238D01*
X16458333Y19965238D02*
X16363095Y19965238D01*
X16363095Y19965238D02*
X16267857Y20012857D01*
X16267857Y20012857D02*
X16220238Y20060476D01*
X16220238Y20060476D02*
X16172619Y20155714D01*
X16172619Y20155714D02*
X16172619Y20393809D01*
X16172619Y20393809D02*
X16220238Y20536666D01*
D11*
%TO.C,U1*%
X55389321Y14596875D02*
X55425035Y14660685D01*
X55425035Y14660685D02*
X55425035Y14756399D01*
X55425035Y14756399D02*
X55389321Y14852113D01*
X55389321Y14852113D02*
X55317892Y14915923D01*
X55317892Y14915923D02*
X55246464Y14947828D01*
X55246464Y14947828D02*
X55103607Y14979732D01*
X55103607Y14979732D02*
X54996464Y14979732D01*
X54996464Y14979732D02*
X54853607Y14947828D01*
X54853607Y14947828D02*
X54782178Y14915923D01*
X54782178Y14915923D02*
X54710750Y14852113D01*
X54710750Y14852113D02*
X54675035Y14756399D01*
X54675035Y14756399D02*
X54675035Y14692590D01*
X54675035Y14692590D02*
X54710750Y14596875D01*
X54710750Y14596875D02*
X54746464Y14564971D01*
X54746464Y14564971D02*
X54996464Y14564971D01*
X54996464Y14564971D02*
X54996464Y14692590D01*
X54675035Y14277828D02*
X55425035Y14277828D01*
X55425035Y14277828D02*
X54675035Y13894971D01*
X54675035Y13894971D02*
X55425035Y13894971D01*
X54675035Y13575923D02*
X55425035Y13575923D01*
X55425035Y13575923D02*
X55425035Y13416399D01*
X55425035Y13416399D02*
X55389321Y13320685D01*
X55389321Y13320685D02*
X55317892Y13256875D01*
X55317892Y13256875D02*
X55246464Y13224970D01*
X55246464Y13224970D02*
X55103607Y13193066D01*
X55103607Y13193066D02*
X54996464Y13193066D01*
X54996464Y13193066D02*
X54853607Y13224970D01*
X54853607Y13224970D02*
X54782178Y13256875D01*
X54782178Y13256875D02*
X54710750Y13320685D01*
X54710750Y13320685D02*
X54675035Y13416399D01*
X54675035Y13416399D02*
X54675035Y13575923D01*
X49710750Y18059018D02*
X49675035Y17963304D01*
X49675035Y17963304D02*
X49675035Y17803780D01*
X49675035Y17803780D02*
X49710750Y17739971D01*
X49710750Y17739971D02*
X49746464Y17708066D01*
X49746464Y17708066D02*
X49817892Y17676161D01*
X49817892Y17676161D02*
X49889321Y17676161D01*
X49889321Y17676161D02*
X49960750Y17708066D01*
X49960750Y17708066D02*
X49996464Y17739971D01*
X49996464Y17739971D02*
X50032178Y17803780D01*
X50032178Y17803780D02*
X50067892Y17931399D01*
X50067892Y17931399D02*
X50103607Y17995209D01*
X50103607Y17995209D02*
X50139321Y18027114D01*
X50139321Y18027114D02*
X50210750Y18059018D01*
X50210750Y18059018D02*
X50282178Y18059018D01*
X50282178Y18059018D02*
X50353607Y18027114D01*
X50353607Y18027114D02*
X50389321Y17995209D01*
X50389321Y17995209D02*
X50425035Y17931399D01*
X50425035Y17931399D02*
X50425035Y17771876D01*
X50425035Y17771876D02*
X50389321Y17676161D01*
X49746464Y17006162D02*
X49710750Y17038066D01*
X49710750Y17038066D02*
X49675035Y17133781D01*
X49675035Y17133781D02*
X49675035Y17197590D01*
X49675035Y17197590D02*
X49710750Y17293304D01*
X49710750Y17293304D02*
X49782178Y17357114D01*
X49782178Y17357114D02*
X49853607Y17389019D01*
X49853607Y17389019D02*
X49996464Y17420923D01*
X49996464Y17420923D02*
X50103607Y17420923D01*
X50103607Y17420923D02*
X50246464Y17389019D01*
X50246464Y17389019D02*
X50317892Y17357114D01*
X50317892Y17357114D02*
X50389321Y17293304D01*
X50389321Y17293304D02*
X50425035Y17197590D01*
X50425035Y17197590D02*
X50425035Y17133781D01*
X50425035Y17133781D02*
X50389321Y17038066D01*
X50389321Y17038066D02*
X50353607Y17006162D01*
X49675035Y16399971D02*
X49675035Y16719019D01*
X49675035Y16719019D02*
X50425035Y16719019D01*
X50460750Y15698066D02*
X49496464Y16272352D01*
X49675035Y15474733D02*
X50425035Y15474733D01*
X50425035Y15474733D02*
X50425035Y15315209D01*
X50425035Y15315209D02*
X50389321Y15219495D01*
X50389321Y15219495D02*
X50317892Y15155685D01*
X50317892Y15155685D02*
X50246464Y15123780D01*
X50246464Y15123780D02*
X50103607Y15091876D01*
X50103607Y15091876D02*
X49996464Y15091876D01*
X49996464Y15091876D02*
X49853607Y15123780D01*
X49853607Y15123780D02*
X49782178Y15155685D01*
X49782178Y15155685D02*
X49710750Y15219495D01*
X49710750Y15219495D02*
X49675035Y15315209D01*
X49675035Y15315209D02*
X49675035Y15474733D01*
X50425035Y14677114D02*
X50425035Y14613304D01*
X50425035Y14613304D02*
X50389321Y14549495D01*
X50389321Y14549495D02*
X50353607Y14517590D01*
X50353607Y14517590D02*
X50282178Y14485685D01*
X50282178Y14485685D02*
X50139321Y14453780D01*
X50139321Y14453780D02*
X49960750Y14453780D01*
X49960750Y14453780D02*
X49817892Y14485685D01*
X49817892Y14485685D02*
X49746464Y14517590D01*
X49746464Y14517590D02*
X49710750Y14549495D01*
X49710750Y14549495D02*
X49675035Y14613304D01*
X49675035Y14613304D02*
X49675035Y14677114D01*
X49675035Y14677114D02*
X49710750Y14740923D01*
X49710750Y14740923D02*
X49746464Y14772828D01*
X49746464Y14772828D02*
X49817892Y14804733D01*
X49817892Y14804733D02*
X49960750Y14836637D01*
X49960750Y14836637D02*
X50139321Y14836637D01*
X50139321Y14836637D02*
X50282178Y14804733D01*
X50282178Y14804733D02*
X50353607Y14772828D01*
X50353607Y14772828D02*
X50389321Y14740923D01*
X50389321Y14740923D02*
X50425035Y14677114D01*
X50460750Y13688066D02*
X49496464Y14262352D01*
X50425035Y13528542D02*
X50425035Y13113780D01*
X50425035Y13113780D02*
X50139321Y13337114D01*
X50139321Y13337114D02*
X50139321Y13241399D01*
X50139321Y13241399D02*
X50103607Y13177590D01*
X50103607Y13177590D02*
X50067892Y13145685D01*
X50067892Y13145685D02*
X49996464Y13113780D01*
X49996464Y13113780D02*
X49817892Y13113780D01*
X49817892Y13113780D02*
X49746464Y13145685D01*
X49746464Y13145685D02*
X49710750Y13177590D01*
X49710750Y13177590D02*
X49675035Y13241399D01*
X49675035Y13241399D02*
X49675035Y13432828D01*
X49675035Y13432828D02*
X49710750Y13496637D01*
X49710750Y13496637D02*
X49746464Y13528542D01*
X34867892Y15277589D02*
X34832178Y15181875D01*
X34832178Y15181875D02*
X34796464Y15149970D01*
X34796464Y15149970D02*
X34725035Y15118066D01*
X34725035Y15118066D02*
X34617892Y15118066D01*
X34617892Y15118066D02*
X34546464Y15149970D01*
X34546464Y15149970D02*
X34510750Y15181875D01*
X34510750Y15181875D02*
X34475035Y15245685D01*
X34475035Y15245685D02*
X34475035Y15500923D01*
X34475035Y15500923D02*
X35225035Y15500923D01*
X35225035Y15500923D02*
X35225035Y15277589D01*
X35225035Y15277589D02*
X35189321Y15213780D01*
X35189321Y15213780D02*
X35153607Y15181875D01*
X35153607Y15181875D02*
X35082178Y15149970D01*
X35082178Y15149970D02*
X35010750Y15149970D01*
X35010750Y15149970D02*
X34939321Y15181875D01*
X34939321Y15181875D02*
X34903607Y15213780D01*
X34903607Y15213780D02*
X34867892Y15277589D01*
X34867892Y15277589D02*
X34867892Y15500923D01*
X35225035Y14511875D02*
X35225035Y14830923D01*
X35225035Y14830923D02*
X34867892Y14862827D01*
X34867892Y14862827D02*
X34903607Y14830923D01*
X34903607Y14830923D02*
X34939321Y14767113D01*
X34939321Y14767113D02*
X34939321Y14607589D01*
X34939321Y14607589D02*
X34903607Y14543780D01*
X34903607Y14543780D02*
X34867892Y14511875D01*
X34867892Y14511875D02*
X34796464Y14479970D01*
X34796464Y14479970D02*
X34617892Y14479970D01*
X34617892Y14479970D02*
X34546464Y14511875D01*
X34546464Y14511875D02*
X34510750Y14543780D01*
X34510750Y14543780D02*
X34475035Y14607589D01*
X34475035Y14607589D02*
X34475035Y14767113D01*
X34475035Y14767113D02*
X34510750Y14830923D01*
X34510750Y14830923D02*
X34546464Y14862827D01*
X35260750Y13714256D02*
X34296464Y14288542D01*
X34475035Y13459018D02*
X34475035Y13331399D01*
X34475035Y13331399D02*
X34510750Y13267589D01*
X34510750Y13267589D02*
X34546464Y13235685D01*
X34546464Y13235685D02*
X34653607Y13171875D01*
X34653607Y13171875D02*
X34796464Y13139970D01*
X34796464Y13139970D02*
X35082178Y13139970D01*
X35082178Y13139970D02*
X35153607Y13171875D01*
X35153607Y13171875D02*
X35189321Y13203780D01*
X35189321Y13203780D02*
X35225035Y13267589D01*
X35225035Y13267589D02*
X35225035Y13395208D01*
X35225035Y13395208D02*
X35189321Y13459018D01*
X35189321Y13459018D02*
X35153607Y13490923D01*
X35153607Y13490923D02*
X35082178Y13522827D01*
X35082178Y13522827D02*
X34903607Y13522827D01*
X34903607Y13522827D02*
X34832178Y13490923D01*
X34832178Y13490923D02*
X34796464Y13459018D01*
X34796464Y13459018D02*
X34760750Y13395208D01*
X34760750Y13395208D02*
X34760750Y13267589D01*
X34760750Y13267589D02*
X34796464Y13203780D01*
X34796464Y13203780D02*
X34832178Y13171875D01*
X34832178Y13171875D02*
X34903607Y13139970D01*
X52239321Y24872113D02*
X52239321Y24553066D01*
X52025035Y24935923D02*
X52775035Y24712590D01*
X52775035Y24712590D02*
X52025035Y24489256D01*
X52775035Y24329732D02*
X52775035Y23914970D01*
X52775035Y23914970D02*
X52489321Y24138304D01*
X52489321Y24138304D02*
X52489321Y24042589D01*
X52489321Y24042589D02*
X52453607Y23978780D01*
X52453607Y23978780D02*
X52417892Y23946875D01*
X52417892Y23946875D02*
X52346464Y23914970D01*
X52346464Y23914970D02*
X52167892Y23914970D01*
X52167892Y23914970D02*
X52096464Y23946875D01*
X52096464Y23946875D02*
X52060750Y23978780D01*
X52060750Y23978780D02*
X52025035Y24042589D01*
X52025035Y24042589D02*
X52025035Y24234018D01*
X52025035Y24234018D02*
X52060750Y24297827D01*
X52060750Y24297827D02*
X52096464Y24329732D01*
X52810750Y23149256D02*
X51846464Y23723542D01*
X52417892Y22702589D02*
X52417892Y22925923D01*
X52025035Y22925923D02*
X52775035Y22925923D01*
X52775035Y22925923D02*
X52775035Y22606875D01*
X52525035Y22064494D02*
X52025035Y22064494D01*
X52810750Y22224018D02*
X52275035Y22383541D01*
X52275035Y22383541D02*
X52275035Y21968780D01*
X59675035Y16704971D02*
X60425035Y16704971D01*
X60425035Y16704971D02*
X60425035Y16545447D01*
X60425035Y16545447D02*
X60389321Y16449733D01*
X60389321Y16449733D02*
X60317892Y16385923D01*
X60317892Y16385923D02*
X60246464Y16354018D01*
X60246464Y16354018D02*
X60103607Y16322114D01*
X60103607Y16322114D02*
X59996464Y16322114D01*
X59996464Y16322114D02*
X59853607Y16354018D01*
X59853607Y16354018D02*
X59782178Y16385923D01*
X59782178Y16385923D02*
X59710750Y16449733D01*
X59710750Y16449733D02*
X59675035Y16545447D01*
X59675035Y16545447D02*
X59675035Y16704971D01*
X60353607Y16066875D02*
X60389321Y16034971D01*
X60389321Y16034971D02*
X60425035Y15971161D01*
X60425035Y15971161D02*
X60425035Y15811637D01*
X60425035Y15811637D02*
X60389321Y15747828D01*
X60389321Y15747828D02*
X60353607Y15715923D01*
X60353607Y15715923D02*
X60282178Y15684018D01*
X60282178Y15684018D02*
X60210750Y15684018D01*
X60210750Y15684018D02*
X60103607Y15715923D01*
X60103607Y15715923D02*
X59675035Y16098780D01*
X59675035Y16098780D02*
X59675035Y15684018D01*
X60460750Y14918304D02*
X59496464Y15492590D01*
X59675035Y14312114D02*
X60032178Y14535447D01*
X59675035Y14694971D02*
X60425035Y14694971D01*
X60425035Y14694971D02*
X60425035Y14439733D01*
X60425035Y14439733D02*
X60389321Y14375923D01*
X60389321Y14375923D02*
X60353607Y14344018D01*
X60353607Y14344018D02*
X60282178Y14312114D01*
X60282178Y14312114D02*
X60175035Y14312114D01*
X60175035Y14312114D02*
X60103607Y14344018D01*
X60103607Y14344018D02*
X60067892Y14375923D01*
X60067892Y14375923D02*
X60032178Y14439733D01*
X60032178Y14439733D02*
X60032178Y14694971D01*
X60425035Y14088780D02*
X59675035Y13642114D01*
X60425035Y13642114D02*
X59675035Y14088780D01*
X59675035Y13035923D02*
X59675035Y13418780D01*
X59675035Y13227352D02*
X60425035Y13227352D01*
X60425035Y13227352D02*
X60317892Y13291161D01*
X60317892Y13291161D02*
X60246464Y13354971D01*
X60246464Y13354971D02*
X60210750Y13418780D01*
D12*
X67418964Y16644971D02*
X66668964Y16644971D01*
X66668964Y16644971D02*
X67204678Y16894971D01*
X67204678Y16894971D02*
X66668964Y17144971D01*
X66668964Y17144971D02*
X67418964Y17144971D01*
X67418964Y17502114D02*
X66918964Y17502114D01*
X66668964Y17502114D02*
X66704678Y17466400D01*
X66704678Y17466400D02*
X66740392Y17502114D01*
X66740392Y17502114D02*
X66704678Y17537828D01*
X66704678Y17537828D02*
X66668964Y17502114D01*
X66668964Y17502114D02*
X66740392Y17502114D01*
X67383250Y18180686D02*
X67418964Y18109257D01*
X67418964Y18109257D02*
X67418964Y17966400D01*
X67418964Y17966400D02*
X67383250Y17894971D01*
X67383250Y17894971D02*
X67347535Y17859257D01*
X67347535Y17859257D02*
X67276107Y17823543D01*
X67276107Y17823543D02*
X67061821Y17823543D01*
X67061821Y17823543D02*
X66990392Y17859257D01*
X66990392Y17859257D02*
X66954678Y17894971D01*
X66954678Y17894971D02*
X66918964Y17966400D01*
X66918964Y17966400D02*
X66918964Y18109257D01*
X66918964Y18109257D02*
X66954678Y18180686D01*
X67418964Y18502114D02*
X66918964Y18502114D01*
X67061821Y18502114D02*
X66990392Y18537828D01*
X66990392Y18537828D02*
X66954678Y18573543D01*
X66954678Y18573543D02*
X66918964Y18644971D01*
X66918964Y18644971D02*
X66918964Y18716400D01*
X67418964Y19073543D02*
X67383250Y19002114D01*
X67383250Y19002114D02*
X67347535Y18966400D01*
X67347535Y18966400D02*
X67276107Y18930686D01*
X67276107Y18930686D02*
X67061821Y18930686D01*
X67061821Y18930686D02*
X66990392Y18966400D01*
X66990392Y18966400D02*
X66954678Y19002114D01*
X66954678Y19002114D02*
X66918964Y19073543D01*
X66918964Y19073543D02*
X66918964Y19180686D01*
X66918964Y19180686D02*
X66954678Y19252114D01*
X66954678Y19252114D02*
X66990392Y19287829D01*
X66990392Y19287829D02*
X67061821Y19323543D01*
X67061821Y19323543D02*
X67276107Y19323543D01*
X67276107Y19323543D02*
X67347535Y19287829D01*
X67347535Y19287829D02*
X67383250Y19252114D01*
X67383250Y19252114D02*
X67418964Y19180686D01*
X67418964Y19180686D02*
X67418964Y19073543D01*
X66668964Y19644971D02*
X67276107Y19644971D01*
X67276107Y19644971D02*
X67347535Y19680685D01*
X67347535Y19680685D02*
X67383250Y19716400D01*
X67383250Y19716400D02*
X67418964Y19787828D01*
X67418964Y19787828D02*
X67418964Y19930685D01*
X67418964Y19930685D02*
X67383250Y20002114D01*
X67383250Y20002114D02*
X67347535Y20037828D01*
X67347535Y20037828D02*
X67276107Y20073542D01*
X67276107Y20073542D02*
X66668964Y20073542D01*
X67383250Y20394971D02*
X67418964Y20502114D01*
X67418964Y20502114D02*
X67418964Y20680685D01*
X67418964Y20680685D02*
X67383250Y20752114D01*
X67383250Y20752114D02*
X67347535Y20787828D01*
X67347535Y20787828D02*
X67276107Y20823542D01*
X67276107Y20823542D02*
X67204678Y20823542D01*
X67204678Y20823542D02*
X67133250Y20787828D01*
X67133250Y20787828D02*
X67097535Y20752114D01*
X67097535Y20752114D02*
X67061821Y20680685D01*
X67061821Y20680685D02*
X67026107Y20537828D01*
X67026107Y20537828D02*
X66990392Y20466399D01*
X66990392Y20466399D02*
X66954678Y20430685D01*
X66954678Y20430685D02*
X66883250Y20394971D01*
X66883250Y20394971D02*
X66811821Y20394971D01*
X66811821Y20394971D02*
X66740392Y20430685D01*
X66740392Y20430685D02*
X66704678Y20466399D01*
X66704678Y20466399D02*
X66668964Y20537828D01*
X66668964Y20537828D02*
X66668964Y20716399D01*
X66668964Y20716399D02*
X66704678Y20823542D01*
X67026107Y21394971D02*
X67061821Y21502114D01*
X67061821Y21502114D02*
X67097535Y21537828D01*
X67097535Y21537828D02*
X67168964Y21573542D01*
X67168964Y21573542D02*
X67276107Y21573542D01*
X67276107Y21573542D02*
X67347535Y21537828D01*
X67347535Y21537828D02*
X67383250Y21502114D01*
X67383250Y21502114D02*
X67418964Y21430685D01*
X67418964Y21430685D02*
X67418964Y21144971D01*
X67418964Y21144971D02*
X66668964Y21144971D01*
X66668964Y21144971D02*
X66668964Y21394971D01*
X66668964Y21394971D02*
X66704678Y21466400D01*
X66704678Y21466400D02*
X66740392Y21502114D01*
X66740392Y21502114D02*
X66811821Y21537828D01*
X66811821Y21537828D02*
X66883250Y21537828D01*
X66883250Y21537828D02*
X66954678Y21502114D01*
X66954678Y21502114D02*
X66990392Y21466400D01*
X66990392Y21466400D02*
X67026107Y21394971D01*
X67026107Y21394971D02*
X67026107Y21144971D01*
D11*
X62225035Y16625209D02*
X62975035Y16625209D01*
X62975035Y16625209D02*
X62975035Y16465685D01*
X62975035Y16465685D02*
X62939321Y16369971D01*
X62939321Y16369971D02*
X62867892Y16306161D01*
X62867892Y16306161D02*
X62796464Y16274256D01*
X62796464Y16274256D02*
X62653607Y16242352D01*
X62653607Y16242352D02*
X62546464Y16242352D01*
X62546464Y16242352D02*
X62403607Y16274256D01*
X62403607Y16274256D02*
X62332178Y16306161D01*
X62332178Y16306161D02*
X62260750Y16369971D01*
X62260750Y16369971D02*
X62225035Y16465685D01*
X62225035Y16465685D02*
X62225035Y16625209D01*
X62975035Y16019018D02*
X62975035Y15604256D01*
X62975035Y15604256D02*
X62689321Y15827590D01*
X62689321Y15827590D02*
X62689321Y15731875D01*
X62689321Y15731875D02*
X62653607Y15668066D01*
X62653607Y15668066D02*
X62617892Y15636161D01*
X62617892Y15636161D02*
X62546464Y15604256D01*
X62546464Y15604256D02*
X62367892Y15604256D01*
X62367892Y15604256D02*
X62296464Y15636161D01*
X62296464Y15636161D02*
X62260750Y15668066D01*
X62260750Y15668066D02*
X62225035Y15731875D01*
X62225035Y15731875D02*
X62225035Y15923304D01*
X62225035Y15923304D02*
X62260750Y15987113D01*
X62260750Y15987113D02*
X62296464Y16019018D01*
X63010750Y14838542D02*
X62046464Y15412828D01*
X62975035Y14710923D02*
X62975035Y14328066D01*
X62225035Y14519494D02*
X62975035Y14519494D01*
X62975035Y14168542D02*
X62225035Y13721876D01*
X62975035Y13721876D02*
X62225035Y14168542D01*
X62975035Y13339019D02*
X62975035Y13275209D01*
X62975035Y13275209D02*
X62939321Y13211400D01*
X62939321Y13211400D02*
X62903607Y13179495D01*
X62903607Y13179495D02*
X62832178Y13147590D01*
X62832178Y13147590D02*
X62689321Y13115685D01*
X62689321Y13115685D02*
X62510750Y13115685D01*
X62510750Y13115685D02*
X62367892Y13147590D01*
X62367892Y13147590D02*
X62296464Y13179495D01*
X62296464Y13179495D02*
X62260750Y13211400D01*
X62260750Y13211400D02*
X62225035Y13275209D01*
X62225035Y13275209D02*
X62225035Y13339019D01*
X62225035Y13339019D02*
X62260750Y13402828D01*
X62260750Y13402828D02*
X62296464Y13434733D01*
X62296464Y13434733D02*
X62367892Y13466638D01*
X62367892Y13466638D02*
X62510750Y13498542D01*
X62510750Y13498542D02*
X62689321Y13498542D01*
X62689321Y13498542D02*
X62832178Y13466638D01*
X62832178Y13466638D02*
X62903607Y13434733D01*
X62903607Y13434733D02*
X62939321Y13402828D01*
X62939321Y13402828D02*
X62975035Y13339019D01*
X57175035Y24403304D02*
X57532178Y24626637D01*
X57175035Y24786161D02*
X57925035Y24786161D01*
X57925035Y24786161D02*
X57925035Y24530923D01*
X57925035Y24530923D02*
X57889321Y24467113D01*
X57889321Y24467113D02*
X57853607Y24435208D01*
X57853607Y24435208D02*
X57782178Y24403304D01*
X57782178Y24403304D02*
X57675035Y24403304D01*
X57675035Y24403304D02*
X57603607Y24435208D01*
X57603607Y24435208D02*
X57567892Y24467113D01*
X57567892Y24467113D02*
X57532178Y24530923D01*
X57532178Y24530923D02*
X57532178Y24786161D01*
X57210750Y24148065D02*
X57175035Y24052351D01*
X57175035Y24052351D02*
X57175035Y23892827D01*
X57175035Y23892827D02*
X57210750Y23829018D01*
X57210750Y23829018D02*
X57246464Y23797113D01*
X57246464Y23797113D02*
X57317892Y23765208D01*
X57317892Y23765208D02*
X57389321Y23765208D01*
X57389321Y23765208D02*
X57460750Y23797113D01*
X57460750Y23797113D02*
X57496464Y23829018D01*
X57496464Y23829018D02*
X57532178Y23892827D01*
X57532178Y23892827D02*
X57567892Y24020446D01*
X57567892Y24020446D02*
X57603607Y24084256D01*
X57603607Y24084256D02*
X57639321Y24116161D01*
X57639321Y24116161D02*
X57710750Y24148065D01*
X57710750Y24148065D02*
X57782178Y24148065D01*
X57782178Y24148065D02*
X57853607Y24116161D01*
X57853607Y24116161D02*
X57889321Y24084256D01*
X57889321Y24084256D02*
X57925035Y24020446D01*
X57925035Y24020446D02*
X57925035Y23860923D01*
X57925035Y23860923D02*
X57889321Y23765208D01*
X57925035Y23573780D02*
X57925035Y23190923D01*
X57175035Y23382351D02*
X57925035Y23382351D01*
X34325035Y24569018D02*
X34325035Y24951875D01*
X34325035Y24760447D02*
X35075035Y24760447D01*
X35075035Y24760447D02*
X34967892Y24824256D01*
X34967892Y24824256D02*
X34896464Y24888066D01*
X34896464Y24888066D02*
X34860750Y24951875D01*
X35075035Y24154257D02*
X35075035Y24090447D01*
X35075035Y24090447D02*
X35039321Y24026638D01*
X35039321Y24026638D02*
X35003607Y23994733D01*
X35003607Y23994733D02*
X34932178Y23962828D01*
X34932178Y23962828D02*
X34789321Y23930923D01*
X34789321Y23930923D02*
X34610750Y23930923D01*
X34610750Y23930923D02*
X34467892Y23962828D01*
X34467892Y23962828D02*
X34396464Y23994733D01*
X34396464Y23994733D02*
X34360750Y24026638D01*
X34360750Y24026638D02*
X34325035Y24090447D01*
X34325035Y24090447D02*
X34325035Y24154257D01*
X34325035Y24154257D02*
X34360750Y24218066D01*
X34360750Y24218066D02*
X34396464Y24249971D01*
X34396464Y24249971D02*
X34467892Y24281876D01*
X34467892Y24281876D02*
X34610750Y24313780D01*
X34610750Y24313780D02*
X34789321Y24313780D01*
X34789321Y24313780D02*
X34932178Y24281876D01*
X34932178Y24281876D02*
X35003607Y24249971D01*
X35003607Y24249971D02*
X35039321Y24218066D01*
X35039321Y24218066D02*
X35075035Y24154257D01*
X35110750Y23165209D02*
X34146464Y23739495D01*
X34717892Y22718542D02*
X34682178Y22622828D01*
X34682178Y22622828D02*
X34646464Y22590923D01*
X34646464Y22590923D02*
X34575035Y22559019D01*
X34575035Y22559019D02*
X34467892Y22559019D01*
X34467892Y22559019D02*
X34396464Y22590923D01*
X34396464Y22590923D02*
X34360750Y22622828D01*
X34360750Y22622828D02*
X34325035Y22686638D01*
X34325035Y22686638D02*
X34325035Y22941876D01*
X34325035Y22941876D02*
X35075035Y22941876D01*
X35075035Y22941876D02*
X35075035Y22718542D01*
X35075035Y22718542D02*
X35039321Y22654733D01*
X35039321Y22654733D02*
X35003607Y22622828D01*
X35003607Y22622828D02*
X34932178Y22590923D01*
X34932178Y22590923D02*
X34860750Y22590923D01*
X34860750Y22590923D02*
X34789321Y22622828D01*
X34789321Y22622828D02*
X34753607Y22654733D01*
X34753607Y22654733D02*
X34717892Y22718542D01*
X34717892Y22718542D02*
X34717892Y22941876D01*
X35075035Y21984733D02*
X35075035Y22112352D01*
X35075035Y22112352D02*
X35039321Y22176161D01*
X35039321Y22176161D02*
X35003607Y22208066D01*
X35003607Y22208066D02*
X34896464Y22271876D01*
X34896464Y22271876D02*
X34753607Y22303780D01*
X34753607Y22303780D02*
X34467892Y22303780D01*
X34467892Y22303780D02*
X34396464Y22271876D01*
X34396464Y22271876D02*
X34360750Y22239971D01*
X34360750Y22239971D02*
X34325035Y22176161D01*
X34325035Y22176161D02*
X34325035Y22048542D01*
X34325035Y22048542D02*
X34360750Y21984733D01*
X34360750Y21984733D02*
X34396464Y21952828D01*
X34396464Y21952828D02*
X34467892Y21920923D01*
X34467892Y21920923D02*
X34646464Y21920923D01*
X34646464Y21920923D02*
X34717892Y21952828D01*
X34717892Y21952828D02*
X34753607Y21984733D01*
X34753607Y21984733D02*
X34789321Y22048542D01*
X34789321Y22048542D02*
X34789321Y22176161D01*
X34789321Y22176161D02*
X34753607Y22239971D01*
X34753607Y22239971D02*
X34717892Y22271876D01*
X34717892Y22271876D02*
X34646464Y22303780D01*
X62275035Y24499019D02*
X62632178Y24722352D01*
X62275035Y24881876D02*
X63025035Y24881876D01*
X63025035Y24881876D02*
X63025035Y24626638D01*
X63025035Y24626638D02*
X62989321Y24562828D01*
X62989321Y24562828D02*
X62953607Y24530923D01*
X62953607Y24530923D02*
X62882178Y24499019D01*
X62882178Y24499019D02*
X62775035Y24499019D01*
X62775035Y24499019D02*
X62703607Y24530923D01*
X62703607Y24530923D02*
X62667892Y24562828D01*
X62667892Y24562828D02*
X62632178Y24626638D01*
X62632178Y24626638D02*
X62632178Y24881876D01*
X62489321Y24243780D02*
X62489321Y23924733D01*
X62275035Y24307590D02*
X63025035Y24084257D01*
X63025035Y24084257D02*
X62275035Y23860923D01*
X63025035Y23701399D02*
X62275035Y23541875D01*
X62275035Y23541875D02*
X62810750Y23414256D01*
X62810750Y23414256D02*
X62275035Y23286637D01*
X62275035Y23286637D02*
X63025035Y23127114D01*
X42075035Y15500923D02*
X42825035Y15500923D01*
X42825035Y15500923D02*
X42825035Y15341399D01*
X42825035Y15341399D02*
X42789321Y15245685D01*
X42789321Y15245685D02*
X42717892Y15181875D01*
X42717892Y15181875D02*
X42646464Y15149970D01*
X42646464Y15149970D02*
X42503607Y15118066D01*
X42503607Y15118066D02*
X42396464Y15118066D01*
X42396464Y15118066D02*
X42253607Y15149970D01*
X42253607Y15149970D02*
X42182178Y15181875D01*
X42182178Y15181875D02*
X42110750Y15245685D01*
X42110750Y15245685D02*
X42075035Y15341399D01*
X42075035Y15341399D02*
X42075035Y15500923D01*
X42825035Y14894732D02*
X42825035Y14448066D01*
X42825035Y14448066D02*
X42075035Y14735208D01*
X42860750Y13714256D02*
X41896464Y14288542D01*
X42825035Y13203780D02*
X42825035Y13331399D01*
X42825035Y13331399D02*
X42789321Y13395208D01*
X42789321Y13395208D02*
X42753607Y13427113D01*
X42753607Y13427113D02*
X42646464Y13490923D01*
X42646464Y13490923D02*
X42503607Y13522827D01*
X42503607Y13522827D02*
X42217892Y13522827D01*
X42217892Y13522827D02*
X42146464Y13490923D01*
X42146464Y13490923D02*
X42110750Y13459018D01*
X42110750Y13459018D02*
X42075035Y13395208D01*
X42075035Y13395208D02*
X42075035Y13267589D01*
X42075035Y13267589D02*
X42110750Y13203780D01*
X42110750Y13203780D02*
X42146464Y13171875D01*
X42146464Y13171875D02*
X42217892Y13139970D01*
X42217892Y13139970D02*
X42396464Y13139970D01*
X42396464Y13139970D02*
X42467892Y13171875D01*
X42467892Y13171875D02*
X42503607Y13203780D01*
X42503607Y13203780D02*
X42539321Y13267589D01*
X42539321Y13267589D02*
X42539321Y13395208D01*
X42539321Y13395208D02*
X42503607Y13459018D01*
X42503607Y13459018D02*
X42467892Y13490923D01*
X42467892Y13490923D02*
X42396464Y13522827D01*
X55475035Y24929733D02*
X54725035Y24706400D01*
X54725035Y24706400D02*
X55475035Y24483066D01*
X54796464Y23876876D02*
X54760750Y23908780D01*
X54760750Y23908780D02*
X54725035Y24004495D01*
X54725035Y24004495D02*
X54725035Y24068304D01*
X54725035Y24068304D02*
X54760750Y24164018D01*
X54760750Y24164018D02*
X54832178Y24227828D01*
X54832178Y24227828D02*
X54903607Y24259733D01*
X54903607Y24259733D02*
X55046464Y24291637D01*
X55046464Y24291637D02*
X55153607Y24291637D01*
X55153607Y24291637D02*
X55296464Y24259733D01*
X55296464Y24259733D02*
X55367892Y24227828D01*
X55367892Y24227828D02*
X55439321Y24164018D01*
X55439321Y24164018D02*
X55475035Y24068304D01*
X55475035Y24068304D02*
X55475035Y24004495D01*
X55475035Y24004495D02*
X55439321Y23908780D01*
X55439321Y23908780D02*
X55403607Y23876876D01*
X54796464Y23206876D02*
X54760750Y23238780D01*
X54760750Y23238780D02*
X54725035Y23334495D01*
X54725035Y23334495D02*
X54725035Y23398304D01*
X54725035Y23398304D02*
X54760750Y23494018D01*
X54760750Y23494018D02*
X54832178Y23557828D01*
X54832178Y23557828D02*
X54903607Y23589733D01*
X54903607Y23589733D02*
X55046464Y23621637D01*
X55046464Y23621637D02*
X55153607Y23621637D01*
X55153607Y23621637D02*
X55296464Y23589733D01*
X55296464Y23589733D02*
X55367892Y23557828D01*
X55367892Y23557828D02*
X55439321Y23494018D01*
X55439321Y23494018D02*
X55475035Y23398304D01*
X55475035Y23398304D02*
X55475035Y23334495D01*
X55475035Y23334495D02*
X55439321Y23238780D01*
X55439321Y23238780D02*
X55403607Y23206876D01*
X44689321Y24872113D02*
X44689321Y24553066D01*
X44475035Y24935923D02*
X45225035Y24712590D01*
X45225035Y24712590D02*
X44475035Y24489256D01*
X45225035Y24138304D02*
X45225035Y24074494D01*
X45225035Y24074494D02*
X45189321Y24010685D01*
X45189321Y24010685D02*
X45153607Y23978780D01*
X45153607Y23978780D02*
X45082178Y23946875D01*
X45082178Y23946875D02*
X44939321Y23914970D01*
X44939321Y23914970D02*
X44760750Y23914970D01*
X44760750Y23914970D02*
X44617892Y23946875D01*
X44617892Y23946875D02*
X44546464Y23978780D01*
X44546464Y23978780D02*
X44510750Y24010685D01*
X44510750Y24010685D02*
X44475035Y24074494D01*
X44475035Y24074494D02*
X44475035Y24138304D01*
X44475035Y24138304D02*
X44510750Y24202113D01*
X44510750Y24202113D02*
X44546464Y24234018D01*
X44546464Y24234018D02*
X44617892Y24265923D01*
X44617892Y24265923D02*
X44760750Y24297827D01*
X44760750Y24297827D02*
X44939321Y24297827D01*
X44939321Y24297827D02*
X45082178Y24265923D01*
X45082178Y24265923D02*
X45153607Y24234018D01*
X45153607Y24234018D02*
X45189321Y24202113D01*
X45189321Y24202113D02*
X45225035Y24138304D01*
X45260750Y23149256D02*
X44296464Y23723542D01*
X44867892Y22702589D02*
X44867892Y22925923D01*
X44475035Y22925923D02*
X45225035Y22925923D01*
X45225035Y22925923D02*
X45225035Y22606875D01*
X45225035Y22415446D02*
X45225035Y21968780D01*
X45225035Y21968780D02*
X44475035Y22255922D01*
X39917892Y15469018D02*
X39917892Y15245684D01*
X39525035Y15149970D02*
X39525035Y15469018D01*
X39525035Y15469018D02*
X40275035Y15469018D01*
X40275035Y15469018D02*
X40275035Y15149970D01*
X40275035Y14575685D02*
X40275035Y14703304D01*
X40275035Y14703304D02*
X40239321Y14767113D01*
X40239321Y14767113D02*
X40203607Y14799018D01*
X40203607Y14799018D02*
X40096464Y14862828D01*
X40096464Y14862828D02*
X39953607Y14894732D01*
X39953607Y14894732D02*
X39667892Y14894732D01*
X39667892Y14894732D02*
X39596464Y14862828D01*
X39596464Y14862828D02*
X39560750Y14830923D01*
X39560750Y14830923D02*
X39525035Y14767113D01*
X39525035Y14767113D02*
X39525035Y14639494D01*
X39525035Y14639494D02*
X39560750Y14575685D01*
X39560750Y14575685D02*
X39596464Y14543780D01*
X39596464Y14543780D02*
X39667892Y14511875D01*
X39667892Y14511875D02*
X39846464Y14511875D01*
X39846464Y14511875D02*
X39917892Y14543780D01*
X39917892Y14543780D02*
X39953607Y14575685D01*
X39953607Y14575685D02*
X39989321Y14639494D01*
X39989321Y14639494D02*
X39989321Y14767113D01*
X39989321Y14767113D02*
X39953607Y14830923D01*
X39953607Y14830923D02*
X39917892Y14862828D01*
X39917892Y14862828D02*
X39846464Y14894732D01*
X40310750Y13746161D02*
X39346464Y14320447D01*
X40275035Y13586637D02*
X40275035Y13139971D01*
X40275035Y13139971D02*
X39525035Y13427113D01*
X44696464Y15118066D02*
X44660750Y15149970D01*
X44660750Y15149970D02*
X44625035Y15245685D01*
X44625035Y15245685D02*
X44625035Y15309494D01*
X44625035Y15309494D02*
X44660750Y15405208D01*
X44660750Y15405208D02*
X44732178Y15469018D01*
X44732178Y15469018D02*
X44803607Y15500923D01*
X44803607Y15500923D02*
X44946464Y15532827D01*
X44946464Y15532827D02*
X45053607Y15532827D01*
X45053607Y15532827D02*
X45196464Y15500923D01*
X45196464Y15500923D02*
X45267892Y15469018D01*
X45267892Y15469018D02*
X45339321Y15405208D01*
X45339321Y15405208D02*
X45375035Y15309494D01*
X45375035Y15309494D02*
X45375035Y15245685D01*
X45375035Y15245685D02*
X45339321Y15149970D01*
X45339321Y15149970D02*
X45303607Y15118066D01*
X45375035Y14543780D02*
X45375035Y14671399D01*
X45375035Y14671399D02*
X45339321Y14735208D01*
X45339321Y14735208D02*
X45303607Y14767113D01*
X45303607Y14767113D02*
X45196464Y14830923D01*
X45196464Y14830923D02*
X45053607Y14862827D01*
X45053607Y14862827D02*
X44767892Y14862827D01*
X44767892Y14862827D02*
X44696464Y14830923D01*
X44696464Y14830923D02*
X44660750Y14799018D01*
X44660750Y14799018D02*
X44625035Y14735208D01*
X44625035Y14735208D02*
X44625035Y14607589D01*
X44625035Y14607589D02*
X44660750Y14543780D01*
X44660750Y14543780D02*
X44696464Y14511875D01*
X44696464Y14511875D02*
X44767892Y14479970D01*
X44767892Y14479970D02*
X44946464Y14479970D01*
X44946464Y14479970D02*
X45017892Y14511875D01*
X45017892Y14511875D02*
X45053607Y14543780D01*
X45053607Y14543780D02*
X45089321Y14607589D01*
X45089321Y14607589D02*
X45089321Y14735208D01*
X45089321Y14735208D02*
X45053607Y14799018D01*
X45053607Y14799018D02*
X45017892Y14830923D01*
X45017892Y14830923D02*
X44946464Y14862827D01*
X45410750Y13714256D02*
X44446464Y14288542D01*
X45375035Y13171875D02*
X45375035Y13490923D01*
X45375035Y13490923D02*
X45017892Y13522827D01*
X45017892Y13522827D02*
X45053607Y13490923D01*
X45053607Y13490923D02*
X45089321Y13427113D01*
X45089321Y13427113D02*
X45089321Y13267589D01*
X45089321Y13267589D02*
X45053607Y13203780D01*
X45053607Y13203780D02*
X45017892Y13171875D01*
X45017892Y13171875D02*
X44946464Y13139970D01*
X44946464Y13139970D02*
X44767892Y13139970D01*
X44767892Y13139970D02*
X44696464Y13171875D01*
X44696464Y13171875D02*
X44660750Y13203780D01*
X44660750Y13203780D02*
X44625035Y13267589D01*
X44625035Y13267589D02*
X44625035Y13427113D01*
X44625035Y13427113D02*
X44660750Y13490923D01*
X44660750Y13490923D02*
X44696464Y13522827D01*
D12*
X67418964Y16644971D02*
X66668964Y16644971D01*
X66668964Y16644971D02*
X67204678Y16894971D01*
X67204678Y16894971D02*
X66668964Y17144971D01*
X66668964Y17144971D02*
X67418964Y17144971D01*
X67418964Y17502114D02*
X66918964Y17502114D01*
X66668964Y17502114D02*
X66704678Y17466400D01*
X66704678Y17466400D02*
X66740392Y17502114D01*
X66740392Y17502114D02*
X66704678Y17537828D01*
X66704678Y17537828D02*
X66668964Y17502114D01*
X66668964Y17502114D02*
X66740392Y17502114D01*
X67383250Y18180686D02*
X67418964Y18109257D01*
X67418964Y18109257D02*
X67418964Y17966400D01*
X67418964Y17966400D02*
X67383250Y17894971D01*
X67383250Y17894971D02*
X67347535Y17859257D01*
X67347535Y17859257D02*
X67276107Y17823543D01*
X67276107Y17823543D02*
X67061821Y17823543D01*
X67061821Y17823543D02*
X66990392Y17859257D01*
X66990392Y17859257D02*
X66954678Y17894971D01*
X66954678Y17894971D02*
X66918964Y17966400D01*
X66918964Y17966400D02*
X66918964Y18109257D01*
X66918964Y18109257D02*
X66954678Y18180686D01*
X67418964Y18502114D02*
X66918964Y18502114D01*
X67061821Y18502114D02*
X66990392Y18537828D01*
X66990392Y18537828D02*
X66954678Y18573543D01*
X66954678Y18573543D02*
X66918964Y18644971D01*
X66918964Y18644971D02*
X66918964Y18716400D01*
X67418964Y19073543D02*
X67383250Y19002114D01*
X67383250Y19002114D02*
X67347535Y18966400D01*
X67347535Y18966400D02*
X67276107Y18930686D01*
X67276107Y18930686D02*
X67061821Y18930686D01*
X67061821Y18930686D02*
X66990392Y18966400D01*
X66990392Y18966400D02*
X66954678Y19002114D01*
X66954678Y19002114D02*
X66918964Y19073543D01*
X66918964Y19073543D02*
X66918964Y19180686D01*
X66918964Y19180686D02*
X66954678Y19252114D01*
X66954678Y19252114D02*
X66990392Y19287829D01*
X66990392Y19287829D02*
X67061821Y19323543D01*
X67061821Y19323543D02*
X67276107Y19323543D01*
X67276107Y19323543D02*
X67347535Y19287829D01*
X67347535Y19287829D02*
X67383250Y19252114D01*
X67383250Y19252114D02*
X67418964Y19180686D01*
X67418964Y19180686D02*
X67418964Y19073543D01*
X66668964Y19644971D02*
X67276107Y19644971D01*
X67276107Y19644971D02*
X67347535Y19680685D01*
X67347535Y19680685D02*
X67383250Y19716400D01*
X67383250Y19716400D02*
X67418964Y19787828D01*
X67418964Y19787828D02*
X67418964Y19930685D01*
X67418964Y19930685D02*
X67383250Y20002114D01*
X67383250Y20002114D02*
X67347535Y20037828D01*
X67347535Y20037828D02*
X67276107Y20073542D01*
X67276107Y20073542D02*
X66668964Y20073542D01*
X67383250Y20394971D02*
X67418964Y20502114D01*
X67418964Y20502114D02*
X67418964Y20680685D01*
X67418964Y20680685D02*
X67383250Y20752114D01*
X67383250Y20752114D02*
X67347535Y20787828D01*
X67347535Y20787828D02*
X67276107Y20823542D01*
X67276107Y20823542D02*
X67204678Y20823542D01*
X67204678Y20823542D02*
X67133250Y20787828D01*
X67133250Y20787828D02*
X67097535Y20752114D01*
X67097535Y20752114D02*
X67061821Y20680685D01*
X67061821Y20680685D02*
X67026107Y20537828D01*
X67026107Y20537828D02*
X66990392Y20466399D01*
X66990392Y20466399D02*
X66954678Y20430685D01*
X66954678Y20430685D02*
X66883250Y20394971D01*
X66883250Y20394971D02*
X66811821Y20394971D01*
X66811821Y20394971D02*
X66740392Y20430685D01*
X66740392Y20430685D02*
X66704678Y20466399D01*
X66704678Y20466399D02*
X66668964Y20537828D01*
X66668964Y20537828D02*
X66668964Y20716399D01*
X66668964Y20716399D02*
X66704678Y20823542D01*
X67026107Y21394971D02*
X67061821Y21502114D01*
X67061821Y21502114D02*
X67097535Y21537828D01*
X67097535Y21537828D02*
X67168964Y21573542D01*
X67168964Y21573542D02*
X67276107Y21573542D01*
X67276107Y21573542D02*
X67347535Y21537828D01*
X67347535Y21537828D02*
X67383250Y21502114D01*
X67383250Y21502114D02*
X67418964Y21430685D01*
X67418964Y21430685D02*
X67418964Y21144971D01*
X67418964Y21144971D02*
X66668964Y21144971D01*
X66668964Y21144971D02*
X66668964Y21394971D01*
X66668964Y21394971D02*
X66704678Y21466400D01*
X66704678Y21466400D02*
X66740392Y21502114D01*
X66740392Y21502114D02*
X66811821Y21537828D01*
X66811821Y21537828D02*
X66883250Y21537828D01*
X66883250Y21537828D02*
X66954678Y21502114D01*
X66954678Y21502114D02*
X66990392Y21466400D01*
X66990392Y21466400D02*
X67026107Y21394971D01*
X67026107Y21394971D02*
X67026107Y21144971D01*
D11*
X57839321Y14596875D02*
X57875035Y14660685D01*
X57875035Y14660685D02*
X57875035Y14756399D01*
X57875035Y14756399D02*
X57839321Y14852113D01*
X57839321Y14852113D02*
X57767892Y14915923D01*
X57767892Y14915923D02*
X57696464Y14947828D01*
X57696464Y14947828D02*
X57553607Y14979732D01*
X57553607Y14979732D02*
X57446464Y14979732D01*
X57446464Y14979732D02*
X57303607Y14947828D01*
X57303607Y14947828D02*
X57232178Y14915923D01*
X57232178Y14915923D02*
X57160750Y14852113D01*
X57160750Y14852113D02*
X57125035Y14756399D01*
X57125035Y14756399D02*
X57125035Y14692590D01*
X57125035Y14692590D02*
X57160750Y14596875D01*
X57160750Y14596875D02*
X57196464Y14564971D01*
X57196464Y14564971D02*
X57446464Y14564971D01*
X57446464Y14564971D02*
X57446464Y14692590D01*
X57125035Y14277828D02*
X57875035Y14277828D01*
X57875035Y14277828D02*
X57125035Y13894971D01*
X57125035Y13894971D02*
X57875035Y13894971D01*
X57125035Y13575923D02*
X57875035Y13575923D01*
X57875035Y13575923D02*
X57875035Y13416399D01*
X57875035Y13416399D02*
X57839321Y13320685D01*
X57839321Y13320685D02*
X57767892Y13256875D01*
X57767892Y13256875D02*
X57696464Y13224970D01*
X57696464Y13224970D02*
X57553607Y13193066D01*
X57553607Y13193066D02*
X57446464Y13193066D01*
X57446464Y13193066D02*
X57303607Y13224970D01*
X57303607Y13224970D02*
X57232178Y13256875D01*
X57232178Y13256875D02*
X57160750Y13320685D01*
X57160750Y13320685D02*
X57125035Y13416399D01*
X57125035Y13416399D02*
X57125035Y13575923D01*
X52210750Y18074970D02*
X52175035Y17979256D01*
X52175035Y17979256D02*
X52175035Y17819732D01*
X52175035Y17819732D02*
X52210750Y17755923D01*
X52210750Y17755923D02*
X52246464Y17724018D01*
X52246464Y17724018D02*
X52317892Y17692113D01*
X52317892Y17692113D02*
X52389321Y17692113D01*
X52389321Y17692113D02*
X52460750Y17724018D01*
X52460750Y17724018D02*
X52496464Y17755923D01*
X52496464Y17755923D02*
X52532178Y17819732D01*
X52532178Y17819732D02*
X52567892Y17947351D01*
X52567892Y17947351D02*
X52603607Y18011161D01*
X52603607Y18011161D02*
X52639321Y18043066D01*
X52639321Y18043066D02*
X52710750Y18074970D01*
X52710750Y18074970D02*
X52782178Y18074970D01*
X52782178Y18074970D02*
X52853607Y18043066D01*
X52853607Y18043066D02*
X52889321Y18011161D01*
X52889321Y18011161D02*
X52925035Y17947351D01*
X52925035Y17947351D02*
X52925035Y17787828D01*
X52925035Y17787828D02*
X52889321Y17692113D01*
X52175035Y17404971D02*
X52925035Y17404971D01*
X52925035Y17404971D02*
X52925035Y17245447D01*
X52925035Y17245447D02*
X52889321Y17149733D01*
X52889321Y17149733D02*
X52817892Y17085923D01*
X52817892Y17085923D02*
X52746464Y17054018D01*
X52746464Y17054018D02*
X52603607Y17022114D01*
X52603607Y17022114D02*
X52496464Y17022114D01*
X52496464Y17022114D02*
X52353607Y17054018D01*
X52353607Y17054018D02*
X52282178Y17085923D01*
X52282178Y17085923D02*
X52210750Y17149733D01*
X52210750Y17149733D02*
X52175035Y17245447D01*
X52175035Y17245447D02*
X52175035Y17404971D01*
X52389321Y16766875D02*
X52389321Y16447828D01*
X52175035Y16830685D02*
X52925035Y16607352D01*
X52925035Y16607352D02*
X52175035Y16384018D01*
X52960750Y15682113D02*
X51996464Y16256399D01*
X52175035Y15458780D02*
X52925035Y15458780D01*
X52925035Y15458780D02*
X52925035Y15299256D01*
X52925035Y15299256D02*
X52889321Y15203542D01*
X52889321Y15203542D02*
X52817892Y15139732D01*
X52817892Y15139732D02*
X52746464Y15107827D01*
X52746464Y15107827D02*
X52603607Y15075923D01*
X52603607Y15075923D02*
X52496464Y15075923D01*
X52496464Y15075923D02*
X52353607Y15107827D01*
X52353607Y15107827D02*
X52282178Y15139732D01*
X52282178Y15139732D02*
X52210750Y15203542D01*
X52210750Y15203542D02*
X52175035Y15299256D01*
X52175035Y15299256D02*
X52175035Y15458780D01*
X52175035Y14437827D02*
X52175035Y14820684D01*
X52175035Y14629256D02*
X52925035Y14629256D01*
X52925035Y14629256D02*
X52817892Y14693065D01*
X52817892Y14693065D02*
X52746464Y14756875D01*
X52746464Y14756875D02*
X52710750Y14820684D01*
X52960750Y13672113D02*
X51996464Y14246399D01*
X52853607Y13480684D02*
X52889321Y13448780D01*
X52889321Y13448780D02*
X52925035Y13384970D01*
X52925035Y13384970D02*
X52925035Y13225446D01*
X52925035Y13225446D02*
X52889321Y13161637D01*
X52889321Y13161637D02*
X52853607Y13129732D01*
X52853607Y13129732D02*
X52782178Y13097827D01*
X52782178Y13097827D02*
X52710750Y13097827D01*
X52710750Y13097827D02*
X52603607Y13129732D01*
X52603607Y13129732D02*
X52175035Y13512589D01*
X52175035Y13512589D02*
X52175035Y13097827D01*
X60439321Y24546875D02*
X60475035Y24610685D01*
X60475035Y24610685D02*
X60475035Y24706399D01*
X60475035Y24706399D02*
X60439321Y24802113D01*
X60439321Y24802113D02*
X60367892Y24865923D01*
X60367892Y24865923D02*
X60296464Y24897828D01*
X60296464Y24897828D02*
X60153607Y24929732D01*
X60153607Y24929732D02*
X60046464Y24929732D01*
X60046464Y24929732D02*
X59903607Y24897828D01*
X59903607Y24897828D02*
X59832178Y24865923D01*
X59832178Y24865923D02*
X59760750Y24802113D01*
X59760750Y24802113D02*
X59725035Y24706399D01*
X59725035Y24706399D02*
X59725035Y24642590D01*
X59725035Y24642590D02*
X59760750Y24546875D01*
X59760750Y24546875D02*
X59796464Y24514971D01*
X59796464Y24514971D02*
X60046464Y24514971D01*
X60046464Y24514971D02*
X60046464Y24642590D01*
X59725035Y24227828D02*
X60475035Y24227828D01*
X60475035Y24227828D02*
X59725035Y23844971D01*
X59725035Y23844971D02*
X60475035Y23844971D01*
X59725035Y23525923D02*
X60475035Y23525923D01*
X60475035Y23525923D02*
X60475035Y23366399D01*
X60475035Y23366399D02*
X60439321Y23270685D01*
X60439321Y23270685D02*
X60367892Y23206875D01*
X60367892Y23206875D02*
X60296464Y23174970D01*
X60296464Y23174970D02*
X60153607Y23143066D01*
X60153607Y23143066D02*
X60046464Y23143066D01*
X60046464Y23143066D02*
X59903607Y23174970D01*
X59903607Y23174970D02*
X59832178Y23206875D01*
X59832178Y23206875D02*
X59760750Y23270685D01*
X59760750Y23270685D02*
X59725035Y23366399D01*
X59725035Y23366399D02*
X59725035Y23525923D01*
X49739321Y24872113D02*
X49739321Y24553066D01*
X49525035Y24935923D02*
X50275035Y24712590D01*
X50275035Y24712590D02*
X49525035Y24489256D01*
X50203607Y24297827D02*
X50239321Y24265923D01*
X50239321Y24265923D02*
X50275035Y24202113D01*
X50275035Y24202113D02*
X50275035Y24042589D01*
X50275035Y24042589D02*
X50239321Y23978780D01*
X50239321Y23978780D02*
X50203607Y23946875D01*
X50203607Y23946875D02*
X50132178Y23914970D01*
X50132178Y23914970D02*
X50060750Y23914970D01*
X50060750Y23914970D02*
X49953607Y23946875D01*
X49953607Y23946875D02*
X49525035Y24329732D01*
X49525035Y24329732D02*
X49525035Y23914970D01*
X50310750Y23149256D02*
X49346464Y23723542D01*
X49917892Y22702589D02*
X49917892Y22925923D01*
X49525035Y22925923D02*
X50275035Y22925923D01*
X50275035Y22925923D02*
X50275035Y22606875D01*
X50275035Y22032589D02*
X50275035Y22351637D01*
X50275035Y22351637D02*
X49917892Y22383541D01*
X49917892Y22383541D02*
X49953607Y22351637D01*
X49953607Y22351637D02*
X49989321Y22287827D01*
X49989321Y22287827D02*
X49989321Y22128303D01*
X49989321Y22128303D02*
X49953607Y22064494D01*
X49953607Y22064494D02*
X49917892Y22032589D01*
X49917892Y22032589D02*
X49846464Y22000684D01*
X49846464Y22000684D02*
X49667892Y22000684D01*
X49667892Y22000684D02*
X49596464Y22032589D01*
X49596464Y22032589D02*
X49560750Y22064494D01*
X49560750Y22064494D02*
X49525035Y22128303D01*
X49525035Y22128303D02*
X49525035Y22287827D01*
X49525035Y22287827D02*
X49560750Y22351637D01*
X49560750Y22351637D02*
X49596464Y22383541D01*
X47175035Y15500923D02*
X47925035Y15500923D01*
X47925035Y15500923D02*
X47925035Y15341399D01*
X47925035Y15341399D02*
X47889321Y15245685D01*
X47889321Y15245685D02*
X47817892Y15181875D01*
X47817892Y15181875D02*
X47746464Y15149970D01*
X47746464Y15149970D02*
X47603607Y15118066D01*
X47603607Y15118066D02*
X47496464Y15118066D01*
X47496464Y15118066D02*
X47353607Y15149970D01*
X47353607Y15149970D02*
X47282178Y15181875D01*
X47282178Y15181875D02*
X47210750Y15245685D01*
X47210750Y15245685D02*
X47175035Y15341399D01*
X47175035Y15341399D02*
X47175035Y15500923D01*
X47675035Y14543780D02*
X47175035Y14543780D01*
X47960750Y14703304D02*
X47425035Y14862827D01*
X47425035Y14862827D02*
X47425035Y14448066D01*
X47960750Y13714256D02*
X46996464Y14288542D01*
X47675035Y13203780D02*
X47175035Y13203780D01*
X47960750Y13363304D02*
X47425035Y13522827D01*
X47425035Y13522827D02*
X47425035Y13108066D01*
X41925035Y24569018D02*
X41925035Y24951875D01*
X41925035Y24760447D02*
X42675035Y24760447D01*
X42675035Y24760447D02*
X42567892Y24824256D01*
X42567892Y24824256D02*
X42496464Y24888066D01*
X42496464Y24888066D02*
X42460750Y24951875D01*
X42675035Y23962828D02*
X42675035Y24281876D01*
X42675035Y24281876D02*
X42317892Y24313780D01*
X42317892Y24313780D02*
X42353607Y24281876D01*
X42353607Y24281876D02*
X42389321Y24218066D01*
X42389321Y24218066D02*
X42389321Y24058542D01*
X42389321Y24058542D02*
X42353607Y23994733D01*
X42353607Y23994733D02*
X42317892Y23962828D01*
X42317892Y23962828D02*
X42246464Y23930923D01*
X42246464Y23930923D02*
X42067892Y23930923D01*
X42067892Y23930923D02*
X41996464Y23962828D01*
X41996464Y23962828D02*
X41960750Y23994733D01*
X41960750Y23994733D02*
X41925035Y24058542D01*
X41925035Y24058542D02*
X41925035Y24218066D01*
X41925035Y24218066D02*
X41960750Y24281876D01*
X41960750Y24281876D02*
X41996464Y24313780D01*
X42710750Y23165209D02*
X41746464Y23739495D01*
X42317892Y22718542D02*
X42282178Y22622828D01*
X42282178Y22622828D02*
X42246464Y22590923D01*
X42246464Y22590923D02*
X42175035Y22559019D01*
X42175035Y22559019D02*
X42067892Y22559019D01*
X42067892Y22559019D02*
X41996464Y22590923D01*
X41996464Y22590923D02*
X41960750Y22622828D01*
X41960750Y22622828D02*
X41925035Y22686638D01*
X41925035Y22686638D02*
X41925035Y22941876D01*
X41925035Y22941876D02*
X42675035Y22941876D01*
X42675035Y22941876D02*
X42675035Y22718542D01*
X42675035Y22718542D02*
X42639321Y22654733D01*
X42639321Y22654733D02*
X42603607Y22622828D01*
X42603607Y22622828D02*
X42532178Y22590923D01*
X42532178Y22590923D02*
X42460750Y22590923D01*
X42460750Y22590923D02*
X42389321Y22622828D01*
X42389321Y22622828D02*
X42353607Y22654733D01*
X42353607Y22654733D02*
X42317892Y22718542D01*
X42317892Y22718542D02*
X42317892Y22941876D01*
X41925035Y21920923D02*
X41925035Y22303780D01*
X41925035Y22112352D02*
X42675035Y22112352D01*
X42675035Y22112352D02*
X42567892Y22176161D01*
X42567892Y22176161D02*
X42496464Y22239971D01*
X42496464Y22239971D02*
X42460750Y22303780D01*
X47239321Y24872113D02*
X47239321Y24553066D01*
X47025035Y24935923D02*
X47775035Y24712590D01*
X47775035Y24712590D02*
X47025035Y24489256D01*
X47025035Y23914970D02*
X47025035Y24297827D01*
X47025035Y24106399D02*
X47775035Y24106399D01*
X47775035Y24106399D02*
X47667892Y24170208D01*
X47667892Y24170208D02*
X47596464Y24234018D01*
X47596464Y24234018D02*
X47560750Y24297827D01*
X47810750Y23149256D02*
X46846464Y23723542D01*
X47417892Y22702589D02*
X47417892Y22925923D01*
X47025035Y22925923D02*
X47775035Y22925923D01*
X47775035Y22925923D02*
X47775035Y22606875D01*
X47775035Y22064494D02*
X47775035Y22192113D01*
X47775035Y22192113D02*
X47739321Y22255922D01*
X47739321Y22255922D02*
X47703607Y22287827D01*
X47703607Y22287827D02*
X47596464Y22351637D01*
X47596464Y22351637D02*
X47453607Y22383541D01*
X47453607Y22383541D02*
X47167892Y22383541D01*
X47167892Y22383541D02*
X47096464Y22351637D01*
X47096464Y22351637D02*
X47060750Y22319732D01*
X47060750Y22319732D02*
X47025035Y22255922D01*
X47025035Y22255922D02*
X47025035Y22128303D01*
X47025035Y22128303D02*
X47060750Y22064494D01*
X47060750Y22064494D02*
X47096464Y22032589D01*
X47096464Y22032589D02*
X47167892Y22000684D01*
X47167892Y22000684D02*
X47346464Y22000684D01*
X47346464Y22000684D02*
X47417892Y22032589D01*
X47417892Y22032589D02*
X47453607Y22064494D01*
X47453607Y22064494D02*
X47489321Y22128303D01*
X47489321Y22128303D02*
X47489321Y22255922D01*
X47489321Y22255922D02*
X47453607Y22319732D01*
X47453607Y22319732D02*
X47417892Y22351637D01*
X47417892Y22351637D02*
X47346464Y22383541D01*
X39375035Y24569018D02*
X39375035Y24951875D01*
X39375035Y24760447D02*
X40125035Y24760447D01*
X40125035Y24760447D02*
X40017892Y24824256D01*
X40017892Y24824256D02*
X39946464Y24888066D01*
X39946464Y24888066D02*
X39910750Y24951875D01*
X39875035Y23994733D02*
X39375035Y23994733D01*
X40160750Y24154257D02*
X39625035Y24313780D01*
X39625035Y24313780D02*
X39625035Y23899019D01*
X40160750Y23165209D02*
X39196464Y23739495D01*
X39767892Y22718542D02*
X39732178Y22622828D01*
X39732178Y22622828D02*
X39696464Y22590923D01*
X39696464Y22590923D02*
X39625035Y22559019D01*
X39625035Y22559019D02*
X39517892Y22559019D01*
X39517892Y22559019D02*
X39446464Y22590923D01*
X39446464Y22590923D02*
X39410750Y22622828D01*
X39410750Y22622828D02*
X39375035Y22686638D01*
X39375035Y22686638D02*
X39375035Y22941876D01*
X39375035Y22941876D02*
X40125035Y22941876D01*
X40125035Y22941876D02*
X40125035Y22718542D01*
X40125035Y22718542D02*
X40089321Y22654733D01*
X40089321Y22654733D02*
X40053607Y22622828D01*
X40053607Y22622828D02*
X39982178Y22590923D01*
X39982178Y22590923D02*
X39910750Y22590923D01*
X39910750Y22590923D02*
X39839321Y22622828D01*
X39839321Y22622828D02*
X39803607Y22654733D01*
X39803607Y22654733D02*
X39767892Y22718542D01*
X39767892Y22718542D02*
X39767892Y22941876D01*
X40125035Y22335685D02*
X40125035Y21920923D01*
X40125035Y21920923D02*
X39839321Y22144257D01*
X39839321Y22144257D02*
X39839321Y22048542D01*
X39839321Y22048542D02*
X39803607Y21984733D01*
X39803607Y21984733D02*
X39767892Y21952828D01*
X39767892Y21952828D02*
X39696464Y21920923D01*
X39696464Y21920923D02*
X39517892Y21920923D01*
X39517892Y21920923D02*
X39446464Y21952828D01*
X39446464Y21952828D02*
X39410750Y21984733D01*
X39410750Y21984733D02*
X39375035Y22048542D01*
X39375035Y22048542D02*
X39375035Y22239971D01*
X39375035Y22239971D02*
X39410750Y22303780D01*
X39410750Y22303780D02*
X39446464Y22335685D01*
X37367892Y15277589D02*
X37332178Y15181875D01*
X37332178Y15181875D02*
X37296464Y15149970D01*
X37296464Y15149970D02*
X37225035Y15118066D01*
X37225035Y15118066D02*
X37117892Y15118066D01*
X37117892Y15118066D02*
X37046464Y15149970D01*
X37046464Y15149970D02*
X37010750Y15181875D01*
X37010750Y15181875D02*
X36975035Y15245685D01*
X36975035Y15245685D02*
X36975035Y15500923D01*
X36975035Y15500923D02*
X37725035Y15500923D01*
X37725035Y15500923D02*
X37725035Y15277589D01*
X37725035Y15277589D02*
X37689321Y15213780D01*
X37689321Y15213780D02*
X37653607Y15181875D01*
X37653607Y15181875D02*
X37582178Y15149970D01*
X37582178Y15149970D02*
X37510750Y15149970D01*
X37510750Y15149970D02*
X37439321Y15181875D01*
X37439321Y15181875D02*
X37403607Y15213780D01*
X37403607Y15213780D02*
X37367892Y15277589D01*
X37367892Y15277589D02*
X37367892Y15500923D01*
X37475035Y14543780D02*
X36975035Y14543780D01*
X37760750Y14703304D02*
X37225035Y14862827D01*
X37225035Y14862827D02*
X37225035Y14448066D01*
X37760750Y13714256D02*
X36796464Y14288542D01*
X37403607Y13395208D02*
X37439321Y13459018D01*
X37439321Y13459018D02*
X37475035Y13490923D01*
X37475035Y13490923D02*
X37546464Y13522827D01*
X37546464Y13522827D02*
X37582178Y13522827D01*
X37582178Y13522827D02*
X37653607Y13490923D01*
X37653607Y13490923D02*
X37689321Y13459018D01*
X37689321Y13459018D02*
X37725035Y13395208D01*
X37725035Y13395208D02*
X37725035Y13267589D01*
X37725035Y13267589D02*
X37689321Y13203780D01*
X37689321Y13203780D02*
X37653607Y13171875D01*
X37653607Y13171875D02*
X37582178Y13139970D01*
X37582178Y13139970D02*
X37546464Y13139970D01*
X37546464Y13139970D02*
X37475035Y13171875D01*
X37475035Y13171875D02*
X37439321Y13203780D01*
X37439321Y13203780D02*
X37403607Y13267589D01*
X37403607Y13267589D02*
X37403607Y13395208D01*
X37403607Y13395208D02*
X37367892Y13459018D01*
X37367892Y13459018D02*
X37332178Y13490923D01*
X37332178Y13490923D02*
X37260750Y13522827D01*
X37260750Y13522827D02*
X37117892Y13522827D01*
X37117892Y13522827D02*
X37046464Y13490923D01*
X37046464Y13490923D02*
X37010750Y13459018D01*
X37010750Y13459018D02*
X36975035Y13395208D01*
X36975035Y13395208D02*
X36975035Y13267589D01*
X36975035Y13267589D02*
X37010750Y13203780D01*
X37010750Y13203780D02*
X37046464Y13171875D01*
X37046464Y13171875D02*
X37117892Y13139970D01*
X37117892Y13139970D02*
X37260750Y13139970D01*
X37260750Y13139970D02*
X37332178Y13171875D01*
X37332178Y13171875D02*
X37367892Y13203780D01*
X37367892Y13203780D02*
X37403607Y13267589D01*
X36825035Y24569018D02*
X36825035Y24951875D01*
X36825035Y24760447D02*
X37575035Y24760447D01*
X37575035Y24760447D02*
X37467892Y24824256D01*
X37467892Y24824256D02*
X37396464Y24888066D01*
X37396464Y24888066D02*
X37360750Y24951875D01*
X37575035Y23994733D02*
X37575035Y24122352D01*
X37575035Y24122352D02*
X37539321Y24186161D01*
X37539321Y24186161D02*
X37503607Y24218066D01*
X37503607Y24218066D02*
X37396464Y24281876D01*
X37396464Y24281876D02*
X37253607Y24313780D01*
X37253607Y24313780D02*
X36967892Y24313780D01*
X36967892Y24313780D02*
X36896464Y24281876D01*
X36896464Y24281876D02*
X36860750Y24249971D01*
X36860750Y24249971D02*
X36825035Y24186161D01*
X36825035Y24186161D02*
X36825035Y24058542D01*
X36825035Y24058542D02*
X36860750Y23994733D01*
X36860750Y23994733D02*
X36896464Y23962828D01*
X36896464Y23962828D02*
X36967892Y23930923D01*
X36967892Y23930923D02*
X37146464Y23930923D01*
X37146464Y23930923D02*
X37217892Y23962828D01*
X37217892Y23962828D02*
X37253607Y23994733D01*
X37253607Y23994733D02*
X37289321Y24058542D01*
X37289321Y24058542D02*
X37289321Y24186161D01*
X37289321Y24186161D02*
X37253607Y24249971D01*
X37253607Y24249971D02*
X37217892Y24281876D01*
X37217892Y24281876D02*
X37146464Y24313780D01*
X37610750Y23165209D02*
X36646464Y23739495D01*
X37217892Y22718542D02*
X37182178Y22622828D01*
X37182178Y22622828D02*
X37146464Y22590923D01*
X37146464Y22590923D02*
X37075035Y22559019D01*
X37075035Y22559019D02*
X36967892Y22559019D01*
X36967892Y22559019D02*
X36896464Y22590923D01*
X36896464Y22590923D02*
X36860750Y22622828D01*
X36860750Y22622828D02*
X36825035Y22686638D01*
X36825035Y22686638D02*
X36825035Y22941876D01*
X36825035Y22941876D02*
X37575035Y22941876D01*
X37575035Y22941876D02*
X37575035Y22718542D01*
X37575035Y22718542D02*
X37539321Y22654733D01*
X37539321Y22654733D02*
X37503607Y22622828D01*
X37503607Y22622828D02*
X37432178Y22590923D01*
X37432178Y22590923D02*
X37360750Y22590923D01*
X37360750Y22590923D02*
X37289321Y22622828D01*
X37289321Y22622828D02*
X37253607Y22654733D01*
X37253607Y22654733D02*
X37217892Y22718542D01*
X37217892Y22718542D02*
X37217892Y22941876D01*
X37503607Y22303780D02*
X37539321Y22271876D01*
X37539321Y22271876D02*
X37575035Y22208066D01*
X37575035Y22208066D02*
X37575035Y22048542D01*
X37575035Y22048542D02*
X37539321Y21984733D01*
X37539321Y21984733D02*
X37503607Y21952828D01*
X37503607Y21952828D02*
X37432178Y21920923D01*
X37432178Y21920923D02*
X37360750Y21920923D01*
X37360750Y21920923D02*
X37253607Y21952828D01*
X37253607Y21952828D02*
X36825035Y22335685D01*
X36825035Y22335685D02*
X36825035Y21920923D01*
D10*
%TO.C,SW21*%
X28292619Y17177618D02*
X27816428Y16844285D01*
X28292619Y16606190D02*
X27292619Y16606190D01*
X27292619Y16606190D02*
X27292619Y16987142D01*
X27292619Y16987142D02*
X27340238Y17082380D01*
X27340238Y17082380D02*
X27387857Y17129999D01*
X27387857Y17129999D02*
X27483095Y17177618D01*
X27483095Y17177618D02*
X27625952Y17177618D01*
X27625952Y17177618D02*
X27721190Y17129999D01*
X27721190Y17129999D02*
X27768809Y17082380D01*
X27768809Y17082380D02*
X27816428Y16987142D01*
X27816428Y16987142D02*
X27816428Y16606190D01*
X27768809Y17606190D02*
X27768809Y17939523D01*
X28292619Y18082380D02*
X28292619Y17606190D01*
X28292619Y17606190D02*
X27292619Y17606190D01*
X27292619Y17606190D02*
X27292619Y18082380D01*
X28245000Y18463333D02*
X28292619Y18606190D01*
X28292619Y18606190D02*
X28292619Y18844285D01*
X28292619Y18844285D02*
X28245000Y18939523D01*
X28245000Y18939523D02*
X28197380Y18987142D01*
X28197380Y18987142D02*
X28102142Y19034761D01*
X28102142Y19034761D02*
X28006904Y19034761D01*
X28006904Y19034761D02*
X27911666Y18987142D01*
X27911666Y18987142D02*
X27864047Y18939523D01*
X27864047Y18939523D02*
X27816428Y18844285D01*
X27816428Y18844285D02*
X27768809Y18653809D01*
X27768809Y18653809D02*
X27721190Y18558571D01*
X27721190Y18558571D02*
X27673571Y18510952D01*
X27673571Y18510952D02*
X27578333Y18463333D01*
X27578333Y18463333D02*
X27483095Y18463333D01*
X27483095Y18463333D02*
X27387857Y18510952D01*
X27387857Y18510952D02*
X27340238Y18558571D01*
X27340238Y18558571D02*
X27292619Y18653809D01*
X27292619Y18653809D02*
X27292619Y18891904D01*
X27292619Y18891904D02*
X27340238Y19034761D01*
X27768809Y19463333D02*
X27768809Y19796666D01*
X28292619Y19939523D02*
X28292619Y19463333D01*
X28292619Y19463333D02*
X27292619Y19463333D01*
X27292619Y19463333D02*
X27292619Y19939523D01*
X27292619Y20225238D02*
X27292619Y20796666D01*
X28292619Y20510952D02*
X27292619Y20510952D01*
%TO.C,J1*%
X10260000Y16620000D02*
X10260000Y22620000D01*
X22260000Y16620000D02*
X10260000Y16620000D01*
X10260000Y22620000D02*
X22260000Y22620000D01*
X22260000Y22620000D02*
X22260000Y16620000D01*
%TO.C,U1*%
X63722000Y27791400D02*
X62872000Y27791400D01*
X63722000Y27791400D02*
X63722000Y26941400D01*
X34422000Y27791400D02*
X33522000Y27791400D01*
X33522000Y27791400D02*
X33522000Y26941400D01*
X69322000Y22791400D02*
X68022000Y22791400D01*
X68022000Y22791400D02*
X68022000Y15291400D01*
X68972000Y19541400D02*
X68972000Y18541400D01*
X68822000Y19391400D02*
X68822000Y18691400D01*
X68672000Y19291400D02*
X68672000Y18791400D01*
X68522000Y19191400D02*
X68522000Y18891400D01*
X68322000Y19041400D02*
X68972000Y19541400D01*
X68972000Y18541400D02*
X68322000Y19041400D01*
X69322000Y15291400D02*
X69322000Y22791400D01*
X68022000Y15291400D02*
X69322000Y15291400D01*
X63722000Y10291400D02*
X63722000Y11091400D01*
X63722000Y10291400D02*
X62872000Y10291400D01*
X34372000Y10291400D02*
X33522000Y10291400D01*
X33522000Y10291400D02*
X33522000Y11151400D01*
%TO.C,SW21*%
X29580000Y21630000D02*
X29330000Y21630000D01*
X29580000Y21630000D02*
X29580000Y15630000D01*
X26080000Y21630000D02*
X26330000Y21630000D01*
X26080000Y21630000D02*
X26080000Y15630000D01*
X29580000Y15630000D02*
X29330000Y15630000D01*
X26080000Y15630000D02*
X26330000Y15630000D01*
%TD*%
D13*
%TO.C,J1*%
X11760000Y17870000D03*
X18760000Y17870000D03*
X11760000Y19620000D03*
X18760000Y19620000D03*
D14*
X22060000Y17520000D03*
X22060000Y19970000D03*
X13560000Y15770000D03*
X13560000Y21720000D03*
X16560000Y15770000D03*
X16560000Y21720000D03*
X20560000Y15770000D03*
X20560000Y21720000D03*
%TD*%
D15*
%TO.C,SW21*%
X27830000Y15380000D03*
X27830000Y21880000D03*
%TD*%
M02*
