M48
; DRILL file {KiCad 7.0.1-0} date 2023 August 16, Wednesday 18:46:36
; FORMAT={-:-/ absolute / metric / decimal}
; #@! TF.CreationDate,2023-08-16T18:46:36+09:00
; #@! TF.GenerationSoftware,Kicad,Pcbnew,7.0.1-0
; #@! TF.FileFunction,Plated,1,2,PTH
FMAT,2
METRIC
; #@! TA.AperFunction,Plated,PTH,ViaDrill
T1C0.400
; #@! TA.AperFunction,Plated,PTH,ComponentDrill
T2C0.813
; #@! TA.AperFunction,Plated,PTH,ComponentDrill
T3C1.000
; #@! TA.AperFunction,Plated,PTH,ComponentDrill
T4C1.300
%
G90
G05
T1
X27.81Y-64.32
X27.82Y4.64
X28.97Y4.72
X28.98Y-45.255
X46.22Y2.49
X46.22Y-25.84
T2
X-3.15Y-65.3
X-2.97Y-8.51
X-2.95Y-27.34
X-2.93Y-46.64
X2.85Y-65.3
X3.03Y-8.51
X3.05Y-27.34
X3.07Y-46.64
X16.061Y-65.43
X16.13Y-8.24
X16.142Y-46.23
X16.18Y-27.485
X22.061Y-65.43
X22.13Y-8.24
X22.142Y-46.23
X22.18Y-27.485
X34.66Y26.65
X34.66Y11.43
X35.215Y-46.538
X35.23Y-8.24
X35.273Y-65.43
X35.31Y-27.05
X37.2Y26.65
X37.2Y11.43
X39.74Y26.65
X39.74Y11.43
X41.215Y-46.538
X41.23Y-8.24
X41.273Y-65.43
X41.31Y-27.05
X42.28Y26.65
X42.28Y11.43
X44.82Y26.65
X44.82Y11.43
X47.36Y26.65
X47.36Y11.43
X49.9Y26.65
X49.9Y11.43
X52.44Y26.65
X52.44Y11.43
X54.287Y-46.435
X54.33Y-8.24
X54.44Y-27.63
X54.484Y-65.3
X54.98Y26.65
X54.98Y11.43
X57.52Y26.65
X57.52Y11.43
X60.06Y26.65
X60.06Y11.43
X60.287Y-46.435
X60.33Y-8.24
X60.44Y-27.63
X60.484Y-65.3
X62.6Y26.65
X62.6Y11.43
X73.36Y-46.332
X73.43Y-8.3
X73.57Y-27.195
X73.695Y-65.43
X79.36Y-46.332
X79.43Y-8.3
X79.57Y-27.195
X79.695Y-65.43
T4
X27.83Y21.88
X27.83Y15.38
T3
G00X13.31Y21.72
M15
G01X13.81Y21.72
M16
G05
G00X13.31Y15.77
M15
G01X13.81Y15.77
M16
G05
G00X16.31Y21.72
M15
G01X16.81Y21.72
M16
G05
G00X16.31Y15.77
M15
G01X16.81Y15.77
M16
G05
G00X20.31Y21.72
M15
G01X20.81Y21.72
M16
G05
G00X20.31Y15.77
M15
G01X20.81Y15.77
M16
G05
G00X21.81Y19.97
M15
G01X22.31Y19.97
M16
G05
G00X21.81Y17.52
M15
G01X22.31Y17.52
M16
G05
T0
M30
