%TF.GenerationSoftware,KiCad,Pcbnew,7.0.1-0*%
%TF.CreationDate,2023-08-16T18:46:33+09:00*%
%TF.ProjectId,jisaku20,6a697361-6b75-4323-902e-6b696361645f,rev?*%
%TF.SameCoordinates,Original*%
%TF.FileFunction,Copper,L1,Top*%
%TF.FilePolarity,Positive*%
%FSLAX46Y46*%
G04 Gerber Fmt 4.6, Leading zero omitted, Abs format (unit mm)*
G04 Created by KiCad (PCBNEW 7.0.1-0) date 2023-08-16 18:46:33*
%MOMM*%
%LPD*%
G01*
G04 APERTURE LIST*
%TA.AperFunction,ComponentPad*%
%ADD10O,2.500000X1.700000*%
%TD*%
%TA.AperFunction,ComponentPad*%
%ADD11C,1.524000*%
%TD*%
%TA.AperFunction,ComponentPad*%
%ADD12C,2.000000*%
%TD*%
%TA.AperFunction,ComponentPad*%
%ADD13R,1.778000X1.300000*%
%TD*%
%TA.AperFunction,ComponentPad*%
%ADD14O,1.778000X1.300000*%
%TD*%
%TA.AperFunction,ViaPad*%
%ADD15C,0.800000*%
%TD*%
%TA.AperFunction,Conductor*%
%ADD16C,0.250000*%
%TD*%
G04 APERTURE END LIST*
D10*
%TO.P,J1,A*%
%TO.N,unconnected-(J1-PadA)*%
X22060000Y17520000D03*
X22060000Y19970000D03*
%TO.P,J1,B*%
%TO.N,data*%
X13560000Y15770000D03*
X13560000Y21720000D03*
%TO.P,J1,C*%
%TO.N,GND*%
X16560000Y15770000D03*
X16560000Y21720000D03*
%TO.P,J1,D*%
%TO.N,VCC*%
X20560000Y15770000D03*
X20560000Y21720000D03*
%TD*%
D11*
%TO.P,U1,1,TX0/D3*%
%TO.N,unconnected-(U1-TX0{slash}D3-Pad1)*%
X62600000Y11430000D03*
%TO.P,U1,2,RX1/D2*%
%TO.N,data*%
X60060000Y11430000D03*
%TO.P,U1,3,GND*%
%TO.N,GND*%
X57520000Y11430000D03*
%TO.P,U1,4,GND*%
X54980000Y11430000D03*
%TO.P,U1,5,2/D1/SDA*%
%TO.N,unconnected-(U1-2{slash}D1{slash}SDA-Pad5)*%
X52440000Y11430000D03*
%TO.P,U1,6,3/D0/SCL*%
%TO.N,unconnected-(U1-3{slash}D0{slash}SCL-Pad6)*%
X49900000Y11430000D03*
%TO.P,U1,7,4/D4*%
%TO.N,unconnected-(U1-4{slash}D4-Pad7)*%
X47360000Y11430000D03*
%TO.P,U1,8,5/C6*%
%TO.N,col4*%
X44820000Y11430000D03*
%TO.P,U1,9,6/D7*%
%TO.N,col3*%
X42280000Y11430000D03*
%TO.P,U1,10,7/E6*%
%TO.N,col2*%
X39740000Y11430000D03*
%TO.P,U1,11,8/B4*%
%TO.N,col1*%
X37200000Y11430000D03*
%TO.P,U1,12,9/B5*%
%TO.N,col0*%
X34660000Y11430000D03*
%TO.P,U1,13,B6/10*%
%TO.N,unconnected-(U1-B6{slash}10-Pad13)*%
X34660000Y26650000D03*
%TO.P,U1,14,B2/16*%
%TO.N,unconnected-(U1-B2{slash}16-Pad14)*%
X37200000Y26650000D03*
%TO.P,U1,15,B3/14*%
%TO.N,unconnected-(U1-B3{slash}14-Pad15)*%
X39740000Y26650000D03*
%TO.P,U1,16,B1/15*%
%TO.N,unconnected-(U1-B1{slash}15-Pad16)*%
X42280000Y26650000D03*
%TO.P,U1,17,F7/A0*%
%TO.N,row3*%
X44820000Y26650000D03*
%TO.P,U1,18,F6/A1*%
%TO.N,row2*%
X47360000Y26650000D03*
%TO.P,U1,19,F5/A2*%
%TO.N,row1*%
X49900000Y26650000D03*
%TO.P,U1,20,F4/A3*%
%TO.N,row0*%
X52440000Y26650000D03*
%TO.P,U1,21,VCC*%
%TO.N,VCC*%
X54980000Y26650000D03*
%TO.P,U1,22,RST*%
%TO.N,reset*%
X57520000Y26650000D03*
%TO.P,U1,23,GND*%
%TO.N,GND*%
X60060000Y26650000D03*
%TO.P,U1,24,RAW*%
%TO.N,unconnected-(U1-RAW-Pad24)*%
X62600000Y26650000D03*
%TD*%
D12*
%TO.P,SW21,1,1*%
%TO.N,reset*%
X27830000Y15380000D03*
%TO.P,SW21,2,2*%
%TO.N,GND*%
X27830000Y21880000D03*
%TD*%
D13*
%TO.P,D15,1,K*%
%TO.N,row2*%
X73360000Y-46332500D03*
D14*
%TO.P,D15,2,A*%
%TO.N,Net-(D15-A)*%
X79360000Y-46332500D03*
%TD*%
D13*
%TO.P,D11,1,K*%
%TO.N,row2*%
X-2930000Y-46640000D03*
D14*
%TO.P,D11,2,A*%
%TO.N,Net-(D11-A)*%
X3070000Y-46640000D03*
%TD*%
D13*
%TO.P,D4,1,K*%
%TO.N,row0*%
X54330000Y-8240000D03*
D14*
%TO.P,D4,2,A*%
%TO.N,Net-(D4-A)*%
X60330000Y-8240000D03*
%TD*%
D13*
%TO.P,D6,1,K*%
%TO.N,row1*%
X-2950000Y-27340000D03*
D14*
%TO.P,D6,2,A*%
%TO.N,Net-(D6-A)*%
X3050000Y-27340000D03*
%TD*%
D13*
%TO.P,D9,1,K*%
%TO.N,row1*%
X54440000Y-27630000D03*
D14*
%TO.P,D9,2,A*%
%TO.N,Net-(D9-A)*%
X60440000Y-27630000D03*
%TD*%
D13*
%TO.P,D8,1,K*%
%TO.N,row1*%
X35310000Y-27050000D03*
D14*
%TO.P,D8,2,A*%
%TO.N,Net-(D8-A)*%
X41310000Y-27050000D03*
%TD*%
D13*
%TO.P,D20,1,K*%
%TO.N,row3*%
X73695000Y-65430000D03*
D14*
%TO.P,D20,2,A*%
%TO.N,Net-(D20-A)*%
X79695000Y-65430000D03*
%TD*%
D13*
%TO.P,D17,1,K*%
%TO.N,row3*%
X16061250Y-65430000D03*
D14*
%TO.P,D17,2,A*%
%TO.N,Net-(D17-A)*%
X22061250Y-65430000D03*
%TD*%
D13*
%TO.P,D12,1,K*%
%TO.N,row2*%
X16142500Y-46230000D03*
D14*
%TO.P,D12,2,A*%
%TO.N,Net-(D12-A)*%
X22142500Y-46230000D03*
%TD*%
D13*
%TO.P,D10,1,K*%
%TO.N,row1*%
X73570000Y-27195000D03*
D14*
%TO.P,D10,2,A*%
%TO.N,Net-(D10-A)*%
X79570000Y-27195000D03*
%TD*%
D13*
%TO.P,D5,1,K*%
%TO.N,row0*%
X73430000Y-8300000D03*
D14*
%TO.P,D5,2,A*%
%TO.N,Net-(D5-A)*%
X79430000Y-8300000D03*
%TD*%
D13*
%TO.P,D13,1,K*%
%TO.N,row2*%
X35215000Y-46537500D03*
D14*
%TO.P,D13,2,A*%
%TO.N,Net-(D13-A)*%
X41215000Y-46537500D03*
%TD*%
D13*
%TO.P,D1,1,K*%
%TO.N,row0*%
X-2970000Y-8510000D03*
D14*
%TO.P,D1,2,A*%
%TO.N,Net-(D1-A)*%
X3030000Y-8510000D03*
%TD*%
D13*
%TO.P,D14,1,K*%
%TO.N,row2*%
X54287500Y-46435000D03*
D14*
%TO.P,D14,2,A*%
%TO.N,Net-(D14-A)*%
X60287500Y-46435000D03*
%TD*%
D13*
%TO.P,D7,1,K*%
%TO.N,row1*%
X16180000Y-27485000D03*
D14*
%TO.P,D7,2,A*%
%TO.N,Net-(D7-A)*%
X22180000Y-27485000D03*
%TD*%
D13*
%TO.P,D3,1,K*%
%TO.N,row0*%
X35230000Y-8240000D03*
D14*
%TO.P,D3,2,A*%
%TO.N,Net-(D3-A)*%
X41230000Y-8240000D03*
%TD*%
D13*
%TO.P,D19,1,K*%
%TO.N,row3*%
X54483750Y-65300000D03*
D14*
%TO.P,D19,2,A*%
%TO.N,Net-(D19-A)*%
X60483750Y-65300000D03*
%TD*%
D13*
%TO.P,D18,1,K*%
%TO.N,row3*%
X35272500Y-65430000D03*
D14*
%TO.P,D18,2,A*%
%TO.N,Net-(D18-A)*%
X41272500Y-65430000D03*
%TD*%
D13*
%TO.P,D16,1,K*%
%TO.N,row3*%
X-3150000Y-65300000D03*
D14*
%TO.P,D16,2,A*%
%TO.N,Net-(D16-A)*%
X2850000Y-65300000D03*
%TD*%
D13*
%TO.P,D2,1,K*%
%TO.N,row0*%
X16130000Y-8240000D03*
D14*
%TO.P,D2,2,A*%
%TO.N,Net-(D2-A)*%
X22130000Y-8240000D03*
%TD*%
D15*
%TO.N,row1*%
X46220000Y2490000D03*
X46220000Y-25840000D03*
%TO.N,row2*%
X28980000Y-45255000D03*
X28970000Y4720000D03*
%TO.N,row3*%
X27820000Y4640000D03*
X27810000Y-64320000D03*
%TD*%
D16*
%TO.N,row0*%
X48520000Y22730000D02*
X48520000Y4810000D01*
X47530000Y-7265000D02*
X53355000Y-7265000D01*
X52440000Y26650000D02*
X48520000Y22730000D01*
X48520000Y4810000D02*
X47560000Y3850000D01*
X14787273Y-6897273D02*
X16130000Y-8240000D01*
X47560000Y3850000D02*
X47560000Y-7235000D01*
X55651968Y-6918032D02*
X66350030Y-6918032D01*
X36205000Y-7265000D02*
X47530000Y-7265000D01*
X34255000Y-7265000D02*
X35230000Y-8240000D01*
X66350030Y-6918032D02*
X66680000Y-6897273D01*
X53355000Y-7265000D02*
X54330000Y-8240000D01*
X72027273Y-6897273D02*
X73430000Y-8300000D01*
X17105000Y-7265000D02*
X34255000Y-7265000D01*
X54330000Y-8240000D02*
X55651968Y-6918032D01*
X-1357273Y-6897273D02*
X14787273Y-6897273D01*
X-2970000Y-8510000D02*
X-1357273Y-6897273D01*
X47560000Y-7235000D02*
X47530000Y-7265000D01*
X66680000Y-6897273D02*
X72027273Y-6897273D01*
X35230000Y-8240000D02*
X36205000Y-7265000D01*
X16130000Y-8240000D02*
X17105000Y-7265000D01*
%TO.N,row1*%
X54440000Y-27630000D02*
X52650000Y-25840000D01*
X16180000Y-27485000D02*
X15025000Y-26330000D01*
X49900000Y26650000D02*
X46260000Y23010000D01*
X46220000Y-25840000D02*
X36520000Y-25840000D01*
X35310000Y-27050000D02*
X34770000Y-26510000D01*
X36520000Y-25840000D02*
X35310000Y-27050000D01*
X55415000Y-26655000D02*
X54440000Y-27630000D01*
X46260000Y2530000D02*
X46220000Y2490000D01*
X52650000Y-25840000D02*
X46220000Y-25840000D01*
X73030000Y-26655000D02*
X55415000Y-26655000D01*
X46260000Y23010000D02*
X46260000Y2530000D01*
X34770000Y-26510000D02*
X17155000Y-26510000D01*
X15025000Y-26330000D02*
X-1940000Y-26330000D01*
X-1940000Y-26330000D02*
X-2950000Y-27340000D01*
X73570000Y-27195000D02*
X73030000Y-26655000D01*
X17155000Y-26510000D02*
X16180000Y-27485000D01*
%TO.N,row2*%
X35215000Y-46537500D02*
X36190000Y-45562500D01*
X55725227Y-44997273D02*
X72024773Y-44997273D01*
X47360000Y26650000D02*
X30090000Y9380000D01*
X54287500Y-46435000D02*
X55725227Y-44997273D01*
X33932500Y-45255000D02*
X35215000Y-46537500D01*
X72024773Y-44997273D02*
X73360000Y-46332500D01*
X28980000Y-45255000D02*
X33932500Y-45255000D01*
X53415000Y-45562500D02*
X54287500Y-46435000D01*
X17117500Y-45255000D02*
X28980000Y-45255000D01*
X-1287273Y-44997273D02*
X14909773Y-44997273D01*
X36190000Y-45562500D02*
X53415000Y-45562500D01*
X30090000Y9380000D02*
X28970000Y8260000D01*
X28970000Y8260000D02*
X28970000Y4720000D01*
X-2930000Y-46640000D02*
X-1287273Y-44997273D01*
X16142500Y-46230000D02*
X17117500Y-45255000D01*
X14909773Y-44997273D02*
X16142500Y-46230000D01*
%TO.N,row3*%
X27810000Y-64320000D02*
X17171250Y-64320000D01*
X54483750Y-65300000D02*
X55458750Y-64325000D01*
X72590000Y-64325000D02*
X73695000Y-65430000D01*
X55458750Y-64325000D02*
X72590000Y-64325000D01*
X36247500Y-64455000D02*
X35272500Y-65430000D01*
X16061250Y-65430000D02*
X14951250Y-64320000D01*
X35272500Y-65430000D02*
X34162500Y-64320000D01*
X54483750Y-65300000D02*
X53638750Y-64455000D01*
X53638750Y-64455000D02*
X36247500Y-64455000D01*
X17171250Y-64320000D02*
X16061250Y-65430000D01*
X-2170000Y-64320000D02*
X-3150000Y-65300000D01*
X27820000Y4640000D02*
X27820000Y8840000D01*
X27820000Y8840000D02*
X44820000Y25840000D01*
X44820000Y25840000D02*
X44820000Y26650000D01*
X14951250Y-64320000D02*
X-2170000Y-64320000D01*
X34162500Y-64320000D02*
X27810000Y-64320000D01*
%TD*%
M02*
