%TF.GenerationSoftware,KiCad,Pcbnew,7.0.1-0*%
%TF.CreationDate,2023-09-11T21:36:53+09:00*%
%TF.ProjectId,jisaku20rp_right_re,6a697361-6b75-4323-9072-705f72696768,rev?*%
%TF.SameCoordinates,Original*%
%TF.FileFunction,Copper,L1,Top*%
%TF.FilePolarity,Positive*%
%FSLAX46Y46*%
G04 Gerber Fmt 4.6, Leading zero omitted, Abs format (unit mm)*
G04 Created by KiCad (PCBNEW 7.0.1-0) date 2023-09-11 21:36:53*
%MOMM*%
%LPD*%
G01*
G04 APERTURE LIST*
%TA.AperFunction,ComponentPad*%
%ADD10O,2.500000X1.700000*%
%TD*%
%TA.AperFunction,ComponentPad*%
%ADD11C,1.524000*%
%TD*%
%TA.AperFunction,SMDPad,CuDef*%
%ADD12R,1.200000X2.000000*%
%TD*%
%TA.AperFunction,SMDPad,CuDef*%
%ADD13R,2.000000X1.200000*%
%TD*%
%TA.AperFunction,ComponentPad*%
%ADD14R,1.500000X1.500000*%
%TD*%
%TA.AperFunction,ComponentPad*%
%ADD15C,2.000000*%
%TD*%
%TA.AperFunction,ComponentPad*%
%ADD16C,2.800000*%
%TD*%
%TA.AperFunction,ComponentPad*%
%ADD17R,1.778000X1.300000*%
%TD*%
%TA.AperFunction,ComponentPad*%
%ADD18O,1.778000X1.300000*%
%TD*%
%TA.AperFunction,ViaPad*%
%ADD19C,0.800000*%
%TD*%
%TA.AperFunction,Conductor*%
%ADD20C,0.250000*%
%TD*%
G04 APERTURE END LIST*
D10*
%TO.P,J1,A*%
%TO.N,unconnected-(J1-PadA)*%
X53940000Y19990000D03*
X53940000Y17540000D03*
%TO.P,J1,B*%
%TO.N,data*%
X62440000Y21740000D03*
X62440000Y15790000D03*
%TO.P,J1,C*%
%TO.N,GND*%
X59440000Y21740000D03*
X59440000Y15790000D03*
%TO.P,J1,D*%
%TO.N,VCC*%
X55440000Y21740000D03*
X55440000Y15790000D03*
%TD*%
D11*
%TO.P,U2,0,GP0*%
%TO.N,unconnected-(U2-GP0-Pad0)*%
X11110000Y26410000D03*
D12*
X11110000Y27880000D03*
D11*
%TO.P,U2,1,GP1*%
%TO.N,data*%
X13650000Y26410000D03*
D12*
X13650000Y27880000D03*
D11*
%TO.P,U2,2,GP2*%
%TO.N,unconnected-(U2-GP2-Pad2)*%
X16190000Y26410000D03*
D12*
X16190000Y27880000D03*
D11*
%TO.P,U2,3,GP3*%
%TO.N,unconnected-(U2-GP3-Pad3)*%
X18730000Y26410000D03*
D12*
X18730000Y27880000D03*
D11*
%TO.P,U2,4,GP4*%
%TO.N,unconnected-(U2-GP4-Pad4)*%
X21270000Y26410000D03*
D12*
X21270000Y27880000D03*
D11*
%TO.P,U2,5,GP5*%
%TO.N,re1*%
X23810000Y26410000D03*
D12*
X23810000Y27880000D03*
D11*
%TO.P,U2,6,GP6*%
%TO.N,re2*%
X26350000Y26410000D03*
D12*
X26350000Y27880000D03*
D11*
%TO.P,U2,7,GP7*%
%TO.N,col4*%
X28890000Y26410000D03*
D12*
X28890000Y27880000D03*
D11*
%TO.P,U2,8,GP8*%
%TO.N,col3*%
X31430000Y26410000D03*
D12*
X31430000Y27880000D03*
D11*
%TO.P,U2,9,GP9*%
%TO.N,row0*%
X31430000Y23870000D03*
D13*
X32880000Y23870000D03*
D11*
%TO.P,U2,10,GP10*%
%TO.N,row1*%
X31430000Y21330000D03*
D13*
X32880000Y21330000D03*
D11*
%TO.P,U2,11,GP11*%
%TO.N,row2*%
X31430000Y18790000D03*
D13*
X32890000Y18790000D03*
D11*
%TO.P,U2,12,GP12*%
%TO.N,row3*%
X31430000Y16250000D03*
D13*
X32870000Y16250000D03*
D11*
%TO.P,U2,13,GP13*%
%TO.N,col2*%
X31430000Y13710000D03*
D13*
X32880000Y13710000D03*
D12*
%TO.P,U2,14,GP14*%
%TO.N,col1*%
X31430000Y9700000D03*
D11*
X31430000Y11170000D03*
D12*
%TO.P,U2,15,GP15*%
%TO.N,col0*%
X28890000Y9700000D03*
D11*
X28890000Y11170000D03*
D12*
%TO.P,U2,26,GP26*%
%TO.N,row4*%
X26350000Y9700000D03*
D11*
X26350000Y11170000D03*
D12*
%TO.P,U2,27,GP27*%
%TO.N,unconnected-(U2-GP27-Pad27)*%
X23810000Y9700000D03*
D11*
X23810000Y11170000D03*
D12*
%TO.P,U2,28,GP28*%
%TO.N,unconnected-(U2-GP28-Pad28)*%
X21270000Y9700000D03*
D11*
X21270000Y11170000D03*
D12*
%TO.P,U2,29,GP29*%
%TO.N,unconnected-(U2-GP29-Pad29)*%
X18730000Y9700000D03*
D11*
X18730000Y11170000D03*
D12*
%TO.P,U2,30,3V3*%
%TO.N,unconnected-(U2-3V3-Pad30)*%
X16190000Y9700000D03*
D11*
X16190000Y11170000D03*
D12*
%TO.P,U2,31,GND*%
%TO.N,GND*%
X13650000Y9700000D03*
D11*
X13650000Y11170000D03*
D12*
%TO.P,U2,32,5V*%
%TO.N,VCC*%
X11110000Y9700000D03*
D11*
X11110000Y11170000D03*
%TD*%
D14*
%TO.P,SW21,A,A*%
%TO.N,re1*%
X44760000Y26940000D03*
D15*
%TO.P,SW21,B,B*%
%TO.N,re2*%
X39760000Y26940000D03*
%TO.P,SW21,C,C*%
%TO.N,GND*%
X42260000Y26940000D03*
D16*
%TO.P,SW21,MP*%
%TO.N,N/C*%
X47860000Y19440000D03*
X36660000Y19440000D03*
D15*
%TO.P,SW21,S1,S1*%
%TO.N,Net-(D21-A)*%
X44760000Y12440000D03*
%TO.P,SW21,S2,S2*%
%TO.N,col0*%
X39760000Y12440000D03*
%TD*%
D17*
%TO.P,D15,1,K*%
%TO.N,row2*%
X73360000Y-46332500D03*
D18*
%TO.P,D15,2,A*%
%TO.N,Net-(D15-A)*%
X79360000Y-46332500D03*
%TD*%
D17*
%TO.P,D11,1,K*%
%TO.N,row2*%
X-2930000Y-46640000D03*
D18*
%TO.P,D11,2,A*%
%TO.N,Net-(D11-A)*%
X3070000Y-46640000D03*
%TD*%
D17*
%TO.P,D4,1,K*%
%TO.N,row0*%
X54330000Y-8240000D03*
D18*
%TO.P,D4,2,A*%
%TO.N,Net-(D4-A)*%
X60330000Y-8240000D03*
%TD*%
D17*
%TO.P,D6,1,K*%
%TO.N,row1*%
X-2950000Y-27340000D03*
D18*
%TO.P,D6,2,A*%
%TO.N,Net-(D6-A)*%
X3050000Y-27340000D03*
%TD*%
D17*
%TO.P,D9,1,K*%
%TO.N,row1*%
X54440000Y-27630000D03*
D18*
%TO.P,D9,2,A*%
%TO.N,Net-(D9-A)*%
X60440000Y-27630000D03*
%TD*%
D17*
%TO.P,D8,1,K*%
%TO.N,row1*%
X35310000Y-27050000D03*
D18*
%TO.P,D8,2,A*%
%TO.N,Net-(D8-A)*%
X41310000Y-27050000D03*
%TD*%
D17*
%TO.P,D20,1,K*%
%TO.N,row3*%
X73695000Y-65430000D03*
D18*
%TO.P,D20,2,A*%
%TO.N,Net-(D20-A)*%
X79695000Y-65430000D03*
%TD*%
D17*
%TO.P,D17,1,K*%
%TO.N,row3*%
X16061250Y-65430000D03*
D18*
%TO.P,D17,2,A*%
%TO.N,Net-(D17-A)*%
X22061250Y-65430000D03*
%TD*%
D17*
%TO.P,D12,1,K*%
%TO.N,row2*%
X16142500Y-46230000D03*
D18*
%TO.P,D12,2,A*%
%TO.N,Net-(D12-A)*%
X22142500Y-46230000D03*
%TD*%
D17*
%TO.P,D10,1,K*%
%TO.N,row1*%
X73570000Y-27195000D03*
D18*
%TO.P,D10,2,A*%
%TO.N,Net-(D10-A)*%
X79570000Y-27195000D03*
%TD*%
D17*
%TO.P,D5,1,K*%
%TO.N,row0*%
X73430000Y-8300000D03*
D18*
%TO.P,D5,2,A*%
%TO.N,Net-(D5-A)*%
X79430000Y-8300000D03*
%TD*%
D17*
%TO.P,D13,1,K*%
%TO.N,row2*%
X35215000Y-46537500D03*
D18*
%TO.P,D13,2,A*%
%TO.N,Net-(D13-A)*%
X41215000Y-46537500D03*
%TD*%
D17*
%TO.P,D1,1,K*%
%TO.N,row0*%
X-2970000Y-8510000D03*
D18*
%TO.P,D1,2,A*%
%TO.N,Net-(D1-A)*%
X3030000Y-8510000D03*
%TD*%
D17*
%TO.P,D14,1,K*%
%TO.N,row2*%
X54287500Y-46435000D03*
D18*
%TO.P,D14,2,A*%
%TO.N,Net-(D14-A)*%
X60287500Y-46435000D03*
%TD*%
D17*
%TO.P,D7,1,K*%
%TO.N,row1*%
X16180000Y-27485000D03*
D18*
%TO.P,D7,2,A*%
%TO.N,Net-(D7-A)*%
X22180000Y-27485000D03*
%TD*%
D17*
%TO.P,D3,1,K*%
%TO.N,row0*%
X35230000Y-8240000D03*
D18*
%TO.P,D3,2,A*%
%TO.N,Net-(D3-A)*%
X41230000Y-8240000D03*
%TD*%
D17*
%TO.P,D19,1,K*%
%TO.N,row3*%
X54483750Y-65300000D03*
D18*
%TO.P,D19,2,A*%
%TO.N,Net-(D19-A)*%
X60483750Y-65300000D03*
%TD*%
D17*
%TO.P,D18,1,K*%
%TO.N,row3*%
X35272500Y-65430000D03*
D18*
%TO.P,D18,2,A*%
%TO.N,Net-(D18-A)*%
X41272500Y-65430000D03*
%TD*%
D17*
%TO.P,D16,1,K*%
%TO.N,row3*%
X-3150000Y-65300000D03*
D18*
%TO.P,D16,2,A*%
%TO.N,Net-(D16-A)*%
X2850000Y-65300000D03*
%TD*%
D17*
%TO.P,D21,1,K*%
%TO.N,row4*%
X38760000Y8240000D03*
D18*
%TO.P,D21,2,A*%
%TO.N,Net-(D21-A)*%
X44760000Y8240000D03*
%TD*%
D17*
%TO.P,D2,1,K*%
%TO.N,row0*%
X16130000Y-8240000D03*
D18*
%TO.P,D2,2,A*%
%TO.N,Net-(D2-A)*%
X22130000Y-8240000D03*
%TD*%
D19*
%TO.N,row1*%
X46220000Y2490000D03*
X46220000Y-25840000D03*
%TO.N,row2*%
X28980000Y-45255000D03*
X38240000Y17729500D03*
%TO.N,row3*%
X27810000Y-64320000D03*
X35080000Y16280000D03*
%TO.N,col0*%
X27460000Y7960000D03*
%TO.N,col1*%
X28480000Y7140000D03*
%TO.N,col2*%
X35460000Y9790000D03*
%TO.N,col3*%
X49220000Y5790000D03*
%TO.N,col4*%
X47520000Y6950000D03*
%TO.N,GND*%
X45240000Y17700000D03*
X39970000Y17700000D03*
%TD*%
D20*
%TO.N,row0*%
X46795000Y13105000D02*
X46795000Y5395000D01*
X47530000Y-7265000D02*
X53355000Y-7265000D01*
X14787273Y-6897273D02*
X16130000Y-8240000D01*
X32880000Y23870000D02*
X36030000Y23870000D01*
X55651968Y-6918032D02*
X66350030Y-6918032D01*
X36205000Y-7265000D02*
X47530000Y-7265000D01*
X34255000Y-7265000D02*
X35230000Y-8240000D01*
X66350030Y-6918032D02*
X66680000Y-6897273D01*
X53355000Y-7265000D02*
X54330000Y-8240000D01*
X47560000Y-7235000D02*
X47530000Y-7265000D01*
X72027273Y-6897273D02*
X73430000Y-8300000D01*
X17105000Y-7265000D02*
X34255000Y-7265000D01*
X54330000Y-8240000D02*
X55651968Y-6918032D01*
X-1357273Y-6897273D02*
X14787273Y-6897273D01*
X-2970000Y-8510000D02*
X-1357273Y-6897273D01*
X36030000Y23870000D02*
X46795000Y13105000D01*
X66680000Y-6897273D02*
X72027273Y-6897273D01*
X35230000Y-8240000D02*
X36205000Y-7265000D01*
X47560000Y4630000D02*
X47560000Y-7235000D01*
X31430000Y23870000D02*
X32880000Y23870000D01*
X46795000Y5395000D02*
X47560000Y4630000D01*
X16130000Y-8240000D02*
X17105000Y-7265000D01*
%TO.N,row1*%
X54440000Y-27630000D02*
X52650000Y-25840000D01*
X16180000Y-27485000D02*
X15025000Y-26330000D01*
X46220000Y-25840000D02*
X36520000Y-25840000D01*
X35310000Y-27050000D02*
X34770000Y-26510000D01*
X36520000Y-25840000D02*
X35310000Y-27050000D01*
X37933604Y21330000D02*
X31430000Y21330000D01*
X46220000Y2490000D02*
X46220000Y13043604D01*
X55415000Y-26655000D02*
X54440000Y-27630000D01*
X52650000Y-25840000D02*
X46220000Y-25840000D01*
X46220000Y13043604D02*
X37933604Y21330000D01*
X73030000Y-26655000D02*
X55415000Y-26655000D01*
X34770000Y-26510000D02*
X17155000Y-26510000D01*
X15025000Y-26330000D02*
X-1940000Y-26330000D01*
X-1940000Y-26330000D02*
X-2950000Y-27340000D01*
X73570000Y-27195000D02*
X73030000Y-26655000D01*
X17155000Y-26510000D02*
X16180000Y-27485000D01*
%TO.N,row2*%
X36060000Y17600000D02*
X38110500Y17600000D01*
X35300000Y17880000D02*
X35580000Y17600000D01*
X35580000Y17600000D02*
X36060000Y17600000D01*
X35215000Y-46537500D02*
X36190000Y-45562500D01*
X55725227Y-44997273D02*
X72024773Y-44997273D01*
X54287500Y-46435000D02*
X55725227Y-44997273D01*
X32890000Y18790000D02*
X34390000Y18790000D01*
X34390000Y18790000D02*
X35300000Y17880000D01*
X33932500Y-45255000D02*
X35215000Y-46537500D01*
X72024773Y-44997273D02*
X73360000Y-46332500D01*
X28980000Y-45255000D02*
X33932500Y-45255000D01*
X31430000Y18790000D02*
X32890000Y18790000D01*
X53415000Y-45562500D02*
X54287500Y-46435000D01*
X38110500Y17600000D02*
X38240000Y17729500D01*
X17117500Y-45255000D02*
X28980000Y-45255000D01*
X-1287273Y-44997273D02*
X14909773Y-44997273D01*
X36190000Y-45562500D02*
X53415000Y-45562500D01*
X-2930000Y-46640000D02*
X-1287273Y-44997273D01*
X16142500Y-46230000D02*
X17117500Y-45255000D01*
X14909773Y-44997273D02*
X16142500Y-46230000D01*
%TO.N,row3*%
X27810000Y-64320000D02*
X17171250Y-64320000D01*
X54483750Y-65300000D02*
X55458750Y-64325000D01*
X72590000Y-64325000D02*
X73695000Y-65430000D01*
X55458750Y-64325000D02*
X72590000Y-64325000D01*
X36247500Y-64455000D02*
X35272500Y-65430000D01*
X16061250Y-65430000D02*
X14951250Y-64320000D01*
X35272500Y-65430000D02*
X34162500Y-64320000D01*
X54483750Y-65300000D02*
X53638750Y-64455000D01*
X53638750Y-64455000D02*
X36247500Y-64455000D01*
X17171250Y-64320000D02*
X16061250Y-65430000D01*
X35080000Y16280000D02*
X35050000Y16250000D01*
X-2170000Y-64320000D02*
X-3150000Y-65300000D01*
X35050000Y16250000D02*
X31430000Y16250000D01*
X14951250Y-64320000D02*
X-2170000Y-64320000D01*
X34162500Y-64320000D02*
X27810000Y-64320000D01*
%TO.N,col0*%
X28890000Y8420000D02*
X28890000Y11170000D01*
X39760000Y12440000D02*
X37403000Y14797000D01*
X28890000Y12707251D02*
X28890000Y11170000D01*
X28430000Y7960000D02*
X28890000Y8420000D01*
X30979749Y14797000D02*
X28890000Y12707251D01*
X37403000Y14797000D02*
X30979749Y14797000D01*
X27460000Y7960000D02*
X28430000Y7960000D01*
%TO.N,col1*%
X29770000Y7110000D02*
X31430000Y8770000D01*
X28480000Y7140000D02*
X29740000Y7140000D01*
X31430000Y8770000D02*
X31430000Y11170000D01*
X29740000Y7140000D02*
X29770000Y7110000D01*
%TO.N,col2*%
X36380000Y10710000D02*
X36380000Y12770000D01*
X36380000Y12770000D02*
X35440000Y13710000D01*
X35460000Y9790000D02*
X36380000Y10710000D01*
X35440000Y13710000D02*
X31430000Y13710000D01*
%TO.N,col3*%
X48685000Y12725000D02*
X48685000Y6325000D01*
X48685000Y6325000D02*
X49220000Y5790000D01*
X35000000Y26410000D02*
X48685000Y12725000D01*
X31430000Y26410000D02*
X31430000Y27880000D01*
X31430000Y26410000D02*
X35000000Y26410000D01*
%TO.N,col4*%
X35287000Y25323000D02*
X47520000Y13090000D01*
X28890000Y26410000D02*
X29977000Y25323000D01*
X29977000Y25323000D02*
X35287000Y25323000D01*
X47520000Y13090000D02*
X47520000Y6950000D01*
X28890000Y26410000D02*
X28890000Y27880000D01*
%TO.N,GND*%
X39275000Y17005000D02*
X39970000Y17700000D01*
X35095000Y17005000D02*
X39275000Y17005000D01*
X14590000Y17700000D02*
X34400000Y17700000D01*
X45240000Y23960000D02*
X45240000Y17700000D01*
X13650000Y11170000D02*
X13650000Y16760000D01*
X13650000Y16760000D02*
X14590000Y17700000D01*
X34400000Y17700000D02*
X35095000Y17005000D01*
X42260000Y26940000D02*
X45240000Y23960000D01*
%TO.N,data*%
X13650000Y26410000D02*
X13650000Y27880000D01*
%TO.N,row4*%
X26350000Y8044695D02*
X28004695Y6390000D01*
X36910000Y6390000D02*
X38760000Y8240000D01*
X28004695Y6390000D02*
X36910000Y6390000D01*
X26350000Y9700000D02*
X26350000Y8044695D01*
X26350000Y11170000D02*
X26350000Y9700000D01*
%TO.N,VCC*%
X11110000Y9700000D02*
X11110000Y11170000D01*
%TD*%
M02*
