%TF.GenerationSoftware,KiCad,Pcbnew,7.0.8*%
%TF.CreationDate,2023-10-28T15:05:56+09:00*%
%TF.ProjectId,jisaku20rp_right_re,6a697361-6b75-4323-9072-705f72696768,rev?*%
%TF.SameCoordinates,Original*%
%TF.FileFunction,Soldermask,Top*%
%TF.FilePolarity,Negative*%
%FSLAX46Y46*%
G04 Gerber Fmt 4.6, Leading zero omitted, Abs format (unit mm)*
G04 Created by KiCad (PCBNEW 7.0.8) date 2023-10-28 15:05:56*
%MOMM*%
%LPD*%
G01*
G04 APERTURE LIST*
%ADD10R,1.500000X1.500000*%
%ADD11C,2.000000*%
%ADD12C,2.800000*%
%ADD13C,1.200000*%
%ADD14O,2.500000X1.700000*%
%ADD15C,1.900000*%
%ADD16C,3.000000*%
%ADD17C,4.100000*%
%ADD18C,1.524000*%
%ADD19R,1.200000X2.000000*%
%ADD20R,2.000000X1.200000*%
%ADD21R,1.778000X1.300000*%
%ADD22O,1.778000X1.300000*%
G04 APERTURE END LIST*
D10*
%TO.C,SW21*%
X44760000Y26940000D03*
D11*
X39760000Y26940000D03*
X42260000Y26940000D03*
D12*
X47860000Y19440000D03*
X36660000Y19440000D03*
D11*
X44760000Y12440000D03*
X39760000Y12440000D03*
%TD*%
D13*
%TO.C,J1*%
X64240000Y19640000D03*
X57240000Y19640000D03*
X64240000Y17890000D03*
X57240000Y17890000D03*
D14*
X53940000Y19990000D03*
X53940000Y17540000D03*
X62440000Y21740000D03*
X62440000Y15790000D03*
X59440000Y21740000D03*
X59440000Y15790000D03*
X55440000Y21740000D03*
X55440000Y15790000D03*
%TD*%
D15*
%TO.C,SW15*%
X71120000Y-38100000D03*
D16*
X72390000Y-35560000D03*
D17*
X76200000Y-38100000D03*
D16*
X78740000Y-33020000D03*
D15*
X81280000Y-38100000D03*
%TD*%
%TO.C,SW1*%
X-5080000Y0D03*
D16*
X-3810000Y2540000D03*
D17*
X0Y0D03*
D16*
X2540000Y5080000D03*
D15*
X5080000Y0D03*
%TD*%
%TO.C,SW14*%
X52070000Y-38100000D03*
D16*
X53340000Y-35560000D03*
D17*
X57150000Y-38100000D03*
D16*
X59690000Y-33020000D03*
D15*
X62230000Y-38100000D03*
%TD*%
%TO.C,SW2*%
X13970000Y0D03*
D16*
X15240000Y2540000D03*
D17*
X19050000Y0D03*
D16*
X21590000Y5080000D03*
D15*
X24130000Y0D03*
%TD*%
%TO.C,SW17*%
X13970000Y-57150000D03*
D16*
X15240000Y-54610000D03*
D17*
X19050000Y-57150000D03*
D16*
X21590000Y-52070000D03*
D15*
X24130000Y-57150000D03*
%TD*%
D18*
%TO.C,U2*%
X11110000Y26410000D03*
D19*
X11110000Y27880000D03*
D18*
X13650000Y26410000D03*
D19*
X13650000Y27880000D03*
D18*
X16190000Y26410000D03*
D19*
X16190000Y27880000D03*
D18*
X18730000Y26410000D03*
D19*
X18730000Y27880000D03*
D18*
X21270000Y26410000D03*
D19*
X21270000Y27880000D03*
D18*
X23810000Y26410000D03*
D19*
X23810000Y27880000D03*
D18*
X26350000Y26410000D03*
D19*
X26350000Y27880000D03*
D18*
X28890000Y26410000D03*
D19*
X28890000Y27880000D03*
D18*
X31430000Y26410000D03*
D19*
X31430000Y27880000D03*
D18*
X31430000Y23870000D03*
D20*
X32880000Y23870000D03*
D18*
X31430000Y21330000D03*
D20*
X32880000Y21330000D03*
D18*
X31430000Y18790000D03*
D20*
X32890000Y18790000D03*
D18*
X31430000Y16250000D03*
D20*
X32870000Y16250000D03*
D18*
X31430000Y13710000D03*
D20*
X32880000Y13710000D03*
D19*
X31430000Y9700000D03*
D18*
X31430000Y11170000D03*
D19*
X28890000Y9700000D03*
D18*
X28890000Y11170000D03*
D19*
X26350000Y9700000D03*
D18*
X26350000Y11170000D03*
D19*
X23810000Y9700000D03*
D18*
X23810000Y11170000D03*
D19*
X21270000Y9700000D03*
D18*
X21270000Y11170000D03*
D19*
X18730000Y9700000D03*
D18*
X18730000Y11170000D03*
D19*
X16190000Y9700000D03*
D18*
X16190000Y11170000D03*
D19*
X13650000Y9700000D03*
D18*
X13650000Y11170000D03*
D19*
X11110000Y9700000D03*
D18*
X11110000Y11170000D03*
%TD*%
D15*
%TO.C,SW5*%
X71120000Y0D03*
D16*
X72390000Y2540000D03*
D17*
X76200000Y0D03*
D16*
X78740000Y5080000D03*
D15*
X81280000Y0D03*
%TD*%
%TO.C,SW7*%
X13970000Y-19050000D03*
D16*
X15240000Y-16510000D03*
D17*
X19050000Y-19050000D03*
D16*
X21590000Y-13970000D03*
D15*
X24130000Y-19050000D03*
%TD*%
%TO.C,SW20*%
X71120000Y-57150000D03*
D16*
X72390000Y-54610000D03*
D17*
X76200000Y-57150000D03*
D16*
X78740000Y-52070000D03*
D15*
X81280000Y-57150000D03*
%TD*%
%TO.C,SW8*%
X33020000Y-19050000D03*
D16*
X34290000Y-16510000D03*
D17*
X38100000Y-19050000D03*
D16*
X40640000Y-13970000D03*
D15*
X43180000Y-19050000D03*
%TD*%
%TO.C,SW10*%
X71120000Y-19050000D03*
D16*
X72390000Y-16510000D03*
D17*
X76200000Y-19050000D03*
D16*
X78740000Y-13970000D03*
D15*
X81280000Y-19050000D03*
%TD*%
%TO.C,SW3*%
X33020000Y0D03*
D16*
X34290000Y2540000D03*
D17*
X38100000Y0D03*
D16*
X40640000Y5080000D03*
D15*
X43180000Y0D03*
%TD*%
%TO.C,SW16*%
X-5080000Y-57150000D03*
D16*
X-3810000Y-54610000D03*
D17*
X0Y-57150000D03*
D16*
X2540000Y-52070000D03*
D15*
X5080000Y-57150000D03*
%TD*%
%TO.C,SW18*%
X33020000Y-57150000D03*
D16*
X34290000Y-54610000D03*
D17*
X38100000Y-57150000D03*
D16*
X40640000Y-52070000D03*
D15*
X43180000Y-57150000D03*
%TD*%
%TO.C,SW12*%
X13970000Y-38100000D03*
D16*
X15240000Y-35560000D03*
D17*
X19050000Y-38100000D03*
D16*
X21590000Y-33020000D03*
D15*
X24130000Y-38100000D03*
%TD*%
%TO.C,SW9*%
X52070000Y-19050000D03*
D16*
X53340000Y-16510000D03*
D17*
X57150000Y-19050000D03*
D16*
X59690000Y-13970000D03*
D15*
X62230000Y-19050000D03*
%TD*%
%TO.C,SW11*%
X-5080000Y-38100000D03*
D16*
X-3810000Y-35560000D03*
D17*
X0Y-38100000D03*
D16*
X2540000Y-33020000D03*
D15*
X5080000Y-38100000D03*
%TD*%
%TO.C,SW6*%
X-5080000Y-19050000D03*
D16*
X-3810000Y-16510000D03*
D17*
X0Y-19050000D03*
D16*
X2540000Y-13970000D03*
D15*
X5080000Y-19050000D03*
%TD*%
%TO.C,SW4*%
X52070000Y0D03*
D16*
X53340000Y2540000D03*
D17*
X57150000Y0D03*
D16*
X59690000Y5080000D03*
D15*
X62230000Y0D03*
%TD*%
%TO.C,SW13*%
X33020000Y-38100000D03*
D16*
X34290000Y-35560000D03*
D17*
X38100000Y-38100000D03*
D16*
X40640000Y-33020000D03*
D15*
X43180000Y-38100000D03*
%TD*%
%TO.C,SW19*%
X52070000Y-57150000D03*
D16*
X53340000Y-54610000D03*
D17*
X57150000Y-57150000D03*
D16*
X59690000Y-52070000D03*
D15*
X62230000Y-57150000D03*
%TD*%
D21*
%TO.C,D15*%
X73360000Y-46332500D03*
D22*
X79360000Y-46332500D03*
%TD*%
D21*
%TO.C,D11*%
X-2930000Y-46640000D03*
D22*
X3070000Y-46640000D03*
%TD*%
D21*
%TO.C,D4*%
X54330000Y-8240000D03*
D22*
X60330000Y-8240000D03*
%TD*%
D21*
%TO.C,D6*%
X-2950000Y-27340000D03*
D22*
X3050000Y-27340000D03*
%TD*%
D21*
%TO.C,D9*%
X54440000Y-27630000D03*
D22*
X60440000Y-27630000D03*
%TD*%
D21*
%TO.C,D8*%
X35310000Y-27050000D03*
D22*
X41310000Y-27050000D03*
%TD*%
D21*
%TO.C,D20*%
X73695000Y-65430000D03*
D22*
X79695000Y-65430000D03*
%TD*%
D21*
%TO.C,D17*%
X16061250Y-65430000D03*
D22*
X22061250Y-65430000D03*
%TD*%
D21*
%TO.C,D12*%
X16142500Y-46230000D03*
D22*
X22142500Y-46230000D03*
%TD*%
D21*
%TO.C,D10*%
X73570000Y-27195000D03*
D22*
X79570000Y-27195000D03*
%TD*%
D21*
%TO.C,D5*%
X73430000Y-8300000D03*
D22*
X79430000Y-8300000D03*
%TD*%
D21*
%TO.C,D13*%
X35215000Y-46537500D03*
D22*
X41215000Y-46537500D03*
%TD*%
D21*
%TO.C,D1*%
X-2970000Y-8510000D03*
D22*
X3030000Y-8510000D03*
%TD*%
D21*
%TO.C,D14*%
X54287500Y-46435000D03*
D22*
X60287500Y-46435000D03*
%TD*%
D21*
%TO.C,D7*%
X16180000Y-27485000D03*
D22*
X22180000Y-27485000D03*
%TD*%
D21*
%TO.C,D3*%
X35230000Y-8240000D03*
D22*
X41230000Y-8240000D03*
%TD*%
D21*
%TO.C,D19*%
X54483750Y-65300000D03*
D22*
X60483750Y-65300000D03*
%TD*%
D21*
%TO.C,D18*%
X35272500Y-65430000D03*
D22*
X41272500Y-65430000D03*
%TD*%
D21*
%TO.C,D16*%
X-3150000Y-65300000D03*
D22*
X2850000Y-65300000D03*
%TD*%
D21*
%TO.C,D21*%
X38760000Y8240000D03*
D22*
X44760000Y8240000D03*
%TD*%
D21*
%TO.C,D2*%
X16130000Y-8240000D03*
D22*
X22130000Y-8240000D03*
%TD*%
M02*
