M48
; DRILL file {KiCad 7.0.1-0} date 2023 September 11, Monday 21:36:57
; FORMAT={-:-/ absolute / metric / decimal}
; #@! TF.CreationDate,2023-09-11T21:36:57+09:00
; #@! TF.GenerationSoftware,Kicad,Pcbnew,7.0.1-0
; #@! TF.FileFunction,NonPlated,1,2,NPTH
FMAT,2
METRIC
; #@! TA.AperFunction,NonPlated,NPTH,ComponentDrill
T1C1.200
; #@! TA.AperFunction,NonPlated,NPTH,ComponentDrill
T2C1.900
; #@! TA.AperFunction,NonPlated,NPTH,ComponentDrill
T3C3.000
; #@! TA.AperFunction,NonPlated,NPTH,ComponentDrill
T4C4.100
%
G90
G05
T1
X57.24Y19.64
X57.24Y17.89
X64.24Y19.64
X64.24Y17.89
T2
X-5.08Y0.0
X-5.08Y-19.05
X-5.08Y-38.1
X-5.08Y-57.15
X5.08Y0.0
X5.08Y-19.05
X5.08Y-38.1
X5.08Y-57.15
X13.97Y0.0
X13.97Y-19.05
X13.97Y-38.1
X13.97Y-57.15
X24.13Y0.0
X24.13Y-19.05
X24.13Y-38.1
X24.13Y-57.15
X33.02Y0.0
X33.02Y-19.05
X33.02Y-38.1
X33.02Y-57.15
X43.18Y0.0
X43.18Y-19.05
X43.18Y-38.1
X43.18Y-57.15
X52.07Y0.0
X52.07Y-19.05
X52.07Y-38.1
X52.07Y-57.15
X62.23Y0.0
X62.23Y-19.05
X62.23Y-38.1
X62.23Y-57.15
X71.12Y0.0
X71.12Y-19.05
X71.12Y-38.1
X71.12Y-57.15
X81.28Y0.0
X81.28Y-19.05
X81.28Y-38.1
X81.28Y-57.15
T3
X-3.81Y2.54
X-3.81Y-16.51
X-3.81Y-35.56
X-3.81Y-54.61
X2.54Y5.08
X2.54Y-13.97
X2.54Y-33.02
X2.54Y-52.07
X15.24Y2.54
X15.24Y-16.51
X15.24Y-35.56
X15.24Y-54.61
X21.59Y5.08
X21.59Y-13.97
X21.59Y-33.02
X21.59Y-52.07
X34.29Y2.54
X34.29Y-16.51
X34.29Y-35.56
X34.29Y-54.61
X40.64Y5.08
X40.64Y-13.97
X40.64Y-33.02
X40.64Y-52.07
X53.34Y2.54
X53.34Y-16.51
X53.34Y-35.56
X53.34Y-54.61
X59.69Y5.08
X59.69Y-13.97
X59.69Y-33.02
X59.69Y-52.07
X72.39Y2.54
X72.39Y-16.51
X72.39Y-35.56
X72.39Y-54.61
X78.74Y5.08
X78.74Y-13.97
X78.74Y-33.02
X78.74Y-52.07
T4
X0.0Y0.0
X0.0Y-19.05
X0.0Y-38.1
X0.0Y-57.15
X19.05Y0.0
X19.05Y-19.05
X19.05Y-38.1
X19.05Y-57.15
X38.1Y0.0
X38.1Y-19.05
X38.1Y-38.1
X38.1Y-57.15
X57.15Y0.0
X57.15Y-19.05
X57.15Y-38.1
X57.15Y-57.15
X76.2Y0.0
X76.2Y-19.05
X76.2Y-38.1
X76.2Y-57.15
T0
M30
