%TF.GenerationSoftware,KiCad,Pcbnew,7.0.8*%
%TF.CreationDate,2023-10-28T15:05:56+09:00*%
%TF.ProjectId,jisaku20rp_right_re,6a697361-6b75-4323-9072-705f72696768,rev?*%
%TF.SameCoordinates,Original*%
%TF.FileFunction,Legend,Top*%
%TF.FilePolarity,Positive*%
%FSLAX46Y46*%
G04 Gerber Fmt 4.6, Leading zero omitted, Abs format (unit mm)*
G04 Created by KiCad (PCBNEW 7.0.8) date 2023-10-28 15:05:56*
%MOMM*%
%LPD*%
G01*
G04 APERTURE LIST*
%ADD10C,0.150000*%
%ADD11C,0.120000*%
%ADD12C,1.200000*%
%ADD13O,2.500000X1.700000*%
G04 APERTURE END LIST*
D10*
X58744819Y16878095D02*
X58744819Y17449523D01*
X59744819Y17163809D02*
X58744819Y17163809D01*
X59744819Y18354285D02*
X59268628Y18020952D01*
X59744819Y17782857D02*
X58744819Y17782857D01*
X58744819Y17782857D02*
X58744819Y18163809D01*
X58744819Y18163809D02*
X58792438Y18259047D01*
X58792438Y18259047D02*
X58840057Y18306666D01*
X58840057Y18306666D02*
X58935295Y18354285D01*
X58935295Y18354285D02*
X59078152Y18354285D01*
X59078152Y18354285D02*
X59173390Y18306666D01*
X59173390Y18306666D02*
X59221009Y18259047D01*
X59221009Y18259047D02*
X59268628Y18163809D01*
X59268628Y18163809D02*
X59268628Y17782857D01*
X59744819Y19354285D02*
X59268628Y19020952D01*
X59744819Y18782857D02*
X58744819Y18782857D01*
X58744819Y18782857D02*
X58744819Y19163809D01*
X58744819Y19163809D02*
X58792438Y19259047D01*
X58792438Y19259047D02*
X58840057Y19306666D01*
X58840057Y19306666D02*
X58935295Y19354285D01*
X58935295Y19354285D02*
X59078152Y19354285D01*
X59078152Y19354285D02*
X59173390Y19306666D01*
X59173390Y19306666D02*
X59221009Y19259047D01*
X59221009Y19259047D02*
X59268628Y19163809D01*
X59268628Y19163809D02*
X59268628Y18782857D01*
X59697200Y19735238D02*
X59744819Y19878095D01*
X59744819Y19878095D02*
X59744819Y20116190D01*
X59744819Y20116190D02*
X59697200Y20211428D01*
X59697200Y20211428D02*
X59649580Y20259047D01*
X59649580Y20259047D02*
X59554342Y20306666D01*
X59554342Y20306666D02*
X59459104Y20306666D01*
X59459104Y20306666D02*
X59363866Y20259047D01*
X59363866Y20259047D02*
X59316247Y20211428D01*
X59316247Y20211428D02*
X59268628Y20116190D01*
X59268628Y20116190D02*
X59221009Y19925714D01*
X59221009Y19925714D02*
X59173390Y19830476D01*
X59173390Y19830476D02*
X59125771Y19782857D01*
X59125771Y19782857D02*
X59030533Y19735238D01*
X59030533Y19735238D02*
X58935295Y19735238D01*
X58935295Y19735238D02*
X58840057Y19782857D01*
X58840057Y19782857D02*
X58792438Y19830476D01*
X58792438Y19830476D02*
X58744819Y19925714D01*
X58744819Y19925714D02*
X58744819Y20163809D01*
X58744819Y20163809D02*
X58792438Y20306666D01*
X20734819Y18668095D02*
X21544342Y18668095D01*
X21544342Y18668095D02*
X21639580Y18715714D01*
X21639580Y18715714D02*
X21687200Y18763333D01*
X21687200Y18763333D02*
X21734819Y18858571D01*
X21734819Y18858571D02*
X21734819Y19049047D01*
X21734819Y19049047D02*
X21687200Y19144285D01*
X21687200Y19144285D02*
X21639580Y19191904D01*
X21639580Y19191904D02*
X21544342Y19239523D01*
X21544342Y19239523D02*
X20734819Y19239523D01*
X20830057Y19668095D02*
X20782438Y19715714D01*
X20782438Y19715714D02*
X20734819Y19810952D01*
X20734819Y19810952D02*
X20734819Y20049047D01*
X20734819Y20049047D02*
X20782438Y20144285D01*
X20782438Y20144285D02*
X20830057Y20191904D01*
X20830057Y20191904D02*
X20925295Y20239523D01*
X20925295Y20239523D02*
X21020533Y20239523D01*
X21020533Y20239523D02*
X21163390Y20191904D01*
X21163390Y20191904D02*
X21734819Y19620476D01*
X21734819Y19620476D02*
X21734819Y20239523D01*
X18232438Y7439523D02*
X18184819Y7344285D01*
X18184819Y7344285D02*
X18184819Y7201428D01*
X18184819Y7201428D02*
X18232438Y7058571D01*
X18232438Y7058571D02*
X18327676Y6963333D01*
X18327676Y6963333D02*
X18422914Y6915714D01*
X18422914Y6915714D02*
X18613390Y6868095D01*
X18613390Y6868095D02*
X18756247Y6868095D01*
X18756247Y6868095D02*
X18946723Y6915714D01*
X18946723Y6915714D02*
X19041961Y6963333D01*
X19041961Y6963333D02*
X19137200Y7058571D01*
X19137200Y7058571D02*
X19184819Y7201428D01*
X19184819Y7201428D02*
X19184819Y7296666D01*
X19184819Y7296666D02*
X19137200Y7439523D01*
X19137200Y7439523D02*
X19089580Y7487142D01*
X19089580Y7487142D02*
X18756247Y7487142D01*
X18756247Y7487142D02*
X18756247Y7296666D01*
X19184819Y7915714D02*
X18184819Y7915714D01*
X18184819Y7915714D02*
X18184819Y8296666D01*
X18184819Y8296666D02*
X18232438Y8391904D01*
X18232438Y8391904D02*
X18280057Y8439523D01*
X18280057Y8439523D02*
X18375295Y8487142D01*
X18375295Y8487142D02*
X18518152Y8487142D01*
X18518152Y8487142D02*
X18613390Y8439523D01*
X18613390Y8439523D02*
X18661009Y8391904D01*
X18661009Y8391904D02*
X18708628Y8296666D01*
X18708628Y8296666D02*
X18708628Y7915714D01*
X18280057Y8868095D02*
X18232438Y8915714D01*
X18232438Y8915714D02*
X18184819Y9010952D01*
X18184819Y9010952D02*
X18184819Y9249047D01*
X18184819Y9249047D02*
X18232438Y9344285D01*
X18232438Y9344285D02*
X18280057Y9391904D01*
X18280057Y9391904D02*
X18375295Y9439523D01*
X18375295Y9439523D02*
X18470533Y9439523D01*
X18470533Y9439523D02*
X18613390Y9391904D01*
X18613390Y9391904D02*
X19184819Y8820476D01*
X19184819Y8820476D02*
X19184819Y9439523D01*
X19184819Y9915714D02*
X19184819Y10106190D01*
X19184819Y10106190D02*
X19137200Y10201428D01*
X19137200Y10201428D02*
X19089580Y10249047D01*
X19089580Y10249047D02*
X18946723Y10344285D01*
X18946723Y10344285D02*
X18756247Y10391904D01*
X18756247Y10391904D02*
X18375295Y10391904D01*
X18375295Y10391904D02*
X18280057Y10344285D01*
X18280057Y10344285D02*
X18232438Y10296666D01*
X18232438Y10296666D02*
X18184819Y10201428D01*
X18184819Y10201428D02*
X18184819Y10010952D01*
X18184819Y10010952D02*
X18232438Y9915714D01*
X18232438Y9915714D02*
X18280057Y9868095D01*
X18280057Y9868095D02*
X18375295Y9820476D01*
X18375295Y9820476D02*
X18613390Y9820476D01*
X18613390Y9820476D02*
X18708628Y9868095D01*
X18708628Y9868095D02*
X18756247Y9915714D01*
X18756247Y9915714D02*
X18803866Y10010952D01*
X18803866Y10010952D02*
X18803866Y10201428D01*
X18803866Y10201428D02*
X18756247Y10296666D01*
X18756247Y10296666D02*
X18708628Y10344285D01*
X18708628Y10344285D02*
X18613390Y10391904D01*
X30932438Y28235714D02*
X30884819Y28140476D01*
X30884819Y28140476D02*
X30884819Y27997619D01*
X30884819Y27997619D02*
X30932438Y27854762D01*
X30932438Y27854762D02*
X31027676Y27759524D01*
X31027676Y27759524D02*
X31122914Y27711905D01*
X31122914Y27711905D02*
X31313390Y27664286D01*
X31313390Y27664286D02*
X31456247Y27664286D01*
X31456247Y27664286D02*
X31646723Y27711905D01*
X31646723Y27711905D02*
X31741961Y27759524D01*
X31741961Y27759524D02*
X31837200Y27854762D01*
X31837200Y27854762D02*
X31884819Y27997619D01*
X31884819Y27997619D02*
X31884819Y28092857D01*
X31884819Y28092857D02*
X31837200Y28235714D01*
X31837200Y28235714D02*
X31789580Y28283333D01*
X31789580Y28283333D02*
X31456247Y28283333D01*
X31456247Y28283333D02*
X31456247Y28092857D01*
X31884819Y28711905D02*
X30884819Y28711905D01*
X30884819Y28711905D02*
X30884819Y29092857D01*
X30884819Y29092857D02*
X30932438Y29188095D01*
X30932438Y29188095D02*
X30980057Y29235714D01*
X30980057Y29235714D02*
X31075295Y29283333D01*
X31075295Y29283333D02*
X31218152Y29283333D01*
X31218152Y29283333D02*
X31313390Y29235714D01*
X31313390Y29235714D02*
X31361009Y29188095D01*
X31361009Y29188095D02*
X31408628Y29092857D01*
X31408628Y29092857D02*
X31408628Y28711905D01*
X31313390Y29854762D02*
X31265771Y29759524D01*
X31265771Y29759524D02*
X31218152Y29711905D01*
X31218152Y29711905D02*
X31122914Y29664286D01*
X31122914Y29664286D02*
X31075295Y29664286D01*
X31075295Y29664286D02*
X30980057Y29711905D01*
X30980057Y29711905D02*
X30932438Y29759524D01*
X30932438Y29759524D02*
X30884819Y29854762D01*
X30884819Y29854762D02*
X30884819Y30045238D01*
X30884819Y30045238D02*
X30932438Y30140476D01*
X30932438Y30140476D02*
X30980057Y30188095D01*
X30980057Y30188095D02*
X31075295Y30235714D01*
X31075295Y30235714D02*
X31122914Y30235714D01*
X31122914Y30235714D02*
X31218152Y30188095D01*
X31218152Y30188095D02*
X31265771Y30140476D01*
X31265771Y30140476D02*
X31313390Y30045238D01*
X31313390Y30045238D02*
X31313390Y29854762D01*
X31313390Y29854762D02*
X31361009Y29759524D01*
X31361009Y29759524D02*
X31408628Y29711905D01*
X31408628Y29711905D02*
X31503866Y29664286D01*
X31503866Y29664286D02*
X31694342Y29664286D01*
X31694342Y29664286D02*
X31789580Y29711905D01*
X31789580Y29711905D02*
X31837200Y29759524D01*
X31837200Y29759524D02*
X31884819Y29854762D01*
X31884819Y29854762D02*
X31884819Y30045238D01*
X31884819Y30045238D02*
X31837200Y30140476D01*
X31837200Y30140476D02*
X31789580Y30188095D01*
X31789580Y30188095D02*
X31694342Y30235714D01*
X31694342Y30235714D02*
X31503866Y30235714D01*
X31503866Y30235714D02*
X31408628Y30188095D01*
X31408628Y30188095D02*
X31361009Y30140476D01*
X31361009Y30140476D02*
X31313390Y30045238D01*
X13152438Y7868095D02*
X13104819Y7772857D01*
X13104819Y7772857D02*
X13104819Y7630000D01*
X13104819Y7630000D02*
X13152438Y7487143D01*
X13152438Y7487143D02*
X13247676Y7391905D01*
X13247676Y7391905D02*
X13342914Y7344286D01*
X13342914Y7344286D02*
X13533390Y7296667D01*
X13533390Y7296667D02*
X13676247Y7296667D01*
X13676247Y7296667D02*
X13866723Y7344286D01*
X13866723Y7344286D02*
X13961961Y7391905D01*
X13961961Y7391905D02*
X14057200Y7487143D01*
X14057200Y7487143D02*
X14104819Y7630000D01*
X14104819Y7630000D02*
X14104819Y7725238D01*
X14104819Y7725238D02*
X14057200Y7868095D01*
X14057200Y7868095D02*
X14009580Y7915714D01*
X14009580Y7915714D02*
X13676247Y7915714D01*
X13676247Y7915714D02*
X13676247Y7725238D01*
X14104819Y8344286D02*
X13104819Y8344286D01*
X13104819Y8344286D02*
X14104819Y8915714D01*
X14104819Y8915714D02*
X13104819Y8915714D01*
X14104819Y9391905D02*
X13104819Y9391905D01*
X13104819Y9391905D02*
X13104819Y9630000D01*
X13104819Y9630000D02*
X13152438Y9772857D01*
X13152438Y9772857D02*
X13247676Y9868095D01*
X13247676Y9868095D02*
X13342914Y9915714D01*
X13342914Y9915714D02*
X13533390Y9963333D01*
X13533390Y9963333D02*
X13676247Y9963333D01*
X13676247Y9963333D02*
X13866723Y9915714D01*
X13866723Y9915714D02*
X13961961Y9868095D01*
X13961961Y9868095D02*
X14057200Y9772857D01*
X14057200Y9772857D02*
X14104819Y9630000D01*
X14104819Y9630000D02*
X14104819Y9391905D01*
X25852438Y28235714D02*
X25804819Y28140476D01*
X25804819Y28140476D02*
X25804819Y27997619D01*
X25804819Y27997619D02*
X25852438Y27854762D01*
X25852438Y27854762D02*
X25947676Y27759524D01*
X25947676Y27759524D02*
X26042914Y27711905D01*
X26042914Y27711905D02*
X26233390Y27664286D01*
X26233390Y27664286D02*
X26376247Y27664286D01*
X26376247Y27664286D02*
X26566723Y27711905D01*
X26566723Y27711905D02*
X26661961Y27759524D01*
X26661961Y27759524D02*
X26757200Y27854762D01*
X26757200Y27854762D02*
X26804819Y27997619D01*
X26804819Y27997619D02*
X26804819Y28092857D01*
X26804819Y28092857D02*
X26757200Y28235714D01*
X26757200Y28235714D02*
X26709580Y28283333D01*
X26709580Y28283333D02*
X26376247Y28283333D01*
X26376247Y28283333D02*
X26376247Y28092857D01*
X26804819Y28711905D02*
X25804819Y28711905D01*
X25804819Y28711905D02*
X25804819Y29092857D01*
X25804819Y29092857D02*
X25852438Y29188095D01*
X25852438Y29188095D02*
X25900057Y29235714D01*
X25900057Y29235714D02*
X25995295Y29283333D01*
X25995295Y29283333D02*
X26138152Y29283333D01*
X26138152Y29283333D02*
X26233390Y29235714D01*
X26233390Y29235714D02*
X26281009Y29188095D01*
X26281009Y29188095D02*
X26328628Y29092857D01*
X26328628Y29092857D02*
X26328628Y28711905D01*
X25804819Y30140476D02*
X25804819Y29950000D01*
X25804819Y29950000D02*
X25852438Y29854762D01*
X25852438Y29854762D02*
X25900057Y29807143D01*
X25900057Y29807143D02*
X26042914Y29711905D01*
X26042914Y29711905D02*
X26233390Y29664286D01*
X26233390Y29664286D02*
X26614342Y29664286D01*
X26614342Y29664286D02*
X26709580Y29711905D01*
X26709580Y29711905D02*
X26757200Y29759524D01*
X26757200Y29759524D02*
X26804819Y29854762D01*
X26804819Y29854762D02*
X26804819Y30045238D01*
X26804819Y30045238D02*
X26757200Y30140476D01*
X26757200Y30140476D02*
X26709580Y30188095D01*
X26709580Y30188095D02*
X26614342Y30235714D01*
X26614342Y30235714D02*
X26376247Y30235714D01*
X26376247Y30235714D02*
X26281009Y30188095D01*
X26281009Y30188095D02*
X26233390Y30140476D01*
X26233390Y30140476D02*
X26185771Y30045238D01*
X26185771Y30045238D02*
X26185771Y29854762D01*
X26185771Y29854762D02*
X26233390Y29759524D01*
X26233390Y29759524D02*
X26281009Y29711905D01*
X26281009Y29711905D02*
X26376247Y29664286D01*
X32779523Y21827561D02*
X32684285Y21875180D01*
X32684285Y21875180D02*
X32541428Y21875180D01*
X32541428Y21875180D02*
X32398571Y21827561D01*
X32398571Y21827561D02*
X32303333Y21732323D01*
X32303333Y21732323D02*
X32255714Y21637085D01*
X32255714Y21637085D02*
X32208095Y21446609D01*
X32208095Y21446609D02*
X32208095Y21303752D01*
X32208095Y21303752D02*
X32255714Y21113276D01*
X32255714Y21113276D02*
X32303333Y21018038D01*
X32303333Y21018038D02*
X32398571Y20922800D01*
X32398571Y20922800D02*
X32541428Y20875180D01*
X32541428Y20875180D02*
X32636666Y20875180D01*
X32636666Y20875180D02*
X32779523Y20922800D01*
X32779523Y20922800D02*
X32827142Y20970419D01*
X32827142Y20970419D02*
X32827142Y21303752D01*
X32827142Y21303752D02*
X32636666Y21303752D01*
X33255714Y20875180D02*
X33255714Y21875180D01*
X33255714Y21875180D02*
X33636666Y21875180D01*
X33636666Y21875180D02*
X33731904Y21827561D01*
X33731904Y21827561D02*
X33779523Y21779942D01*
X33779523Y21779942D02*
X33827142Y21684704D01*
X33827142Y21684704D02*
X33827142Y21541847D01*
X33827142Y21541847D02*
X33779523Y21446609D01*
X33779523Y21446609D02*
X33731904Y21398990D01*
X33731904Y21398990D02*
X33636666Y21351371D01*
X33636666Y21351371D02*
X33255714Y21351371D01*
X34779523Y20875180D02*
X34208095Y20875180D01*
X34493809Y20875180D02*
X34493809Y21875180D01*
X34493809Y21875180D02*
X34398571Y21732323D01*
X34398571Y21732323D02*
X34303333Y21637085D01*
X34303333Y21637085D02*
X34208095Y21589466D01*
X35398571Y21875180D02*
X35493809Y21875180D01*
X35493809Y21875180D02*
X35589047Y21827561D01*
X35589047Y21827561D02*
X35636666Y21779942D01*
X35636666Y21779942D02*
X35684285Y21684704D01*
X35684285Y21684704D02*
X35731904Y21494228D01*
X35731904Y21494228D02*
X35731904Y21256133D01*
X35731904Y21256133D02*
X35684285Y21065657D01*
X35684285Y21065657D02*
X35636666Y20970419D01*
X35636666Y20970419D02*
X35589047Y20922800D01*
X35589047Y20922800D02*
X35493809Y20875180D01*
X35493809Y20875180D02*
X35398571Y20875180D01*
X35398571Y20875180D02*
X35303333Y20922800D01*
X35303333Y20922800D02*
X35255714Y20970419D01*
X35255714Y20970419D02*
X35208095Y21065657D01*
X35208095Y21065657D02*
X35160476Y21256133D01*
X35160476Y21256133D02*
X35160476Y21494228D01*
X35160476Y21494228D02*
X35208095Y21684704D01*
X35208095Y21684704D02*
X35255714Y21779942D01*
X35255714Y21779942D02*
X35303333Y21827561D01*
X35303333Y21827561D02*
X35398571Y21875180D01*
X15644819Y7391905D02*
X15644819Y8010952D01*
X15644819Y8010952D02*
X16025771Y7677619D01*
X16025771Y7677619D02*
X16025771Y7820476D01*
X16025771Y7820476D02*
X16073390Y7915714D01*
X16073390Y7915714D02*
X16121009Y7963333D01*
X16121009Y7963333D02*
X16216247Y8010952D01*
X16216247Y8010952D02*
X16454342Y8010952D01*
X16454342Y8010952D02*
X16549580Y7963333D01*
X16549580Y7963333D02*
X16597200Y7915714D01*
X16597200Y7915714D02*
X16644819Y7820476D01*
X16644819Y7820476D02*
X16644819Y7534762D01*
X16644819Y7534762D02*
X16597200Y7439524D01*
X16597200Y7439524D02*
X16549580Y7391905D01*
X15644819Y8296667D02*
X16644819Y8630000D01*
X16644819Y8630000D02*
X15644819Y8963333D01*
X15644819Y9201429D02*
X15644819Y9820476D01*
X15644819Y9820476D02*
X16025771Y9487143D01*
X16025771Y9487143D02*
X16025771Y9630000D01*
X16025771Y9630000D02*
X16073390Y9725238D01*
X16073390Y9725238D02*
X16121009Y9772857D01*
X16121009Y9772857D02*
X16216247Y9820476D01*
X16216247Y9820476D02*
X16454342Y9820476D01*
X16454342Y9820476D02*
X16549580Y9772857D01*
X16549580Y9772857D02*
X16597200Y9725238D01*
X16597200Y9725238D02*
X16644819Y9630000D01*
X16644819Y9630000D02*
X16644819Y9344286D01*
X16644819Y9344286D02*
X16597200Y9249048D01*
X16597200Y9249048D02*
X16549580Y9201429D01*
X32779523Y14207561D02*
X32684285Y14255180D01*
X32684285Y14255180D02*
X32541428Y14255180D01*
X32541428Y14255180D02*
X32398571Y14207561D01*
X32398571Y14207561D02*
X32303333Y14112323D01*
X32303333Y14112323D02*
X32255714Y14017085D01*
X32255714Y14017085D02*
X32208095Y13826609D01*
X32208095Y13826609D02*
X32208095Y13683752D01*
X32208095Y13683752D02*
X32255714Y13493276D01*
X32255714Y13493276D02*
X32303333Y13398038D01*
X32303333Y13398038D02*
X32398571Y13302800D01*
X32398571Y13302800D02*
X32541428Y13255180D01*
X32541428Y13255180D02*
X32636666Y13255180D01*
X32636666Y13255180D02*
X32779523Y13302800D01*
X32779523Y13302800D02*
X32827142Y13350419D01*
X32827142Y13350419D02*
X32827142Y13683752D01*
X32827142Y13683752D02*
X32636666Y13683752D01*
X33255714Y13255180D02*
X33255714Y14255180D01*
X33255714Y14255180D02*
X33636666Y14255180D01*
X33636666Y14255180D02*
X33731904Y14207561D01*
X33731904Y14207561D02*
X33779523Y14159942D01*
X33779523Y14159942D02*
X33827142Y14064704D01*
X33827142Y14064704D02*
X33827142Y13921847D01*
X33827142Y13921847D02*
X33779523Y13826609D01*
X33779523Y13826609D02*
X33731904Y13778990D01*
X33731904Y13778990D02*
X33636666Y13731371D01*
X33636666Y13731371D02*
X33255714Y13731371D01*
X34779523Y13255180D02*
X34208095Y13255180D01*
X34493809Y13255180D02*
X34493809Y14255180D01*
X34493809Y14255180D02*
X34398571Y14112323D01*
X34398571Y14112323D02*
X34303333Y14017085D01*
X34303333Y14017085D02*
X34208095Y13969466D01*
X35112857Y14255180D02*
X35731904Y14255180D01*
X35731904Y14255180D02*
X35398571Y13874228D01*
X35398571Y13874228D02*
X35541428Y13874228D01*
X35541428Y13874228D02*
X35636666Y13826609D01*
X35636666Y13826609D02*
X35684285Y13778990D01*
X35684285Y13778990D02*
X35731904Y13683752D01*
X35731904Y13683752D02*
X35731904Y13445657D01*
X35731904Y13445657D02*
X35684285Y13350419D01*
X35684285Y13350419D02*
X35636666Y13302800D01*
X35636666Y13302800D02*
X35541428Y13255180D01*
X35541428Y13255180D02*
X35255714Y13255180D01*
X35255714Y13255180D02*
X35160476Y13302800D01*
X35160476Y13302800D02*
X35112857Y13350419D01*
X23312438Y28235714D02*
X23264819Y28140476D01*
X23264819Y28140476D02*
X23264819Y27997619D01*
X23264819Y27997619D02*
X23312438Y27854762D01*
X23312438Y27854762D02*
X23407676Y27759524D01*
X23407676Y27759524D02*
X23502914Y27711905D01*
X23502914Y27711905D02*
X23693390Y27664286D01*
X23693390Y27664286D02*
X23836247Y27664286D01*
X23836247Y27664286D02*
X24026723Y27711905D01*
X24026723Y27711905D02*
X24121961Y27759524D01*
X24121961Y27759524D02*
X24217200Y27854762D01*
X24217200Y27854762D02*
X24264819Y27997619D01*
X24264819Y27997619D02*
X24264819Y28092857D01*
X24264819Y28092857D02*
X24217200Y28235714D01*
X24217200Y28235714D02*
X24169580Y28283333D01*
X24169580Y28283333D02*
X23836247Y28283333D01*
X23836247Y28283333D02*
X23836247Y28092857D01*
X24264819Y28711905D02*
X23264819Y28711905D01*
X23264819Y28711905D02*
X23264819Y29092857D01*
X23264819Y29092857D02*
X23312438Y29188095D01*
X23312438Y29188095D02*
X23360057Y29235714D01*
X23360057Y29235714D02*
X23455295Y29283333D01*
X23455295Y29283333D02*
X23598152Y29283333D01*
X23598152Y29283333D02*
X23693390Y29235714D01*
X23693390Y29235714D02*
X23741009Y29188095D01*
X23741009Y29188095D02*
X23788628Y29092857D01*
X23788628Y29092857D02*
X23788628Y28711905D01*
X23264819Y30188095D02*
X23264819Y29711905D01*
X23264819Y29711905D02*
X23741009Y29664286D01*
X23741009Y29664286D02*
X23693390Y29711905D01*
X23693390Y29711905D02*
X23645771Y29807143D01*
X23645771Y29807143D02*
X23645771Y30045238D01*
X23645771Y30045238D02*
X23693390Y30140476D01*
X23693390Y30140476D02*
X23741009Y30188095D01*
X23741009Y30188095D02*
X23836247Y30235714D01*
X23836247Y30235714D02*
X24074342Y30235714D01*
X24074342Y30235714D02*
X24169580Y30188095D01*
X24169580Y30188095D02*
X24217200Y30140476D01*
X24217200Y30140476D02*
X24264819Y30045238D01*
X24264819Y30045238D02*
X24264819Y29807143D01*
X24264819Y29807143D02*
X24217200Y29711905D01*
X24217200Y29711905D02*
X24169580Y29664286D01*
X33255714Y24367561D02*
X33160476Y24415180D01*
X33160476Y24415180D02*
X33017619Y24415180D01*
X33017619Y24415180D02*
X32874762Y24367561D01*
X32874762Y24367561D02*
X32779524Y24272323D01*
X32779524Y24272323D02*
X32731905Y24177085D01*
X32731905Y24177085D02*
X32684286Y23986609D01*
X32684286Y23986609D02*
X32684286Y23843752D01*
X32684286Y23843752D02*
X32731905Y23653276D01*
X32731905Y23653276D02*
X32779524Y23558038D01*
X32779524Y23558038D02*
X32874762Y23462800D01*
X32874762Y23462800D02*
X33017619Y23415180D01*
X33017619Y23415180D02*
X33112857Y23415180D01*
X33112857Y23415180D02*
X33255714Y23462800D01*
X33255714Y23462800D02*
X33303333Y23510419D01*
X33303333Y23510419D02*
X33303333Y23843752D01*
X33303333Y23843752D02*
X33112857Y23843752D01*
X33731905Y23415180D02*
X33731905Y24415180D01*
X33731905Y24415180D02*
X34112857Y24415180D01*
X34112857Y24415180D02*
X34208095Y24367561D01*
X34208095Y24367561D02*
X34255714Y24319942D01*
X34255714Y24319942D02*
X34303333Y24224704D01*
X34303333Y24224704D02*
X34303333Y24081847D01*
X34303333Y24081847D02*
X34255714Y23986609D01*
X34255714Y23986609D02*
X34208095Y23938990D01*
X34208095Y23938990D02*
X34112857Y23891371D01*
X34112857Y23891371D02*
X33731905Y23891371D01*
X34779524Y23415180D02*
X34970000Y23415180D01*
X34970000Y23415180D02*
X35065238Y23462800D01*
X35065238Y23462800D02*
X35112857Y23510419D01*
X35112857Y23510419D02*
X35208095Y23653276D01*
X35208095Y23653276D02*
X35255714Y23843752D01*
X35255714Y23843752D02*
X35255714Y24224704D01*
X35255714Y24224704D02*
X35208095Y24319942D01*
X35208095Y24319942D02*
X35160476Y24367561D01*
X35160476Y24367561D02*
X35065238Y24415180D01*
X35065238Y24415180D02*
X34874762Y24415180D01*
X34874762Y24415180D02*
X34779524Y24367561D01*
X34779524Y24367561D02*
X34731905Y24319942D01*
X34731905Y24319942D02*
X34684286Y24224704D01*
X34684286Y24224704D02*
X34684286Y23986609D01*
X34684286Y23986609D02*
X34731905Y23891371D01*
X34731905Y23891371D02*
X34779524Y23843752D01*
X34779524Y23843752D02*
X34874762Y23796133D01*
X34874762Y23796133D02*
X35065238Y23796133D01*
X35065238Y23796133D02*
X35160476Y23843752D01*
X35160476Y23843752D02*
X35208095Y23891371D01*
X35208095Y23891371D02*
X35255714Y23986609D01*
X28392438Y28235714D02*
X28344819Y28140476D01*
X28344819Y28140476D02*
X28344819Y27997619D01*
X28344819Y27997619D02*
X28392438Y27854762D01*
X28392438Y27854762D02*
X28487676Y27759524D01*
X28487676Y27759524D02*
X28582914Y27711905D01*
X28582914Y27711905D02*
X28773390Y27664286D01*
X28773390Y27664286D02*
X28916247Y27664286D01*
X28916247Y27664286D02*
X29106723Y27711905D01*
X29106723Y27711905D02*
X29201961Y27759524D01*
X29201961Y27759524D02*
X29297200Y27854762D01*
X29297200Y27854762D02*
X29344819Y27997619D01*
X29344819Y27997619D02*
X29344819Y28092857D01*
X29344819Y28092857D02*
X29297200Y28235714D01*
X29297200Y28235714D02*
X29249580Y28283333D01*
X29249580Y28283333D02*
X28916247Y28283333D01*
X28916247Y28283333D02*
X28916247Y28092857D01*
X29344819Y28711905D02*
X28344819Y28711905D01*
X28344819Y28711905D02*
X28344819Y29092857D01*
X28344819Y29092857D02*
X28392438Y29188095D01*
X28392438Y29188095D02*
X28440057Y29235714D01*
X28440057Y29235714D02*
X28535295Y29283333D01*
X28535295Y29283333D02*
X28678152Y29283333D01*
X28678152Y29283333D02*
X28773390Y29235714D01*
X28773390Y29235714D02*
X28821009Y29188095D01*
X28821009Y29188095D02*
X28868628Y29092857D01*
X28868628Y29092857D02*
X28868628Y28711905D01*
X28344819Y29616667D02*
X28344819Y30283333D01*
X28344819Y30283333D02*
X29344819Y29854762D01*
X30932438Y7439523D02*
X30884819Y7344285D01*
X30884819Y7344285D02*
X30884819Y7201428D01*
X30884819Y7201428D02*
X30932438Y7058571D01*
X30932438Y7058571D02*
X31027676Y6963333D01*
X31027676Y6963333D02*
X31122914Y6915714D01*
X31122914Y6915714D02*
X31313390Y6868095D01*
X31313390Y6868095D02*
X31456247Y6868095D01*
X31456247Y6868095D02*
X31646723Y6915714D01*
X31646723Y6915714D02*
X31741961Y6963333D01*
X31741961Y6963333D02*
X31837200Y7058571D01*
X31837200Y7058571D02*
X31884819Y7201428D01*
X31884819Y7201428D02*
X31884819Y7296666D01*
X31884819Y7296666D02*
X31837200Y7439523D01*
X31837200Y7439523D02*
X31789580Y7487142D01*
X31789580Y7487142D02*
X31456247Y7487142D01*
X31456247Y7487142D02*
X31456247Y7296666D01*
X31884819Y7915714D02*
X30884819Y7915714D01*
X30884819Y7915714D02*
X30884819Y8296666D01*
X30884819Y8296666D02*
X30932438Y8391904D01*
X30932438Y8391904D02*
X30980057Y8439523D01*
X30980057Y8439523D02*
X31075295Y8487142D01*
X31075295Y8487142D02*
X31218152Y8487142D01*
X31218152Y8487142D02*
X31313390Y8439523D01*
X31313390Y8439523D02*
X31361009Y8391904D01*
X31361009Y8391904D02*
X31408628Y8296666D01*
X31408628Y8296666D02*
X31408628Y7915714D01*
X31884819Y9439523D02*
X31884819Y8868095D01*
X31884819Y9153809D02*
X30884819Y9153809D01*
X30884819Y9153809D02*
X31027676Y9058571D01*
X31027676Y9058571D02*
X31122914Y8963333D01*
X31122914Y8963333D02*
X31170533Y8868095D01*
X31218152Y10296666D02*
X31884819Y10296666D01*
X30837200Y10058571D02*
X31551485Y9820476D01*
X31551485Y9820476D02*
X31551485Y10439523D01*
X25852438Y7439523D02*
X25804819Y7344285D01*
X25804819Y7344285D02*
X25804819Y7201428D01*
X25804819Y7201428D02*
X25852438Y7058571D01*
X25852438Y7058571D02*
X25947676Y6963333D01*
X25947676Y6963333D02*
X26042914Y6915714D01*
X26042914Y6915714D02*
X26233390Y6868095D01*
X26233390Y6868095D02*
X26376247Y6868095D01*
X26376247Y6868095D02*
X26566723Y6915714D01*
X26566723Y6915714D02*
X26661961Y6963333D01*
X26661961Y6963333D02*
X26757200Y7058571D01*
X26757200Y7058571D02*
X26804819Y7201428D01*
X26804819Y7201428D02*
X26804819Y7296666D01*
X26804819Y7296666D02*
X26757200Y7439523D01*
X26757200Y7439523D02*
X26709580Y7487142D01*
X26709580Y7487142D02*
X26376247Y7487142D01*
X26376247Y7487142D02*
X26376247Y7296666D01*
X26804819Y7915714D02*
X25804819Y7915714D01*
X25804819Y7915714D02*
X25804819Y8296666D01*
X25804819Y8296666D02*
X25852438Y8391904D01*
X25852438Y8391904D02*
X25900057Y8439523D01*
X25900057Y8439523D02*
X25995295Y8487142D01*
X25995295Y8487142D02*
X26138152Y8487142D01*
X26138152Y8487142D02*
X26233390Y8439523D01*
X26233390Y8439523D02*
X26281009Y8391904D01*
X26281009Y8391904D02*
X26328628Y8296666D01*
X26328628Y8296666D02*
X26328628Y7915714D01*
X25900057Y8868095D02*
X25852438Y8915714D01*
X25852438Y8915714D02*
X25804819Y9010952D01*
X25804819Y9010952D02*
X25804819Y9249047D01*
X25804819Y9249047D02*
X25852438Y9344285D01*
X25852438Y9344285D02*
X25900057Y9391904D01*
X25900057Y9391904D02*
X25995295Y9439523D01*
X25995295Y9439523D02*
X26090533Y9439523D01*
X26090533Y9439523D02*
X26233390Y9391904D01*
X26233390Y9391904D02*
X26804819Y8820476D01*
X26804819Y8820476D02*
X26804819Y9439523D01*
X25804819Y10296666D02*
X25804819Y10106190D01*
X25804819Y10106190D02*
X25852438Y10010952D01*
X25852438Y10010952D02*
X25900057Y9963333D01*
X25900057Y9963333D02*
X26042914Y9868095D01*
X26042914Y9868095D02*
X26233390Y9820476D01*
X26233390Y9820476D02*
X26614342Y9820476D01*
X26614342Y9820476D02*
X26709580Y9868095D01*
X26709580Y9868095D02*
X26757200Y9915714D01*
X26757200Y9915714D02*
X26804819Y10010952D01*
X26804819Y10010952D02*
X26804819Y10201428D01*
X26804819Y10201428D02*
X26757200Y10296666D01*
X26757200Y10296666D02*
X26709580Y10344285D01*
X26709580Y10344285D02*
X26614342Y10391904D01*
X26614342Y10391904D02*
X26376247Y10391904D01*
X26376247Y10391904D02*
X26281009Y10344285D01*
X26281009Y10344285D02*
X26233390Y10296666D01*
X26233390Y10296666D02*
X26185771Y10201428D01*
X26185771Y10201428D02*
X26185771Y10010952D01*
X26185771Y10010952D02*
X26233390Y9915714D01*
X26233390Y9915714D02*
X26281009Y9868095D01*
X26281009Y9868095D02*
X26376247Y9820476D01*
X10612438Y28235714D02*
X10564819Y28140476D01*
X10564819Y28140476D02*
X10564819Y27997619D01*
X10564819Y27997619D02*
X10612438Y27854762D01*
X10612438Y27854762D02*
X10707676Y27759524D01*
X10707676Y27759524D02*
X10802914Y27711905D01*
X10802914Y27711905D02*
X10993390Y27664286D01*
X10993390Y27664286D02*
X11136247Y27664286D01*
X11136247Y27664286D02*
X11326723Y27711905D01*
X11326723Y27711905D02*
X11421961Y27759524D01*
X11421961Y27759524D02*
X11517200Y27854762D01*
X11517200Y27854762D02*
X11564819Y27997619D01*
X11564819Y27997619D02*
X11564819Y28092857D01*
X11564819Y28092857D02*
X11517200Y28235714D01*
X11517200Y28235714D02*
X11469580Y28283333D01*
X11469580Y28283333D02*
X11136247Y28283333D01*
X11136247Y28283333D02*
X11136247Y28092857D01*
X11564819Y28711905D02*
X10564819Y28711905D01*
X10564819Y28711905D02*
X10564819Y29092857D01*
X10564819Y29092857D02*
X10612438Y29188095D01*
X10612438Y29188095D02*
X10660057Y29235714D01*
X10660057Y29235714D02*
X10755295Y29283333D01*
X10755295Y29283333D02*
X10898152Y29283333D01*
X10898152Y29283333D02*
X10993390Y29235714D01*
X10993390Y29235714D02*
X11041009Y29188095D01*
X11041009Y29188095D02*
X11088628Y29092857D01*
X11088628Y29092857D02*
X11088628Y28711905D01*
X10564819Y29902381D02*
X10564819Y29997619D01*
X10564819Y29997619D02*
X10612438Y30092857D01*
X10612438Y30092857D02*
X10660057Y30140476D01*
X10660057Y30140476D02*
X10755295Y30188095D01*
X10755295Y30188095D02*
X10945771Y30235714D01*
X10945771Y30235714D02*
X11183866Y30235714D01*
X11183866Y30235714D02*
X11374342Y30188095D01*
X11374342Y30188095D02*
X11469580Y30140476D01*
X11469580Y30140476D02*
X11517200Y30092857D01*
X11517200Y30092857D02*
X11564819Y29997619D01*
X11564819Y29997619D02*
X11564819Y29902381D01*
X11564819Y29902381D02*
X11517200Y29807143D01*
X11517200Y29807143D02*
X11469580Y29759524D01*
X11469580Y29759524D02*
X11374342Y29711905D01*
X11374342Y29711905D02*
X11183866Y29664286D01*
X11183866Y29664286D02*
X10945771Y29664286D01*
X10945771Y29664286D02*
X10755295Y29711905D01*
X10755295Y29711905D02*
X10660057Y29759524D01*
X10660057Y29759524D02*
X10612438Y29807143D01*
X10612438Y29807143D02*
X10564819Y29902381D01*
X20772438Y28235714D02*
X20724819Y28140476D01*
X20724819Y28140476D02*
X20724819Y27997619D01*
X20724819Y27997619D02*
X20772438Y27854762D01*
X20772438Y27854762D02*
X20867676Y27759524D01*
X20867676Y27759524D02*
X20962914Y27711905D01*
X20962914Y27711905D02*
X21153390Y27664286D01*
X21153390Y27664286D02*
X21296247Y27664286D01*
X21296247Y27664286D02*
X21486723Y27711905D01*
X21486723Y27711905D02*
X21581961Y27759524D01*
X21581961Y27759524D02*
X21677200Y27854762D01*
X21677200Y27854762D02*
X21724819Y27997619D01*
X21724819Y27997619D02*
X21724819Y28092857D01*
X21724819Y28092857D02*
X21677200Y28235714D01*
X21677200Y28235714D02*
X21629580Y28283333D01*
X21629580Y28283333D02*
X21296247Y28283333D01*
X21296247Y28283333D02*
X21296247Y28092857D01*
X21724819Y28711905D02*
X20724819Y28711905D01*
X20724819Y28711905D02*
X20724819Y29092857D01*
X20724819Y29092857D02*
X20772438Y29188095D01*
X20772438Y29188095D02*
X20820057Y29235714D01*
X20820057Y29235714D02*
X20915295Y29283333D01*
X20915295Y29283333D02*
X21058152Y29283333D01*
X21058152Y29283333D02*
X21153390Y29235714D01*
X21153390Y29235714D02*
X21201009Y29188095D01*
X21201009Y29188095D02*
X21248628Y29092857D01*
X21248628Y29092857D02*
X21248628Y28711905D01*
X21058152Y30140476D02*
X21724819Y30140476D01*
X20677200Y29902381D02*
X21391485Y29664286D01*
X21391485Y29664286D02*
X21391485Y30283333D01*
X32779523Y19287561D02*
X32684285Y19335180D01*
X32684285Y19335180D02*
X32541428Y19335180D01*
X32541428Y19335180D02*
X32398571Y19287561D01*
X32398571Y19287561D02*
X32303333Y19192323D01*
X32303333Y19192323D02*
X32255714Y19097085D01*
X32255714Y19097085D02*
X32208095Y18906609D01*
X32208095Y18906609D02*
X32208095Y18763752D01*
X32208095Y18763752D02*
X32255714Y18573276D01*
X32255714Y18573276D02*
X32303333Y18478038D01*
X32303333Y18478038D02*
X32398571Y18382800D01*
X32398571Y18382800D02*
X32541428Y18335180D01*
X32541428Y18335180D02*
X32636666Y18335180D01*
X32636666Y18335180D02*
X32779523Y18382800D01*
X32779523Y18382800D02*
X32827142Y18430419D01*
X32827142Y18430419D02*
X32827142Y18763752D01*
X32827142Y18763752D02*
X32636666Y18763752D01*
X33255714Y18335180D02*
X33255714Y19335180D01*
X33255714Y19335180D02*
X33636666Y19335180D01*
X33636666Y19335180D02*
X33731904Y19287561D01*
X33731904Y19287561D02*
X33779523Y19239942D01*
X33779523Y19239942D02*
X33827142Y19144704D01*
X33827142Y19144704D02*
X33827142Y19001847D01*
X33827142Y19001847D02*
X33779523Y18906609D01*
X33779523Y18906609D02*
X33731904Y18858990D01*
X33731904Y18858990D02*
X33636666Y18811371D01*
X33636666Y18811371D02*
X33255714Y18811371D01*
X34779523Y18335180D02*
X34208095Y18335180D01*
X34493809Y18335180D02*
X34493809Y19335180D01*
X34493809Y19335180D02*
X34398571Y19192323D01*
X34398571Y19192323D02*
X34303333Y19097085D01*
X34303333Y19097085D02*
X34208095Y19049466D01*
X35731904Y18335180D02*
X35160476Y18335180D01*
X35446190Y18335180D02*
X35446190Y19335180D01*
X35446190Y19335180D02*
X35350952Y19192323D01*
X35350952Y19192323D02*
X35255714Y19097085D01*
X35255714Y19097085D02*
X35160476Y19049466D01*
X23312438Y7439523D02*
X23264819Y7344285D01*
X23264819Y7344285D02*
X23264819Y7201428D01*
X23264819Y7201428D02*
X23312438Y7058571D01*
X23312438Y7058571D02*
X23407676Y6963333D01*
X23407676Y6963333D02*
X23502914Y6915714D01*
X23502914Y6915714D02*
X23693390Y6868095D01*
X23693390Y6868095D02*
X23836247Y6868095D01*
X23836247Y6868095D02*
X24026723Y6915714D01*
X24026723Y6915714D02*
X24121961Y6963333D01*
X24121961Y6963333D02*
X24217200Y7058571D01*
X24217200Y7058571D02*
X24264819Y7201428D01*
X24264819Y7201428D02*
X24264819Y7296666D01*
X24264819Y7296666D02*
X24217200Y7439523D01*
X24217200Y7439523D02*
X24169580Y7487142D01*
X24169580Y7487142D02*
X23836247Y7487142D01*
X23836247Y7487142D02*
X23836247Y7296666D01*
X24264819Y7915714D02*
X23264819Y7915714D01*
X23264819Y7915714D02*
X23264819Y8296666D01*
X23264819Y8296666D02*
X23312438Y8391904D01*
X23312438Y8391904D02*
X23360057Y8439523D01*
X23360057Y8439523D02*
X23455295Y8487142D01*
X23455295Y8487142D02*
X23598152Y8487142D01*
X23598152Y8487142D02*
X23693390Y8439523D01*
X23693390Y8439523D02*
X23741009Y8391904D01*
X23741009Y8391904D02*
X23788628Y8296666D01*
X23788628Y8296666D02*
X23788628Y7915714D01*
X23360057Y8868095D02*
X23312438Y8915714D01*
X23312438Y8915714D02*
X23264819Y9010952D01*
X23264819Y9010952D02*
X23264819Y9249047D01*
X23264819Y9249047D02*
X23312438Y9344285D01*
X23312438Y9344285D02*
X23360057Y9391904D01*
X23360057Y9391904D02*
X23455295Y9439523D01*
X23455295Y9439523D02*
X23550533Y9439523D01*
X23550533Y9439523D02*
X23693390Y9391904D01*
X23693390Y9391904D02*
X24264819Y8820476D01*
X24264819Y8820476D02*
X24264819Y9439523D01*
X23264819Y9772857D02*
X23264819Y10439523D01*
X23264819Y10439523D02*
X24264819Y10010952D01*
X32779523Y16747561D02*
X32684285Y16795180D01*
X32684285Y16795180D02*
X32541428Y16795180D01*
X32541428Y16795180D02*
X32398571Y16747561D01*
X32398571Y16747561D02*
X32303333Y16652323D01*
X32303333Y16652323D02*
X32255714Y16557085D01*
X32255714Y16557085D02*
X32208095Y16366609D01*
X32208095Y16366609D02*
X32208095Y16223752D01*
X32208095Y16223752D02*
X32255714Y16033276D01*
X32255714Y16033276D02*
X32303333Y15938038D01*
X32303333Y15938038D02*
X32398571Y15842800D01*
X32398571Y15842800D02*
X32541428Y15795180D01*
X32541428Y15795180D02*
X32636666Y15795180D01*
X32636666Y15795180D02*
X32779523Y15842800D01*
X32779523Y15842800D02*
X32827142Y15890419D01*
X32827142Y15890419D02*
X32827142Y16223752D01*
X32827142Y16223752D02*
X32636666Y16223752D01*
X33255714Y15795180D02*
X33255714Y16795180D01*
X33255714Y16795180D02*
X33636666Y16795180D01*
X33636666Y16795180D02*
X33731904Y16747561D01*
X33731904Y16747561D02*
X33779523Y16699942D01*
X33779523Y16699942D02*
X33827142Y16604704D01*
X33827142Y16604704D02*
X33827142Y16461847D01*
X33827142Y16461847D02*
X33779523Y16366609D01*
X33779523Y16366609D02*
X33731904Y16318990D01*
X33731904Y16318990D02*
X33636666Y16271371D01*
X33636666Y16271371D02*
X33255714Y16271371D01*
X34779523Y15795180D02*
X34208095Y15795180D01*
X34493809Y15795180D02*
X34493809Y16795180D01*
X34493809Y16795180D02*
X34398571Y16652323D01*
X34398571Y16652323D02*
X34303333Y16557085D01*
X34303333Y16557085D02*
X34208095Y16509466D01*
X35160476Y16699942D02*
X35208095Y16747561D01*
X35208095Y16747561D02*
X35303333Y16795180D01*
X35303333Y16795180D02*
X35541428Y16795180D01*
X35541428Y16795180D02*
X35636666Y16747561D01*
X35636666Y16747561D02*
X35684285Y16699942D01*
X35684285Y16699942D02*
X35731904Y16604704D01*
X35731904Y16604704D02*
X35731904Y16509466D01*
X35731904Y16509466D02*
X35684285Y16366609D01*
X35684285Y16366609D02*
X35112857Y15795180D01*
X35112857Y15795180D02*
X35731904Y15795180D01*
X20772438Y7439523D02*
X20724819Y7344285D01*
X20724819Y7344285D02*
X20724819Y7201428D01*
X20724819Y7201428D02*
X20772438Y7058571D01*
X20772438Y7058571D02*
X20867676Y6963333D01*
X20867676Y6963333D02*
X20962914Y6915714D01*
X20962914Y6915714D02*
X21153390Y6868095D01*
X21153390Y6868095D02*
X21296247Y6868095D01*
X21296247Y6868095D02*
X21486723Y6915714D01*
X21486723Y6915714D02*
X21581961Y6963333D01*
X21581961Y6963333D02*
X21677200Y7058571D01*
X21677200Y7058571D02*
X21724819Y7201428D01*
X21724819Y7201428D02*
X21724819Y7296666D01*
X21724819Y7296666D02*
X21677200Y7439523D01*
X21677200Y7439523D02*
X21629580Y7487142D01*
X21629580Y7487142D02*
X21296247Y7487142D01*
X21296247Y7487142D02*
X21296247Y7296666D01*
X21724819Y7915714D02*
X20724819Y7915714D01*
X20724819Y7915714D02*
X20724819Y8296666D01*
X20724819Y8296666D02*
X20772438Y8391904D01*
X20772438Y8391904D02*
X20820057Y8439523D01*
X20820057Y8439523D02*
X20915295Y8487142D01*
X20915295Y8487142D02*
X21058152Y8487142D01*
X21058152Y8487142D02*
X21153390Y8439523D01*
X21153390Y8439523D02*
X21201009Y8391904D01*
X21201009Y8391904D02*
X21248628Y8296666D01*
X21248628Y8296666D02*
X21248628Y7915714D01*
X20820057Y8868095D02*
X20772438Y8915714D01*
X20772438Y8915714D02*
X20724819Y9010952D01*
X20724819Y9010952D02*
X20724819Y9249047D01*
X20724819Y9249047D02*
X20772438Y9344285D01*
X20772438Y9344285D02*
X20820057Y9391904D01*
X20820057Y9391904D02*
X20915295Y9439523D01*
X20915295Y9439523D02*
X21010533Y9439523D01*
X21010533Y9439523D02*
X21153390Y9391904D01*
X21153390Y9391904D02*
X21724819Y8820476D01*
X21724819Y8820476D02*
X21724819Y9439523D01*
X21153390Y10010952D02*
X21105771Y9915714D01*
X21105771Y9915714D02*
X21058152Y9868095D01*
X21058152Y9868095D02*
X20962914Y9820476D01*
X20962914Y9820476D02*
X20915295Y9820476D01*
X20915295Y9820476D02*
X20820057Y9868095D01*
X20820057Y9868095D02*
X20772438Y9915714D01*
X20772438Y9915714D02*
X20724819Y10010952D01*
X20724819Y10010952D02*
X20724819Y10201428D01*
X20724819Y10201428D02*
X20772438Y10296666D01*
X20772438Y10296666D02*
X20820057Y10344285D01*
X20820057Y10344285D02*
X20915295Y10391904D01*
X20915295Y10391904D02*
X20962914Y10391904D01*
X20962914Y10391904D02*
X21058152Y10344285D01*
X21058152Y10344285D02*
X21105771Y10296666D01*
X21105771Y10296666D02*
X21153390Y10201428D01*
X21153390Y10201428D02*
X21153390Y10010952D01*
X21153390Y10010952D02*
X21201009Y9915714D01*
X21201009Y9915714D02*
X21248628Y9868095D01*
X21248628Y9868095D02*
X21343866Y9820476D01*
X21343866Y9820476D02*
X21534342Y9820476D01*
X21534342Y9820476D02*
X21629580Y9868095D01*
X21629580Y9868095D02*
X21677200Y9915714D01*
X21677200Y9915714D02*
X21724819Y10010952D01*
X21724819Y10010952D02*
X21724819Y10201428D01*
X21724819Y10201428D02*
X21677200Y10296666D01*
X21677200Y10296666D02*
X21629580Y10344285D01*
X21629580Y10344285D02*
X21534342Y10391904D01*
X21534342Y10391904D02*
X21343866Y10391904D01*
X21343866Y10391904D02*
X21248628Y10344285D01*
X21248628Y10344285D02*
X21201009Y10296666D01*
X21201009Y10296666D02*
X21153390Y10201428D01*
X15692438Y28235714D02*
X15644819Y28140476D01*
X15644819Y28140476D02*
X15644819Y27997619D01*
X15644819Y27997619D02*
X15692438Y27854762D01*
X15692438Y27854762D02*
X15787676Y27759524D01*
X15787676Y27759524D02*
X15882914Y27711905D01*
X15882914Y27711905D02*
X16073390Y27664286D01*
X16073390Y27664286D02*
X16216247Y27664286D01*
X16216247Y27664286D02*
X16406723Y27711905D01*
X16406723Y27711905D02*
X16501961Y27759524D01*
X16501961Y27759524D02*
X16597200Y27854762D01*
X16597200Y27854762D02*
X16644819Y27997619D01*
X16644819Y27997619D02*
X16644819Y28092857D01*
X16644819Y28092857D02*
X16597200Y28235714D01*
X16597200Y28235714D02*
X16549580Y28283333D01*
X16549580Y28283333D02*
X16216247Y28283333D01*
X16216247Y28283333D02*
X16216247Y28092857D01*
X16644819Y28711905D02*
X15644819Y28711905D01*
X15644819Y28711905D02*
X15644819Y29092857D01*
X15644819Y29092857D02*
X15692438Y29188095D01*
X15692438Y29188095D02*
X15740057Y29235714D01*
X15740057Y29235714D02*
X15835295Y29283333D01*
X15835295Y29283333D02*
X15978152Y29283333D01*
X15978152Y29283333D02*
X16073390Y29235714D01*
X16073390Y29235714D02*
X16121009Y29188095D01*
X16121009Y29188095D02*
X16168628Y29092857D01*
X16168628Y29092857D02*
X16168628Y28711905D01*
X15740057Y29664286D02*
X15692438Y29711905D01*
X15692438Y29711905D02*
X15644819Y29807143D01*
X15644819Y29807143D02*
X15644819Y30045238D01*
X15644819Y30045238D02*
X15692438Y30140476D01*
X15692438Y30140476D02*
X15740057Y30188095D01*
X15740057Y30188095D02*
X15835295Y30235714D01*
X15835295Y30235714D02*
X15930533Y30235714D01*
X15930533Y30235714D02*
X16073390Y30188095D01*
X16073390Y30188095D02*
X16644819Y29616667D01*
X16644819Y29616667D02*
X16644819Y30235714D01*
X28392438Y7439523D02*
X28344819Y7344285D01*
X28344819Y7344285D02*
X28344819Y7201428D01*
X28344819Y7201428D02*
X28392438Y7058571D01*
X28392438Y7058571D02*
X28487676Y6963333D01*
X28487676Y6963333D02*
X28582914Y6915714D01*
X28582914Y6915714D02*
X28773390Y6868095D01*
X28773390Y6868095D02*
X28916247Y6868095D01*
X28916247Y6868095D02*
X29106723Y6915714D01*
X29106723Y6915714D02*
X29201961Y6963333D01*
X29201961Y6963333D02*
X29297200Y7058571D01*
X29297200Y7058571D02*
X29344819Y7201428D01*
X29344819Y7201428D02*
X29344819Y7296666D01*
X29344819Y7296666D02*
X29297200Y7439523D01*
X29297200Y7439523D02*
X29249580Y7487142D01*
X29249580Y7487142D02*
X28916247Y7487142D01*
X28916247Y7487142D02*
X28916247Y7296666D01*
X29344819Y7915714D02*
X28344819Y7915714D01*
X28344819Y7915714D02*
X28344819Y8296666D01*
X28344819Y8296666D02*
X28392438Y8391904D01*
X28392438Y8391904D02*
X28440057Y8439523D01*
X28440057Y8439523D02*
X28535295Y8487142D01*
X28535295Y8487142D02*
X28678152Y8487142D01*
X28678152Y8487142D02*
X28773390Y8439523D01*
X28773390Y8439523D02*
X28821009Y8391904D01*
X28821009Y8391904D02*
X28868628Y8296666D01*
X28868628Y8296666D02*
X28868628Y7915714D01*
X29344819Y9439523D02*
X29344819Y8868095D01*
X29344819Y9153809D02*
X28344819Y9153809D01*
X28344819Y9153809D02*
X28487676Y9058571D01*
X28487676Y9058571D02*
X28582914Y8963333D01*
X28582914Y8963333D02*
X28630533Y8868095D01*
X28344819Y10344285D02*
X28344819Y9868095D01*
X28344819Y9868095D02*
X28821009Y9820476D01*
X28821009Y9820476D02*
X28773390Y9868095D01*
X28773390Y9868095D02*
X28725771Y9963333D01*
X28725771Y9963333D02*
X28725771Y10201428D01*
X28725771Y10201428D02*
X28773390Y10296666D01*
X28773390Y10296666D02*
X28821009Y10344285D01*
X28821009Y10344285D02*
X28916247Y10391904D01*
X28916247Y10391904D02*
X29154342Y10391904D01*
X29154342Y10391904D02*
X29249580Y10344285D01*
X29249580Y10344285D02*
X29297200Y10296666D01*
X29297200Y10296666D02*
X29344819Y10201428D01*
X29344819Y10201428D02*
X29344819Y9963333D01*
X29344819Y9963333D02*
X29297200Y9868095D01*
X29297200Y9868095D02*
X29249580Y9820476D01*
X13152438Y28235714D02*
X13104819Y28140476D01*
X13104819Y28140476D02*
X13104819Y27997619D01*
X13104819Y27997619D02*
X13152438Y27854762D01*
X13152438Y27854762D02*
X13247676Y27759524D01*
X13247676Y27759524D02*
X13342914Y27711905D01*
X13342914Y27711905D02*
X13533390Y27664286D01*
X13533390Y27664286D02*
X13676247Y27664286D01*
X13676247Y27664286D02*
X13866723Y27711905D01*
X13866723Y27711905D02*
X13961961Y27759524D01*
X13961961Y27759524D02*
X14057200Y27854762D01*
X14057200Y27854762D02*
X14104819Y27997619D01*
X14104819Y27997619D02*
X14104819Y28092857D01*
X14104819Y28092857D02*
X14057200Y28235714D01*
X14057200Y28235714D02*
X14009580Y28283333D01*
X14009580Y28283333D02*
X13676247Y28283333D01*
X13676247Y28283333D02*
X13676247Y28092857D01*
X14104819Y28711905D02*
X13104819Y28711905D01*
X13104819Y28711905D02*
X13104819Y29092857D01*
X13104819Y29092857D02*
X13152438Y29188095D01*
X13152438Y29188095D02*
X13200057Y29235714D01*
X13200057Y29235714D02*
X13295295Y29283333D01*
X13295295Y29283333D02*
X13438152Y29283333D01*
X13438152Y29283333D02*
X13533390Y29235714D01*
X13533390Y29235714D02*
X13581009Y29188095D01*
X13581009Y29188095D02*
X13628628Y29092857D01*
X13628628Y29092857D02*
X13628628Y28711905D01*
X14104819Y30235714D02*
X14104819Y29664286D01*
X14104819Y29950000D02*
X13104819Y29950000D01*
X13104819Y29950000D02*
X13247676Y29854762D01*
X13247676Y29854762D02*
X13342914Y29759524D01*
X13342914Y29759524D02*
X13390533Y29664286D01*
X10564819Y8439523D02*
X10564819Y7963333D01*
X10564819Y7963333D02*
X11041009Y7915714D01*
X11041009Y7915714D02*
X10993390Y7963333D01*
X10993390Y7963333D02*
X10945771Y8058571D01*
X10945771Y8058571D02*
X10945771Y8296666D01*
X10945771Y8296666D02*
X10993390Y8391904D01*
X10993390Y8391904D02*
X11041009Y8439523D01*
X11041009Y8439523D02*
X11136247Y8487142D01*
X11136247Y8487142D02*
X11374342Y8487142D01*
X11374342Y8487142D02*
X11469580Y8439523D01*
X11469580Y8439523D02*
X11517200Y8391904D01*
X11517200Y8391904D02*
X11564819Y8296666D01*
X11564819Y8296666D02*
X11564819Y8058571D01*
X11564819Y8058571D02*
X11517200Y7963333D01*
X11517200Y7963333D02*
X11469580Y7915714D01*
X10564819Y8772857D02*
X11564819Y9106190D01*
X11564819Y9106190D02*
X10564819Y9439523D01*
X18232438Y28235714D02*
X18184819Y28140476D01*
X18184819Y28140476D02*
X18184819Y27997619D01*
X18184819Y27997619D02*
X18232438Y27854762D01*
X18232438Y27854762D02*
X18327676Y27759524D01*
X18327676Y27759524D02*
X18422914Y27711905D01*
X18422914Y27711905D02*
X18613390Y27664286D01*
X18613390Y27664286D02*
X18756247Y27664286D01*
X18756247Y27664286D02*
X18946723Y27711905D01*
X18946723Y27711905D02*
X19041961Y27759524D01*
X19041961Y27759524D02*
X19137200Y27854762D01*
X19137200Y27854762D02*
X19184819Y27997619D01*
X19184819Y27997619D02*
X19184819Y28092857D01*
X19184819Y28092857D02*
X19137200Y28235714D01*
X19137200Y28235714D02*
X19089580Y28283333D01*
X19089580Y28283333D02*
X18756247Y28283333D01*
X18756247Y28283333D02*
X18756247Y28092857D01*
X19184819Y28711905D02*
X18184819Y28711905D01*
X18184819Y28711905D02*
X18184819Y29092857D01*
X18184819Y29092857D02*
X18232438Y29188095D01*
X18232438Y29188095D02*
X18280057Y29235714D01*
X18280057Y29235714D02*
X18375295Y29283333D01*
X18375295Y29283333D02*
X18518152Y29283333D01*
X18518152Y29283333D02*
X18613390Y29235714D01*
X18613390Y29235714D02*
X18661009Y29188095D01*
X18661009Y29188095D02*
X18708628Y29092857D01*
X18708628Y29092857D02*
X18708628Y28711905D01*
X18184819Y29616667D02*
X18184819Y30235714D01*
X18184819Y30235714D02*
X18565771Y29902381D01*
X18565771Y29902381D02*
X18565771Y30045238D01*
X18565771Y30045238D02*
X18613390Y30140476D01*
X18613390Y30140476D02*
X18661009Y30188095D01*
X18661009Y30188095D02*
X18756247Y30235714D01*
X18756247Y30235714D02*
X18994342Y30235714D01*
X18994342Y30235714D02*
X19089580Y30188095D01*
X19089580Y30188095D02*
X19137200Y30140476D01*
X19137200Y30140476D02*
X19184819Y30045238D01*
X19184819Y30045238D02*
X19184819Y29759524D01*
X19184819Y29759524D02*
X19137200Y29664286D01*
X19137200Y29664286D02*
X19089580Y29616667D01*
D11*
%TO.C,SW21*%
X46360000Y27240000D02*
X46360000Y26640000D01*
X46060000Y26940000D02*
X46360000Y27240000D01*
X46360000Y26640000D02*
X46060000Y26940000D01*
X48560000Y26140000D02*
X46060000Y26140000D01*
X35960000Y26140000D02*
X38760000Y26140000D01*
X48560000Y21340000D02*
X48560000Y26140000D01*
X35960000Y21240000D02*
X35960000Y26140000D01*
X42260000Y19940000D02*
X42260000Y18940000D01*
X42760000Y19440000D02*
X41760000Y19440000D01*
X48560000Y17640000D02*
X48560000Y12740000D01*
X48560000Y12740000D02*
X45960000Y12740000D01*
X43560000Y12740000D02*
X40960000Y12740000D01*
X38560000Y12740000D02*
X35960000Y12740000D01*
X35960000Y12740000D02*
X35960000Y17640000D01*
X45260000Y19440000D02*
G75*
G03*
X45260000Y19440000I-3000000J0D01*
G01*
D10*
%TO.C,J1*%
X65740000Y20890000D02*
X65740000Y14890000D01*
X53740000Y20890000D02*
X65740000Y20890000D01*
X65740000Y14890000D02*
X53740000Y14890000D01*
X53740000Y14890000D02*
X53740000Y20890000D01*
%TO.C,U2*%
X9520000Y9790000D02*
X9520000Y14460000D01*
X9520000Y9790000D02*
X9520000Y27790000D01*
X33020000Y9790000D02*
X9520000Y9790000D01*
X7640000Y14460000D02*
X7640000Y23120000D01*
X9520000Y14460000D02*
X7640000Y14460000D01*
X9520000Y23120000D02*
X7640000Y23120000D01*
X9520000Y27790000D02*
X9520000Y23120000D01*
X9520000Y27790000D02*
X33020000Y27790000D01*
X33020000Y27790000D02*
X33020000Y9790000D01*
%TD*%
D12*
%TO.C,J1*%
X64240000Y19640000D03*
X57240000Y19640000D03*
X64240000Y17890000D03*
X57240000Y17890000D03*
D13*
X53940000Y19990000D03*
X53940000Y17540000D03*
X62440000Y21740000D03*
X62440000Y15790000D03*
X59440000Y21740000D03*
X59440000Y15790000D03*
X55440000Y21740000D03*
X55440000Y15790000D03*
%TD*%
M02*
