M48
; DRILL file {KiCad 7.0.8} date 2023 October 28, Saturday 15:04:43
; FORMAT={-:-/ absolute / metric / decimal}
; #@! TF.CreationDate,2023-10-28T15:04:43+09:00
; #@! TF.GenerationSoftware,Kicad,Pcbnew,7.0.8
; #@! TF.FileFunction,Plated,1,2,PTH
FMAT,2
METRIC
; #@! TA.AperFunction,Plated,PTH,ViaDrill
T1C0.400
; #@! TA.AperFunction,Plated,PTH,ComponentDrill
T2C0.813
; #@! TA.AperFunction,Plated,PTH,ComponentDrill
T3C1.000
%
G90
G05
T1
X27.46Y7.96
X27.81Y-64.32
X28.48Y7.14
X28.98Y-45.255
X32.05Y6.41
X35.08Y16.28
X35.86Y18.85
X39.97Y17.7
X46.22Y2.49
X46.22Y-25.84
X47.52Y6.95
X49.22Y5.79
T2
X-3.15Y-65.3
X-2.97Y-8.51
X-2.95Y-27.34
X-2.93Y-46.64
X2.85Y-65.3
X3.03Y-8.51
X3.05Y-27.34
X3.07Y-46.64
X11.11Y26.41
X11.11Y11.17
X13.65Y26.41
X13.65Y11.17
X16.061Y-65.43
X16.13Y-8.24
X16.142Y-46.23
X16.18Y-27.485
X16.19Y26.41
X16.19Y11.17
X18.73Y26.41
X18.73Y11.17
X21.27Y26.41
X21.27Y11.17
X22.061Y-65.43
X22.13Y-8.24
X22.142Y-46.23
X22.18Y-27.485
X23.81Y26.41
X23.81Y11.17
X26.35Y26.41
X26.35Y11.17
X28.89Y26.41
X28.89Y11.17
X31.43Y26.41
X31.43Y23.87
X31.43Y21.33
X31.43Y18.79
X31.43Y16.25
X31.43Y13.71
X31.43Y11.17
X35.215Y-46.538
X35.23Y-8.24
X35.273Y-65.43
X35.31Y-27.05
X41.215Y-46.538
X41.23Y-8.24
X41.273Y-65.43
X41.31Y-27.05
X54.287Y-46.435
X54.33Y-8.24
X54.44Y-27.63
X54.484Y-65.3
X60.287Y-46.435
X60.33Y-8.24
X60.44Y-27.63
X60.484Y-65.3
X73.36Y-46.332
X73.43Y-8.3
X73.57Y-27.195
X73.695Y-65.43
X79.36Y-46.332
X79.43Y-8.3
X79.57Y-27.195
X79.695Y-65.43
T3
G00X54.19Y19.99
M15
G01X53.69Y19.99
M16
G05
G00X54.19Y17.54
M15
G01X53.69Y17.54
M16
G05
G00X55.69Y21.74
M15
G01X55.19Y21.74
M16
G05
G00X55.69Y15.79
M15
G01X55.19Y15.79
M16
G05
G00X59.69Y21.74
M15
G01X59.19Y21.74
M16
G05
G00X59.69Y15.79
M15
G01X59.19Y15.79
M16
G05
G00X62.69Y21.74
M15
G01X62.19Y21.74
M16
G05
G00X62.69Y15.79
M15
G01X62.19Y15.79
M16
G05
T0
M30
